%TF.GenerationSoftware,KiCad,Pcbnew,6.0.11-2627ca5db0~126~ubuntu20.04.1*%
%TF.CreationDate,2023-07-21T22:08:40+02:00*%
%TF.ProjectId,Demo Board v2,44656d6f-2042-46f6-9172-642076322e6b,rev?*%
%TF.SameCoordinates,Original*%
%TF.FileFunction,Paste,Top*%
%TF.FilePolarity,Positive*%
%FSLAX46Y46*%
G04 Gerber Fmt 4.6, Leading zero omitted, Abs format (unit mm)*
G04 Created by KiCad (PCBNEW 6.0.11-2627ca5db0~126~ubuntu20.04.1) date 2023-07-21 22:08:40*
%MOMM*%
%LPD*%
G01*
G04 APERTURE LIST*
G04 Aperture macros list*
%AMRoundRect*
0 Rectangle with rounded corners*
0 $1 Rounding radius*
0 $2 $3 $4 $5 $6 $7 $8 $9 X,Y pos of 4 corners*
0 Add a 4 corners polygon primitive as box body*
4,1,4,$2,$3,$4,$5,$6,$7,$8,$9,$2,$3,0*
0 Add four circle primitives for the rounded corners*
1,1,$1+$1,$2,$3*
1,1,$1+$1,$4,$5*
1,1,$1+$1,$6,$7*
1,1,$1+$1,$8,$9*
0 Add four rect primitives between the rounded corners*
20,1,$1+$1,$2,$3,$4,$5,0*
20,1,$1+$1,$4,$5,$6,$7,0*
20,1,$1+$1,$6,$7,$8,$9,0*
20,1,$1+$1,$8,$9,$2,$3,0*%
%AMRotRect*
0 Rectangle, with rotation*
0 The origin of the aperture is its center*
0 $1 length*
0 $2 width*
0 $3 Rotation angle, in degrees counterclockwise*
0 Add horizontal line*
21,1,$1,$2,0,0,$3*%
G04 Aperture macros list end*
%ADD10C,0.250000*%
%ADD11RotRect,0.280000X0.430000X135.000000*%
%ADD12R,1.300000X1.500000*%
%ADD13RotRect,1.000000X1.100000X45.000000*%
%ADD14R,1.600000X1.803000*%
%ADD15R,0.280000X0.430000*%
%ADD16RotRect,1.300000X1.500000X135.000000*%
%ADD17R,0.430000X0.280000*%
%ADD18R,0.270000X1.500000*%
%ADD19R,1.500000X0.270000*%
%ADD20RotRect,1.000000X1.100000X225.000000*%
%ADD21RotRect,0.800000X0.900000X120.000000*%
%ADD22RoundRect,0.070000X-0.280000X-0.070000X0.280000X-0.070000X0.280000X0.070000X-0.280000X0.070000X0*%
%ADD23R,0.700000X0.280000*%
%ADD24RoundRect,0.070000X-0.070000X-0.280000X0.070000X-0.280000X0.070000X0.280000X-0.070000X0.280000X0*%
%ADD25R,0.280000X0.700000*%
%ADD26R,3.500000X3.500000*%
%ADD27R,0.250000X0.250000*%
%ADD28R,1.905000X3.810000*%
%ADD29RotRect,0.280000X0.430000X45.000000*%
%ADD30RotRect,1.600000X1.803000X315.000000*%
%ADD31R,0.700000X0.900000*%
%ADD32RotRect,0.700000X0.900000X135.000000*%
%ADD33R,0.900000X0.700000*%
%ADD34RotRect,1.300000X1.500000X225.000000*%
%ADD35R,1.100000X1.000000*%
%ADD36RotRect,0.800000X0.900000X60.000000*%
%ADD37R,0.800000X0.900000*%
%ADD38R,1.000000X1.100000*%
%ADD39RotRect,0.700000X0.900000X45.000000*%
%ADD40R,0.304800X0.990600*%
%ADD41RotRect,1.000000X1.100000X315.000000*%
%ADD42R,4.000000X1.800000*%
%ADD43RotRect,1.600000X1.803000X45.000000*%
%ADD44R,1.500000X1.300000*%
%ADD45RotRect,0.800000X0.900000X300.000000*%
%ADD46RotRect,0.800000X0.900000X240.000000*%
%ADD47R,1.219200X2.235200*%
%ADD48R,3.600000X2.200000*%
%ADD49RotRect,1.000000X1.100000X135.000000*%
%ADD50R,1.600000X1.000000*%
%ADD51R,6.200000X5.400000*%
%ADD52RotRect,1.300000X1.500000X45.000000*%
%ADD53RotRect,1.300000X1.500000X315.000000*%
%ADD54RotRect,1.270000X0.558800X45.000000*%
%ADD55RotRect,0.558800X1.270000X45.000000*%
%ADD56R,1.803000X1.600000*%
%ADD57RotRect,1.600000X1.803000X225.000000*%
%ADD58RotRect,1.800000X4.000000X45.000000*%
%ADD59RotRect,1.600000X1.803000X135.000000*%
%ADD60R,2.200000X0.600000*%
G04 APERTURE END LIST*
D10*
%TO.C,TLI493d*%
X172542000Y-112100000D03*
X172542000Y-111642000D03*
X172871000Y-111871000D03*
X173200000Y-112100000D03*
X173200000Y-111642000D03*
%TD*%
%TO.C,TLI493d*%
X172542000Y-111100000D03*
X172542000Y-110642000D03*
X172871000Y-110871000D03*
X173200000Y-111100000D03*
X173200000Y-110642000D03*
%TD*%
%TO.C,TLI493d*%
X172542000Y-110100000D03*
X172542000Y-109642000D03*
X172871000Y-109871000D03*
X173200000Y-110100000D03*
X173200000Y-109642000D03*
%TD*%
%TO.C,TLI493d*%
X174942000Y-112100000D03*
X174942000Y-111642000D03*
X175271000Y-111871000D03*
X175600000Y-112100000D03*
X175600000Y-111642000D03*
%TD*%
%TO.C,TLI493d*%
X173742000Y-112100000D03*
X173742000Y-111642000D03*
X174071000Y-111871000D03*
X174400000Y-112100000D03*
X174400000Y-111642000D03*
%TD*%
%TO.C,TLI493d*%
X174942000Y-111100000D03*
X174942000Y-110642000D03*
X175271000Y-110871000D03*
X175600000Y-111100000D03*
X175600000Y-110642000D03*
%TD*%
%TO.C,TLI493d*%
X174942000Y-110100000D03*
X174942000Y-109642000D03*
X175271000Y-109871000D03*
X175600000Y-110100000D03*
X175600000Y-109642000D03*
%TD*%
%TO.C,TLI493d*%
X173742000Y-110100000D03*
X173742000Y-109642000D03*
X174071000Y-109871000D03*
X174400000Y-110100000D03*
X174400000Y-109642000D03*
%TD*%
%TO.C,TLI493d*%
X173742000Y-111100000D03*
X173742000Y-110642000D03*
X174071000Y-110871000D03*
X174400000Y-111100000D03*
X174400000Y-110642000D03*
%TD*%
D11*
%TO.C,E$26*%
X171231412Y-116833912D03*
X170870788Y-116473288D03*
%TD*%
D12*
%TO.C,R0805-1*%
X122781100Y-101193600D03*
X120881100Y-101193600D03*
%TD*%
D13*
%TO.C,R0603-8*%
X115896059Y-107827141D03*
X117098141Y-106625059D03*
%TD*%
D14*
%TO.C,R1206-5*%
X123253100Y-127863600D03*
X120409100Y-127863600D03*
%TD*%
D15*
%TO.C,E$12*%
X163806100Y-115653600D03*
X163296100Y-115653600D03*
%TD*%
D16*
%TO.C,R0805-6*%
X114510879Y-121287326D03*
X113167377Y-119943824D03*
%TD*%
D17*
%TO.C,E$8*%
X169301100Y-114658600D03*
X169301100Y-114148600D03*
%TD*%
D18*
%TO.C,TQFP-100*%
X155801100Y-108653600D03*
X155301100Y-108653600D03*
X154801100Y-108653600D03*
X154301100Y-108653600D03*
X153801100Y-108653600D03*
X153301100Y-108653600D03*
X152801100Y-108653600D03*
X152301100Y-108653600D03*
X151801100Y-108653600D03*
X151301100Y-108653600D03*
X150801100Y-108653600D03*
X150301100Y-108653600D03*
X149801100Y-108653600D03*
X149301100Y-108653600D03*
X148801100Y-108653600D03*
X148301100Y-108653600D03*
X147801100Y-108653600D03*
X147301100Y-108653600D03*
X146801100Y-108653600D03*
X146301100Y-108653600D03*
X145801100Y-108653600D03*
X145301100Y-108653600D03*
X144801100Y-108653600D03*
X144301100Y-108653600D03*
X143801100Y-108653600D03*
D19*
X142051100Y-110403600D03*
X142051100Y-110903600D03*
X142051100Y-111403600D03*
X142051100Y-111903600D03*
X142051100Y-112403600D03*
X142051100Y-112903600D03*
X142051100Y-113403600D03*
X142051100Y-113903600D03*
X142051100Y-114403600D03*
X142051100Y-114903600D03*
X142051100Y-115403600D03*
X142051100Y-115903600D03*
X142051100Y-116403600D03*
X142051100Y-116903600D03*
X142051100Y-117403600D03*
X142051100Y-117903600D03*
X142051100Y-118403600D03*
X142051100Y-118903600D03*
X142051100Y-119403600D03*
X142051100Y-119903600D03*
X142051100Y-120403600D03*
X142051100Y-120903600D03*
X142051100Y-121403600D03*
X142051100Y-121903600D03*
X142051100Y-122403600D03*
D18*
X143801100Y-124153600D03*
X144301100Y-124153600D03*
X144801100Y-124153600D03*
X145301100Y-124153600D03*
X145801100Y-124153600D03*
X146301100Y-124153600D03*
X146801100Y-124153600D03*
X147301100Y-124153600D03*
X147801100Y-124153600D03*
X148301100Y-124153600D03*
X148801100Y-124153600D03*
X149301100Y-124153600D03*
X149801100Y-124153600D03*
X150301100Y-124153600D03*
X150801100Y-124153600D03*
X151301100Y-124153600D03*
X151801100Y-124153600D03*
X152301100Y-124153600D03*
X152801100Y-124153600D03*
X153301100Y-124153600D03*
X153801100Y-124153600D03*
X154301100Y-124153600D03*
X154801100Y-124153600D03*
X155301100Y-124153600D03*
X155801100Y-124153600D03*
D19*
X157551100Y-122403600D03*
X157551100Y-121903600D03*
X157551100Y-121403600D03*
X157551100Y-120903600D03*
X157551100Y-120403600D03*
X157551100Y-119903600D03*
X157551100Y-119403600D03*
X157551100Y-118903600D03*
X157551100Y-118403600D03*
X157551100Y-117903600D03*
X157551100Y-117403600D03*
X157551100Y-116903600D03*
X157551100Y-116403600D03*
X157551100Y-115903600D03*
X157551100Y-115403600D03*
X157551100Y-114903600D03*
X157551100Y-114403600D03*
X157551100Y-113903600D03*
X157551100Y-113403600D03*
X157551100Y-112903600D03*
X157551100Y-112403600D03*
X157551100Y-111903600D03*
X157551100Y-111403600D03*
X157551100Y-110903600D03*
X157551100Y-110403600D03*
%TD*%
D15*
%TO.C,E$15*%
X167556100Y-115653600D03*
X167046100Y-115653600D03*
%TD*%
D20*
%TO.C,R0603-4*%
X127829641Y-117420059D03*
X126627559Y-118622141D03*
%TD*%
D21*
%TO.C,SOT-23-2*%
X186037125Y-119931324D03*
X185087125Y-118285876D03*
X183830075Y-120108600D03*
%TD*%
D17*
%TO.C,E$33*%
X168301100Y-118158600D03*
X168301100Y-117648600D03*
%TD*%
D22*
%TO.C,QFN-32*%
X163931100Y-108003600D03*
D23*
X163931100Y-108503600D03*
X163931100Y-109003600D03*
X163931100Y-109503600D03*
X163931100Y-110003600D03*
X163931100Y-110503600D03*
X163931100Y-111003600D03*
D22*
X163931100Y-111503600D03*
D24*
X164531100Y-112103600D03*
D25*
X165031100Y-112103600D03*
X165531100Y-112103600D03*
X166031100Y-112103600D03*
X166531100Y-112103600D03*
X167031100Y-112103600D03*
X167531100Y-112103600D03*
D24*
X168031100Y-112103600D03*
D22*
X168631100Y-111503600D03*
D23*
X168631100Y-111003600D03*
X168631100Y-110503600D03*
X168631100Y-110003600D03*
X168631100Y-109503600D03*
X168631100Y-109003600D03*
X168631100Y-108503600D03*
D22*
X168631100Y-108003600D03*
D24*
X168031100Y-107403600D03*
D25*
X167531100Y-107403600D03*
X167031100Y-107403600D03*
X166531100Y-107403600D03*
X166031100Y-107403600D03*
X165531100Y-107403600D03*
X165031100Y-107403600D03*
D24*
X164531100Y-107403600D03*
D26*
X166281100Y-109753600D03*
D27*
X163866100Y-107338600D03*
%TD*%
D28*
%TO.C,C2*%
X162449100Y-100812600D03*
X162449100Y-93954600D03*
%TD*%
D29*
%TO.C,E$25*%
X169620788Y-116833912D03*
X169981412Y-116473288D03*
%TD*%
D30*
%TO.C,R1206-6*%
X110030594Y-122413094D03*
X112041606Y-124424106D03*
%TD*%
D31*
%TO.C,R0402-7*%
X118925100Y-112623600D03*
X117625100Y-112623600D03*
%TD*%
D32*
%TO.C,R0402-4*%
X124830719Y-115623219D03*
X123911481Y-114703981D03*
%TD*%
D17*
%TO.C,E$30*%
X165301100Y-118158600D03*
X165301100Y-117648600D03*
%TD*%
D15*
%TO.C,E$13*%
X165056100Y-115653600D03*
X164546100Y-115653600D03*
%TD*%
D17*
%TO.C,E$29*%
X164301100Y-118158600D03*
X164301100Y-117648600D03*
%TD*%
%TO.C,E$5*%
X166301100Y-114658600D03*
X166301100Y-114148600D03*
%TD*%
D33*
%TO.C,R0402-1*%
X121831100Y-108417600D03*
X121831100Y-109717600D03*
%TD*%
D34*
%TO.C,R0805-4*%
X130494826Y-119943821D03*
X129151324Y-121287323D03*
%TD*%
D31*
%TO.C,R0402-3*%
X124737100Y-112623600D03*
X126037100Y-112623600D03*
%TD*%
D35*
%TO.C,R0603-3*%
X129451100Y-111773600D03*
X129451100Y-113473600D03*
%TD*%
D36*
%TO.C,SOT-23-3*%
X185087125Y-126011324D03*
X186037125Y-124365876D03*
X183830075Y-124188600D03*
%TD*%
D12*
%TO.C,R0805-5*%
X120881100Y-124053600D03*
X122781100Y-124053600D03*
%TD*%
D17*
%TO.C,E$4*%
X165301100Y-114658600D03*
X165301100Y-114148600D03*
%TD*%
D29*
%TO.C,E$23*%
X167120788Y-116833912D03*
X167481412Y-116473288D03*
%TD*%
D37*
%TO.C,SOT-23-4*%
X179301100Y-128228600D03*
X181201100Y-128228600D03*
X180251100Y-126228600D03*
%TD*%
D35*
%TO.C,R0603-7*%
X114211100Y-111773600D03*
X114211100Y-113473600D03*
%TD*%
D14*
%TO.C,R1206-1*%
X120409100Y-97383600D03*
X123253100Y-97383600D03*
%TD*%
D38*
%TO.C,R0603-5*%
X122681100Y-120243600D03*
X120981100Y-120243600D03*
%TD*%
D39*
%TO.C,R0402-6*%
X118831481Y-115623219D03*
X119750719Y-114703981D03*
%TD*%
D40*
%TO.C,TSSOP-20*%
X177376100Y-114321400D03*
X178026100Y-114321400D03*
X178676100Y-114321400D03*
X179326100Y-114321400D03*
X179976100Y-114321400D03*
X180626100Y-114321400D03*
X181276100Y-114321400D03*
X181926100Y-114321400D03*
X182576100Y-114321400D03*
X183226100Y-114321400D03*
X183226100Y-108485800D03*
X182576100Y-108485800D03*
X181926100Y-108485800D03*
X181276100Y-108485800D03*
X180626100Y-108485800D03*
X179976100Y-108485800D03*
X179326100Y-108485800D03*
X178676100Y-108485800D03*
X178026100Y-108485800D03*
X177376100Y-108485800D03*
%TD*%
D41*
%TO.C,R0603-6*%
X115832559Y-117420059D03*
X117034641Y-118622141D03*
%TD*%
D17*
%TO.C,E$28*%
X163301100Y-118158600D03*
X163301100Y-117648600D03*
%TD*%
%TO.C,E$34*%
X169301100Y-118158600D03*
X169301100Y-117648600D03*
%TD*%
D15*
%TO.C,E11*%
X162556100Y-115653600D03*
X162046100Y-115653600D03*
%TD*%
D42*
%TO.C,L2*%
X171501100Y-94903600D03*
X171501100Y-99903600D03*
%TD*%
D17*
%TO.C,E$7*%
X168301100Y-114658600D03*
X168301100Y-114148600D03*
%TD*%
D39*
%TO.C,R0402-2*%
X123911481Y-110543219D03*
X124830719Y-109623981D03*
%TD*%
D43*
%TO.C,R1206-8*%
X110030594Y-102834106D03*
X112041606Y-100823094D03*
%TD*%
D44*
%TO.C,R0805-3*%
X133261100Y-111673600D03*
X133261100Y-113573600D03*
%TD*%
D17*
%TO.C,E$3*%
X164301100Y-114658600D03*
X164301100Y-114148600D03*
%TD*%
D45*
%TO.C,SOT-23-5*%
X174465075Y-124365876D03*
X175415075Y-126011324D03*
X176672125Y-124188600D03*
%TD*%
D37*
%TO.C,SOT-23-1*%
X181201100Y-116068600D03*
X179301100Y-116068600D03*
X180251100Y-118068600D03*
%TD*%
D17*
%TO.C,E$31*%
X166301100Y-118158600D03*
X166301100Y-117648600D03*
%TD*%
D46*
%TO.C,SOT-23-6*%
X175415075Y-118285876D03*
X174465075Y-119931324D03*
X176672125Y-120108600D03*
%TD*%
D38*
%TO.C,R0603-1*%
X122681100Y-105003600D03*
X120981100Y-105003600D03*
%TD*%
D28*
%TO.C,C1*%
X152163600Y-93954600D03*
X152163600Y-100812600D03*
%TD*%
D47*
%TO.C,SOT-223-1*%
X111739700Y-90502400D03*
X114051100Y-90502400D03*
X116362500Y-90502400D03*
D48*
X114051100Y-84304600D03*
%TD*%
D44*
%TO.C,R0805-7*%
X110401100Y-113573600D03*
X110401100Y-111673600D03*
%TD*%
D11*
%TO.C,E$20*%
X163731412Y-116833912D03*
X163370788Y-116473288D03*
%TD*%
D29*
%TO.C,E$21*%
X164620788Y-116833912D03*
X164981412Y-116473288D03*
%TD*%
D49*
%TO.C,R0603-2*%
X127829641Y-107827141D03*
X126627559Y-106625059D03*
%TD*%
D17*
%TO.C,E$2*%
X163301100Y-114658600D03*
X163301100Y-114148600D03*
%TD*%
D11*
%TO.C,E$22*%
X166231412Y-116833912D03*
X165870788Y-116473288D03*
%TD*%
D29*
%TO.C,E$19*%
X162120788Y-116833912D03*
X162481412Y-116473288D03*
%TD*%
D32*
%TO.C,R0402-8*%
X119750719Y-110543219D03*
X118831481Y-109623981D03*
%TD*%
D50*
%TO.C,SOT-252-1*%
X131351100Y-89683600D03*
X131351100Y-85123600D03*
D51*
X124051100Y-87403600D03*
%TD*%
D15*
%TO.C,E$14*%
X166306100Y-115653600D03*
X165796100Y-115653600D03*
%TD*%
D17*
%TO.C,E$6*%
X167301100Y-114658600D03*
X167301100Y-114148600D03*
%TD*%
D52*
%TO.C,R0805-8*%
X113103874Y-105176380D03*
X114447376Y-103832878D03*
%TD*%
D53*
%TO.C,R0805-2*%
X129214820Y-103896374D03*
X130558322Y-105239876D03*
%TD*%
D15*
%TO.C,E$16*%
X168806100Y-115653600D03*
X168296100Y-115653600D03*
%TD*%
D54*
%TO.C,TQFP-32-1*%
X134535874Y-95959028D03*
X135101560Y-96524713D03*
X135667245Y-97090398D03*
X136232931Y-97656084D03*
X136798616Y-98221769D03*
X137364302Y-98787455D03*
X137929987Y-99353140D03*
X138495672Y-99918826D03*
D55*
X140606528Y-99918826D03*
X141172213Y-99353140D03*
X141737898Y-98787455D03*
X142303584Y-98221769D03*
X142869269Y-97656084D03*
X143434955Y-97090398D03*
X144000640Y-96524713D03*
X144566326Y-95959028D03*
D54*
X144566326Y-93848172D03*
X144000640Y-93282487D03*
X143434955Y-92716802D03*
X142869269Y-92151116D03*
X142303584Y-91585431D03*
X141737898Y-91019745D03*
X141172213Y-90454060D03*
X140606528Y-89888374D03*
D55*
X138495672Y-89888374D03*
X137929987Y-90454060D03*
X137364302Y-91019745D03*
X136798616Y-91585431D03*
X136232931Y-92151116D03*
X135667245Y-92716802D03*
X135101560Y-93282487D03*
X134535874Y-93848172D03*
%TD*%
D17*
%TO.C,E1*%
X162301100Y-114658600D03*
X162301100Y-114148600D03*
%TD*%
D11*
%TO.C,E$24*%
X168731412Y-116833912D03*
X168370788Y-116473288D03*
%TD*%
D17*
%TO.C,E27*%
X162301100Y-118158600D03*
X162301100Y-117648600D03*
%TD*%
D56*
%TO.C,R1206-3*%
X137071100Y-114045600D03*
X137071100Y-111201600D03*
%TD*%
%TO.C,R1206-7*%
X106591100Y-111201600D03*
X106591100Y-114045600D03*
%TD*%
D57*
%TO.C,R1206-4*%
X133631606Y-122413094D03*
X131620594Y-124424106D03*
%TD*%
D58*
%TO.C,L1*%
X164533333Y-125921367D03*
X168068867Y-122385833D03*
%TD*%
D17*
%TO.C,E36*%
X171301100Y-118158600D03*
X171301100Y-117648600D03*
%TD*%
%TO.C,E10*%
X171301100Y-114658600D03*
X171301100Y-114148600D03*
%TD*%
D15*
%TO.C,E18*%
X171306100Y-115653600D03*
X170796100Y-115653600D03*
%TD*%
%TO.C,E$17*%
X170056100Y-115653600D03*
X169546100Y-115653600D03*
%TD*%
D33*
%TO.C,R0402-5*%
X121831100Y-116829600D03*
X121831100Y-115529600D03*
%TD*%
D59*
%TO.C,R1206-2*%
X133631606Y-102834106D03*
X131620594Y-100823094D03*
%TD*%
D17*
%TO.C,E$9*%
X170301100Y-114658600D03*
X170301100Y-114148600D03*
%TD*%
D60*
%TO.C,SOP-16-1*%
X185701100Y-101698600D03*
X185701100Y-100428600D03*
X185701100Y-99158600D03*
X185701100Y-97888600D03*
X185701100Y-96618600D03*
X185701100Y-95348600D03*
X185701100Y-94078600D03*
X185701100Y-92808600D03*
X178501100Y-92808600D03*
X178501100Y-94078600D03*
X178501100Y-95348600D03*
X178501100Y-96618600D03*
X178501100Y-97888600D03*
X178501100Y-99158600D03*
X178501100Y-100428600D03*
X178501100Y-101698600D03*
%TD*%
D17*
%TO.C,E$35*%
X170301100Y-118158600D03*
X170301100Y-117648600D03*
%TD*%
%TO.C,E$32*%
X167301100Y-118158600D03*
X167301100Y-117648600D03*
%TD*%
M02*
