%TF.GenerationSoftware,KiCad,Pcbnew,6.0.11-2627ca5db0~126~ubuntu20.04.1*%
%TF.CreationDate,2023-07-21T22:08:41+02:00*%
%TF.ProjectId,Demo Board v2,44656d6f-2042-46f6-9172-642076322e6b,rev?*%
%TF.SameCoordinates,Original*%
%TF.FileFunction,Legend,Bot*%
%TF.FilePolarity,Positive*%
%FSLAX46Y46*%
G04 Gerber Fmt 4.6, Leading zero omitted, Abs format (unit mm)*
G04 Created by KiCad (PCBNEW 6.0.11-2627ca5db0~126~ubuntu20.04.1) date 2023-07-21 22:08:41*
%MOMM*%
%LPD*%
G01*
G04 APERTURE LIST*
%ADD10C,0.100000*%
%ADD11C,0.203200*%
%ADD12C,0.254000*%
%ADD13C,0.081280*%
%ADD14C,0.101600*%
%ADD15C,0.113792*%
%ADD16C,0.065024*%
%ADD17C,0.152400*%
G04 APERTURE END LIST*
D10*
X155301100Y-123903600D02*
X155801100Y-123903600D01*
X144801100Y-123903600D02*
X145301100Y-123903600D01*
X158801100Y-123903600D02*
X159301100Y-123903600D01*
X165801100Y-123903600D02*
X166301100Y-123903600D01*
X153151100Y-87203600D02*
X163151100Y-97203600D01*
X148551100Y-123653600D02*
X148551100Y-124153600D01*
X163551100Y-99653600D02*
X163551100Y-100153600D01*
X156051100Y-99653600D02*
X156051100Y-100153600D01*
X162551100Y-114653600D02*
X162551100Y-115153600D01*
X161051100Y-99653600D02*
X161051100Y-100153600D01*
D11*
X125423200Y-112623600D02*
G75*
G03*
X125423200Y-112623600I-3592100J0D01*
G01*
D10*
X160801100Y-106903600D02*
X161301100Y-106903600D01*
X158301100Y-99903600D02*
X158801100Y-99903600D01*
X163551100Y-106653600D02*
X163551100Y-107153600D01*
X155551100Y-114653600D02*
X155551100Y-115153600D01*
X150801100Y-106903600D02*
X151301100Y-106903600D01*
X153301100Y-106903600D02*
X153801100Y-106903600D01*
X159051100Y-123653600D02*
X159051100Y-124153600D01*
X148301100Y-123903600D02*
X148801100Y-123903600D01*
X162551100Y-123653600D02*
X162551100Y-124153600D01*
X152051100Y-114653600D02*
X152051100Y-115153600D01*
X158551100Y-106653600D02*
X158551100Y-107153600D01*
X166051100Y-106653600D02*
X166051100Y-107153600D01*
X145051100Y-123653600D02*
X145051100Y-124153600D01*
X155801100Y-99903600D02*
X156301100Y-99903600D01*
X162301100Y-114903600D02*
X162801100Y-114903600D01*
D12*
X158151100Y-97203600D02*
X163151100Y-97203600D01*
D10*
X153151100Y-97203600D02*
X163151100Y-87203600D01*
X153551100Y-99653600D02*
X153551100Y-100153600D01*
X148301100Y-99903600D02*
X148801100Y-99903600D01*
D12*
X163151100Y-87203600D02*
X158151100Y-87203600D01*
D10*
X153301100Y-99903600D02*
X153801100Y-99903600D01*
X166051100Y-123653600D02*
X166051100Y-124153600D01*
X178051100Y-100403600D02*
X180051100Y-100403600D01*
D12*
X163151100Y-97203600D02*
X163151100Y-92203600D01*
D10*
X153551100Y-106653600D02*
X153551100Y-107153600D01*
D11*
X129451100Y-112623600D02*
G75*
G03*
X129451100Y-112623600I-7620000J0D01*
G01*
X133261100Y-112623600D02*
G75*
G03*
X133261100Y-112623600I-11430000J0D01*
G01*
D10*
X150801100Y-99903600D02*
X151301100Y-99903600D01*
X155301100Y-114903600D02*
X155801100Y-114903600D01*
X162301100Y-123903600D02*
X162801100Y-123903600D01*
X179051100Y-101403600D02*
X179051100Y-99403600D01*
X148301100Y-106903600D02*
X148801100Y-106903600D01*
D12*
X163151100Y-92203600D02*
X163151100Y-87203600D01*
D10*
X166051100Y-114653600D02*
X166051100Y-115153600D01*
X163301100Y-99903600D02*
X163801100Y-99903600D01*
X151051100Y-106653600D02*
X151051100Y-107153600D01*
D12*
X153151100Y-97203600D02*
X158151100Y-97203600D01*
D10*
X148551100Y-99653600D02*
X148551100Y-100153600D01*
D12*
X153151100Y-92203600D02*
X153151100Y-97203600D01*
D10*
X161051100Y-106653600D02*
X161051100Y-107153600D01*
X165801100Y-106903600D02*
X166301100Y-106903600D01*
X156051100Y-106653600D02*
X156051100Y-107153600D01*
X158301100Y-106903600D02*
X158801100Y-106903600D01*
X151801100Y-114903600D02*
X152301100Y-114903600D01*
X158151100Y-97203600D02*
X158151100Y-87203600D01*
X148301100Y-114903600D02*
X148801100Y-114903600D01*
X151801100Y-123903600D02*
X152301100Y-123903600D01*
X158551100Y-99653600D02*
X158551100Y-100153600D01*
X159051100Y-114653600D02*
X159051100Y-115153600D01*
X145051100Y-114653600D02*
X145051100Y-115153600D01*
X148551100Y-114653600D02*
X148551100Y-115153600D01*
X151051100Y-99653600D02*
X151051100Y-100153600D01*
D11*
X137071100Y-112623600D02*
G75*
G03*
X137071100Y-112623600I-15240000J0D01*
G01*
D12*
X153151100Y-87203600D02*
X153151100Y-92203600D01*
D10*
X160801100Y-99903600D02*
X161301100Y-99903600D01*
X148551100Y-107153600D02*
X148551100Y-106653600D01*
X158801100Y-114903600D02*
X159301100Y-114903600D01*
X113301100Y-87403600D02*
X114801100Y-87403600D01*
X166051100Y-99653600D02*
X166051100Y-100153600D01*
X152051100Y-123653600D02*
X152051100Y-124153600D01*
X144801100Y-114903600D02*
X145301100Y-114903600D01*
D12*
X158151100Y-87203600D02*
X153151100Y-87203600D01*
D10*
X163301100Y-106903600D02*
X163801100Y-106903600D01*
X153151100Y-92203600D02*
X163151100Y-92203600D01*
X155551100Y-123653600D02*
X155551100Y-124153600D01*
X114051100Y-86653600D02*
X114051100Y-88153600D01*
X155801100Y-106903600D02*
X156301100Y-106903600D01*
X165801100Y-114903600D02*
X166301100Y-114903600D01*
X165801100Y-99903600D02*
X166301100Y-99903600D01*
D13*
X106258142Y-81482474D02*
X106569715Y-81482474D01*
X106569715Y-81972089D02*
X106569715Y-81037369D01*
X106124610Y-81037369D01*
X105367932Y-81037369D02*
X105545974Y-81037369D01*
X105634995Y-81081880D01*
X105679506Y-81126390D01*
X105768527Y-81259921D01*
X105813037Y-81437963D01*
X105813037Y-81794047D01*
X105768527Y-81883068D01*
X105724016Y-81927579D01*
X105634995Y-81972089D01*
X105456953Y-81972089D01*
X105367932Y-81927579D01*
X105323422Y-81883068D01*
X105278911Y-81794047D01*
X105278911Y-81571495D01*
X105323422Y-81482474D01*
X105367932Y-81437963D01*
X105456953Y-81393453D01*
X105634995Y-81393453D01*
X105724016Y-81437963D01*
X105768527Y-81482474D01*
X105813037Y-81571495D01*
D14*
X172067444Y-99847961D02*
X171956168Y-99847961D01*
X171844892Y-99903600D01*
X171789254Y-99959238D01*
X171733616Y-100070514D01*
X171677978Y-100293066D01*
X171677978Y-100571257D01*
X171733616Y-100793809D01*
X171789254Y-100905085D01*
X171844892Y-100960723D01*
X171956168Y-101016361D01*
X172067444Y-101016361D01*
X172178720Y-100960723D01*
X172234359Y-100905085D01*
X172289997Y-100793809D01*
X172345635Y-100571257D01*
X172345635Y-100293066D01*
X172289997Y-100070514D01*
X172234359Y-99959238D01*
X172178720Y-99903600D01*
X172067444Y-99847961D01*
X170676492Y-100237428D02*
X170676492Y-101016361D01*
X170954682Y-99792323D02*
X171232873Y-100626895D01*
X170509578Y-100626895D01*
X169841920Y-99847961D02*
X169730644Y-99847961D01*
X169619368Y-99903600D01*
X169563730Y-99959238D01*
X169508092Y-100070514D01*
X169452454Y-100293066D01*
X169452454Y-100571257D01*
X169508092Y-100793809D01*
X169563730Y-100905085D01*
X169619368Y-100960723D01*
X169730644Y-101016361D01*
X169841920Y-101016361D01*
X169953197Y-100960723D01*
X170008835Y-100905085D01*
X170064473Y-100793809D01*
X170120111Y-100571257D01*
X170120111Y-100293066D01*
X170064473Y-100070514D01*
X170008835Y-99959238D01*
X169953197Y-99903600D01*
X169841920Y-99847961D01*
X169007349Y-99959238D02*
X168951711Y-99903600D01*
X168840435Y-99847961D01*
X168562244Y-99847961D01*
X168450968Y-99903600D01*
X168395330Y-99959238D01*
X168339692Y-100070514D01*
X168339692Y-100181790D01*
X168395330Y-100348704D01*
X169062987Y-101016361D01*
X168339692Y-101016361D01*
D13*
X115156963Y-119845626D02*
X115692015Y-119751205D01*
X115534647Y-120223310D02*
X116195594Y-119562363D01*
X115943805Y-119310574D01*
X115849384Y-119279100D01*
X115786436Y-119279100D01*
X115692015Y-119310574D01*
X115597594Y-119404995D01*
X115566121Y-119499416D01*
X115566121Y-119562363D01*
X115597594Y-119656784D01*
X115849384Y-119908573D01*
X114527490Y-119216153D02*
X114905174Y-119593836D01*
X114716332Y-119404995D02*
X115377279Y-118744048D01*
X115345805Y-118901416D01*
X115345805Y-119027311D01*
X115377279Y-119121732D01*
X114590437Y-117957206D02*
X114905174Y-118271943D01*
X114621911Y-118618153D01*
X114621911Y-118555206D01*
X114590437Y-118460785D01*
X114433069Y-118303416D01*
X114338648Y-118271943D01*
X114275701Y-118271943D01*
X114181280Y-118303416D01*
X114023911Y-118460785D01*
X113992438Y-118555206D01*
X113992438Y-118618153D01*
X114023911Y-118712574D01*
X114181280Y-118869942D01*
X114275701Y-118901416D01*
X114338648Y-118901416D01*
D14*
X176754850Y-114726961D02*
X177422507Y-114726961D01*
X177088679Y-114726961D02*
X177088679Y-113558561D01*
X177199955Y-113725476D01*
X177311231Y-113836752D01*
X177422507Y-113892390D01*
X176309745Y-113669838D02*
X176254107Y-113614200D01*
X176142831Y-113558561D01*
X175864640Y-113558561D01*
X175753364Y-113614200D01*
X175697726Y-113669838D01*
X175642088Y-113781114D01*
X175642088Y-113892390D01*
X175697726Y-114059304D01*
X176365383Y-114726961D01*
X175642088Y-114726961D01*
D13*
X147071163Y-95382716D02*
X147606215Y-95288295D01*
X147448847Y-95760400D02*
X148109794Y-95099453D01*
X147858005Y-94847664D01*
X147763584Y-94816190D01*
X147700636Y-94816190D01*
X147606215Y-94847664D01*
X147511794Y-94942085D01*
X147480321Y-95036506D01*
X147480321Y-95099453D01*
X147511794Y-95193874D01*
X147763584Y-95445663D01*
X147417373Y-94532927D02*
X147417373Y-94469980D01*
X147385900Y-94375559D01*
X147228531Y-94218190D01*
X147134110Y-94186717D01*
X147071163Y-94186717D01*
X146976742Y-94218190D01*
X146913795Y-94281138D01*
X146850847Y-94407032D01*
X146850847Y-95162400D01*
X146441690Y-94753243D01*
X146882321Y-93871980D02*
X146473164Y-93462823D01*
X146441690Y-93934927D01*
X146347269Y-93840506D01*
X146252848Y-93809033D01*
X146189901Y-93809033D01*
X146095480Y-93840506D01*
X145938111Y-93997875D01*
X145906638Y-94092296D01*
X145906638Y-94155243D01*
X145938111Y-94249664D01*
X146126953Y-94438506D01*
X146221374Y-94469980D01*
X146284322Y-94469980D01*
X158160890Y-110914892D02*
X158605995Y-111226466D01*
X158160890Y-111449018D02*
X159095610Y-111449018D01*
X159095610Y-111092934D01*
X159051100Y-111003913D01*
X159006589Y-110959403D01*
X158917568Y-110914892D01*
X158784037Y-110914892D01*
X158695016Y-110959403D01*
X158650505Y-111003913D01*
X158605995Y-111092934D01*
X158605995Y-111449018D01*
X159006589Y-110558809D02*
X159051100Y-110514298D01*
X159095610Y-110425277D01*
X159095610Y-110202725D01*
X159051100Y-110113704D01*
X159006589Y-110069193D01*
X158917568Y-110024683D01*
X158828547Y-110024683D01*
X158695016Y-110069193D01*
X158160890Y-110603319D01*
X158160890Y-110024683D01*
X158160890Y-109579578D02*
X158160890Y-109401536D01*
X158205400Y-109312515D01*
X158249911Y-109268005D01*
X158383442Y-109178984D01*
X158561484Y-109134473D01*
X158917568Y-109134473D01*
X159006589Y-109178984D01*
X159051100Y-109223494D01*
X159095610Y-109312515D01*
X159095610Y-109490557D01*
X159051100Y-109579578D01*
X159006589Y-109624089D01*
X158917568Y-109668599D01*
X158695016Y-109668599D01*
X158605995Y-109624089D01*
X158561484Y-109579578D01*
X158516974Y-109490557D01*
X158516974Y-109312515D01*
X158561484Y-109223494D01*
X158605995Y-109178984D01*
X158695016Y-109134473D01*
D14*
X104795561Y-120302382D02*
X104795561Y-120524935D01*
X104851200Y-120636211D01*
X104962476Y-120747487D01*
X105185028Y-120803125D01*
X105574495Y-120803125D01*
X105797047Y-120747487D01*
X105908323Y-120636211D01*
X105963961Y-120524935D01*
X105963961Y-120302382D01*
X105908323Y-120191106D01*
X105797047Y-120079830D01*
X105574495Y-120024192D01*
X105185028Y-120024192D01*
X104962476Y-120079830D01*
X104851200Y-120191106D01*
X104795561Y-120302382D01*
X105963961Y-121303868D02*
X105185028Y-121303868D01*
X105407580Y-121303868D02*
X105296304Y-121359506D01*
X105240666Y-121415144D01*
X105185028Y-121526420D01*
X105185028Y-121637697D01*
X105963961Y-122027163D02*
X105185028Y-122027163D01*
X104795561Y-122027163D02*
X104851200Y-121971525D01*
X104906838Y-122027163D01*
X104851200Y-122082801D01*
X104795561Y-122027163D01*
X104906838Y-122027163D01*
X105185028Y-123084287D02*
X106130876Y-123084287D01*
X106242152Y-123028649D01*
X106297790Y-122973011D01*
X106353428Y-122861735D01*
X106353428Y-122694820D01*
X106297790Y-122583544D01*
X105908323Y-123084287D02*
X105963961Y-122973011D01*
X105963961Y-122750459D01*
X105908323Y-122639182D01*
X105852685Y-122583544D01*
X105741409Y-122527906D01*
X105407580Y-122527906D01*
X105296304Y-122583544D01*
X105240666Y-122639182D01*
X105185028Y-122750459D01*
X105185028Y-122973011D01*
X105240666Y-123084287D01*
X105963961Y-123640668D02*
X105185028Y-123640668D01*
X104795561Y-123640668D02*
X104851200Y-123585030D01*
X104906838Y-123640668D01*
X104851200Y-123696306D01*
X104795561Y-123640668D01*
X104906838Y-123640668D01*
X105185028Y-124197049D02*
X105963961Y-124197049D01*
X105296304Y-124197049D02*
X105240666Y-124252687D01*
X105185028Y-124363963D01*
X105185028Y-124530878D01*
X105240666Y-124642154D01*
X105351942Y-124697792D01*
X105963961Y-124697792D01*
X184124098Y-93516296D02*
X183456441Y-93516296D01*
X183790270Y-94684696D02*
X183790270Y-93516296D01*
X182288041Y-94795973D02*
X182399317Y-94740335D01*
X182510594Y-94629058D01*
X182677508Y-94462144D01*
X182788784Y-94406506D01*
X182900060Y-94406506D01*
X182844422Y-94684696D02*
X182955698Y-94629058D01*
X183066975Y-94517782D01*
X183122613Y-94295230D01*
X183122613Y-93905763D01*
X183066975Y-93683211D01*
X182955698Y-93571935D01*
X182844422Y-93516296D01*
X182621870Y-93516296D01*
X182510594Y-93571935D01*
X182399317Y-93683211D01*
X182343679Y-93905763D01*
X182343679Y-94295230D01*
X182399317Y-94517782D01*
X182510594Y-94629058D01*
X182621870Y-94684696D01*
X182844422Y-94684696D01*
X181453470Y-94072677D02*
X181842936Y-94072677D01*
X181842936Y-94684696D02*
X181842936Y-93516296D01*
X181286555Y-93516296D01*
X180841451Y-94684696D02*
X180841451Y-93516296D01*
X180396346Y-93516296D01*
X180285070Y-93571935D01*
X180229432Y-93627573D01*
X180173794Y-93738849D01*
X180173794Y-93905763D01*
X180229432Y-94017039D01*
X180285070Y-94072677D01*
X180396346Y-94128315D01*
X180841451Y-94128315D01*
X179673051Y-94239592D02*
X178782841Y-94239592D01*
X178337736Y-93516296D02*
X177614441Y-93516296D01*
X178003908Y-93961401D01*
X177836994Y-93961401D01*
X177725717Y-94017039D01*
X177670079Y-94072677D01*
X177614441Y-94183954D01*
X177614441Y-94462144D01*
X177670079Y-94573420D01*
X177725717Y-94629058D01*
X177836994Y-94684696D01*
X178170822Y-94684696D01*
X178282098Y-94629058D01*
X178337736Y-94573420D01*
X177169336Y-93627573D02*
X177113698Y-93571935D01*
X177002422Y-93516296D01*
X176724232Y-93516296D01*
X176612955Y-93571935D01*
X176557317Y-93627573D01*
X176501679Y-93738849D01*
X176501679Y-93850125D01*
X176557317Y-94017039D01*
X177224975Y-94684696D01*
X176501679Y-94684696D01*
X176000936Y-94239592D02*
X175110727Y-94239592D01*
X174609984Y-93627573D02*
X174554346Y-93571935D01*
X174443070Y-93516296D01*
X174164879Y-93516296D01*
X174053603Y-93571935D01*
X173997965Y-93627573D01*
X173942327Y-93738849D01*
X173942327Y-93850125D01*
X173997965Y-94017039D01*
X174665622Y-94684696D01*
X173942327Y-94684696D01*
D13*
X109759463Y-125497126D02*
X110294515Y-125402705D01*
X110137147Y-125874810D02*
X110798094Y-125213863D01*
X110546305Y-124962074D01*
X110451884Y-124930600D01*
X110388936Y-124930600D01*
X110294515Y-124962074D01*
X110200094Y-125056495D01*
X110168621Y-125150916D01*
X110168621Y-125213863D01*
X110200094Y-125308284D01*
X110451884Y-125560073D01*
X109129990Y-124867653D02*
X109507674Y-125245336D01*
X109318832Y-125056495D02*
X109979779Y-124395548D01*
X109948305Y-124552916D01*
X109948305Y-124678811D01*
X109979779Y-124773232D01*
X109192937Y-123608706D02*
X109507674Y-123923443D01*
X109224411Y-124269653D01*
X109224411Y-124206706D01*
X109192937Y-124112285D01*
X109035569Y-123954916D01*
X108941148Y-123923443D01*
X108878201Y-123923443D01*
X108783780Y-123954916D01*
X108626411Y-124112285D01*
X108594938Y-124206706D01*
X108594938Y-124269653D01*
X108626411Y-124364074D01*
X108783780Y-124521442D01*
X108878201Y-124552916D01*
X108941148Y-124552916D01*
X140552678Y-101617938D02*
X141087730Y-101523517D01*
X140930362Y-101995622D02*
X141591309Y-101334675D01*
X141339520Y-101082886D01*
X141245099Y-101051412D01*
X141182151Y-101051412D01*
X141087730Y-101082886D01*
X140993309Y-101177307D01*
X140961836Y-101271728D01*
X140961836Y-101334675D01*
X140993309Y-101429096D01*
X141245099Y-101680885D01*
X139923205Y-100988465D02*
X140300889Y-101366148D01*
X140112047Y-101177307D02*
X140772994Y-100516360D01*
X140741520Y-100673728D01*
X140741520Y-100799623D01*
X140772994Y-100894044D01*
X139923205Y-100233097D02*
X140017626Y-100264570D01*
X140080573Y-100264570D01*
X140174994Y-100233097D01*
X140206468Y-100201623D01*
X140237941Y-100107202D01*
X140237941Y-100044255D01*
X140206468Y-99949834D01*
X140080573Y-99823939D01*
X139986152Y-99792466D01*
X139923205Y-99792466D01*
X139828784Y-99823939D01*
X139797310Y-99855413D01*
X139765837Y-99949834D01*
X139765837Y-100012781D01*
X139797310Y-100107202D01*
X139923205Y-100233097D01*
X139954679Y-100327518D01*
X139954679Y-100390465D01*
X139923205Y-100484886D01*
X139797310Y-100610781D01*
X139702889Y-100642254D01*
X139639942Y-100642254D01*
X139545521Y-100610781D01*
X139419626Y-100484886D01*
X139388153Y-100390465D01*
X139388153Y-100327518D01*
X139419626Y-100233097D01*
X139545521Y-100107202D01*
X139639942Y-100075728D01*
X139702889Y-100075728D01*
X139797310Y-100107202D01*
X115721312Y-105981333D02*
X115626891Y-105446281D01*
X116098996Y-105603649D02*
X115438049Y-104942702D01*
X115186260Y-105194491D01*
X115154786Y-105288912D01*
X115154786Y-105351860D01*
X115186260Y-105446281D01*
X115280681Y-105540702D01*
X115375102Y-105572175D01*
X115438049Y-105572175D01*
X115532470Y-105540702D01*
X115784259Y-105288912D01*
X115091839Y-106610806D02*
X115469522Y-106233122D01*
X115280681Y-106421964D02*
X114619734Y-105761017D01*
X114777102Y-105792491D01*
X114902997Y-105792491D01*
X114997418Y-105761017D01*
X114210576Y-106170175D02*
X113801419Y-106579332D01*
X114273523Y-106610806D01*
X114179102Y-106705227D01*
X114147629Y-106799648D01*
X114147629Y-106862595D01*
X114179102Y-106957016D01*
X114336471Y-107114385D01*
X114430892Y-107145858D01*
X114493839Y-107145858D01*
X114588260Y-107114385D01*
X114777102Y-106925543D01*
X114808576Y-106831122D01*
X114808576Y-106768174D01*
X155660890Y-110914892D02*
X156105995Y-111226466D01*
X155660890Y-111449018D02*
X156595610Y-111449018D01*
X156595610Y-111092934D01*
X156551100Y-111003913D01*
X156506589Y-110959403D01*
X156417568Y-110914892D01*
X156284037Y-110914892D01*
X156195016Y-110959403D01*
X156150505Y-111003913D01*
X156105995Y-111092934D01*
X156105995Y-111449018D01*
X156506589Y-110558809D02*
X156551100Y-110514298D01*
X156595610Y-110425277D01*
X156595610Y-110202725D01*
X156551100Y-110113704D01*
X156506589Y-110069193D01*
X156417568Y-110024683D01*
X156328547Y-110024683D01*
X156195016Y-110069193D01*
X155660890Y-110603319D01*
X155660890Y-110024683D01*
X156195016Y-109490557D02*
X156239526Y-109579578D01*
X156284037Y-109624089D01*
X156373058Y-109668599D01*
X156417568Y-109668599D01*
X156506589Y-109624089D01*
X156551100Y-109579578D01*
X156595610Y-109490557D01*
X156595610Y-109312515D01*
X156551100Y-109223494D01*
X156506589Y-109178984D01*
X156417568Y-109134473D01*
X156373058Y-109134473D01*
X156284037Y-109178984D01*
X156239526Y-109223494D01*
X156195016Y-109312515D01*
X156195016Y-109490557D01*
X156150505Y-109579578D01*
X156105995Y-109624089D01*
X156016974Y-109668599D01*
X155838932Y-109668599D01*
X155749911Y-109624089D01*
X155705400Y-109579578D01*
X155660890Y-109490557D01*
X155660890Y-109312515D01*
X155705400Y-109223494D01*
X155749911Y-109178984D01*
X155838932Y-109134473D01*
X156016974Y-109134473D01*
X156105995Y-109178984D01*
X156150505Y-109223494D01*
X156195016Y-109312515D01*
X158660890Y-118914892D02*
X159105995Y-119226466D01*
X158660890Y-119449018D02*
X159595610Y-119449018D01*
X159595610Y-119092934D01*
X159551100Y-119003913D01*
X159506589Y-118959403D01*
X159417568Y-118914892D01*
X159284037Y-118914892D01*
X159195016Y-118959403D01*
X159150505Y-119003913D01*
X159105995Y-119092934D01*
X159105995Y-119449018D01*
X159506589Y-118558809D02*
X159551100Y-118514298D01*
X159595610Y-118425277D01*
X159595610Y-118202725D01*
X159551100Y-118113704D01*
X159506589Y-118069193D01*
X159417568Y-118024683D01*
X159328547Y-118024683D01*
X159195016Y-118069193D01*
X158660890Y-118603319D01*
X158660890Y-118024683D01*
X158660890Y-117134473D02*
X158660890Y-117668599D01*
X158660890Y-117401536D02*
X159595610Y-117401536D01*
X159462079Y-117490557D01*
X159373058Y-117579578D01*
X159328547Y-117668599D01*
X146141858Y-85353200D02*
X146078911Y-85416147D01*
X146047437Y-85510568D01*
X146047437Y-85573515D01*
X146078911Y-85667936D01*
X146173332Y-85825305D01*
X146330700Y-85982673D01*
X146488068Y-86077094D01*
X146582489Y-86108568D01*
X146645437Y-86108568D01*
X146739858Y-86077094D01*
X146802805Y-86014147D01*
X146834279Y-85919726D01*
X146834279Y-85856778D01*
X146802805Y-85762357D01*
X146708384Y-85604989D01*
X146551016Y-85447621D01*
X146393647Y-85353200D01*
X146299226Y-85321726D01*
X146236279Y-85321726D01*
X146141858Y-85353200D01*
X145575332Y-86360357D02*
X146015964Y-86800988D01*
X145480911Y-85951199D02*
X146110385Y-86265936D01*
X145701227Y-86675093D01*
X144882912Y-86612146D02*
X144819964Y-86675093D01*
X144788491Y-86769514D01*
X144788491Y-86832462D01*
X144819964Y-86926883D01*
X144914385Y-87084251D01*
X145071754Y-87241619D01*
X145229122Y-87336040D01*
X145323543Y-87367514D01*
X145386490Y-87367514D01*
X145480911Y-87336040D01*
X145543859Y-87273093D01*
X145575332Y-87178672D01*
X145575332Y-87115725D01*
X145543859Y-87021304D01*
X145449438Y-86863935D01*
X145292069Y-86706567D01*
X145134701Y-86612146D01*
X145040280Y-86580673D01*
X144977333Y-86580673D01*
X144882912Y-86612146D01*
X144473754Y-87147198D02*
X144410807Y-87147198D01*
X144316386Y-87178672D01*
X144159018Y-87336040D01*
X144127544Y-87430461D01*
X144127544Y-87493409D01*
X144159018Y-87587830D01*
X144221965Y-87650777D01*
X144347860Y-87713724D01*
X145103227Y-87713724D01*
X144694070Y-88122882D01*
X118134312Y-108584833D02*
X118039891Y-108049781D01*
X118511996Y-108207149D02*
X117851049Y-107546202D01*
X117599260Y-107797991D01*
X117567786Y-107892412D01*
X117567786Y-107955360D01*
X117599260Y-108049781D01*
X117693681Y-108144202D01*
X117788102Y-108175675D01*
X117851049Y-108175675D01*
X117945470Y-108144202D01*
X118197259Y-107892412D01*
X117504839Y-109214306D02*
X117882522Y-108836622D01*
X117693681Y-109025464D02*
X117032734Y-108364517D01*
X117190102Y-108395991D01*
X117315997Y-108395991D01*
X117410418Y-108364517D01*
X116623576Y-108773675D02*
X116214419Y-109182832D01*
X116686523Y-109214306D01*
X116592102Y-109308727D01*
X116560629Y-109403148D01*
X116560629Y-109466095D01*
X116592102Y-109560516D01*
X116749471Y-109717885D01*
X116843892Y-109749358D01*
X116906839Y-109749358D01*
X117001260Y-109717885D01*
X117190102Y-109529043D01*
X117221576Y-109434622D01*
X117221576Y-109371674D01*
X122228089Y-118611589D02*
X122539663Y-118166484D01*
X122762215Y-118611589D02*
X122762215Y-117676869D01*
X122406131Y-117676869D01*
X122317110Y-117721380D01*
X122272600Y-117765890D01*
X122228089Y-117854911D01*
X122228089Y-117988442D01*
X122272600Y-118077463D01*
X122317110Y-118121974D01*
X122406131Y-118166484D01*
X122762215Y-118166484D01*
X121337880Y-118611589D02*
X121872006Y-118611589D01*
X121604943Y-118611589D02*
X121604943Y-117676869D01*
X121693964Y-117810400D01*
X121782985Y-117899421D01*
X121872006Y-117943932D01*
X120536691Y-117676869D02*
X120714733Y-117676869D01*
X120803754Y-117721380D01*
X120848265Y-117765890D01*
X120937286Y-117899421D01*
X120981796Y-118077463D01*
X120981796Y-118433547D01*
X120937286Y-118522568D01*
X120892775Y-118567079D01*
X120803754Y-118611589D01*
X120625712Y-118611589D01*
X120536691Y-118567079D01*
X120492181Y-118522568D01*
X120447670Y-118433547D01*
X120447670Y-118210995D01*
X120492181Y-118121974D01*
X120536691Y-118077463D01*
X120625712Y-118032953D01*
X120803754Y-118032953D01*
X120892775Y-118077463D01*
X120937286Y-118121974D01*
X120981796Y-118210995D01*
X160804258Y-103524261D02*
X161249363Y-103835835D01*
X160804258Y-104058387D02*
X161738978Y-104058387D01*
X161738978Y-103702303D01*
X161694468Y-103613282D01*
X161649957Y-103568772D01*
X161560936Y-103524261D01*
X161427405Y-103524261D01*
X161338384Y-103568772D01*
X161293873Y-103613282D01*
X161249363Y-103702303D01*
X161249363Y-104058387D01*
X161649957Y-103168178D02*
X161694468Y-103123667D01*
X161738978Y-103034646D01*
X161738978Y-102812094D01*
X161694468Y-102723073D01*
X161649957Y-102678562D01*
X161560936Y-102634052D01*
X161471915Y-102634052D01*
X161338384Y-102678562D01*
X160804258Y-103212688D01*
X160804258Y-102634052D01*
X161649957Y-102277968D02*
X161694468Y-102233458D01*
X161738978Y-102144437D01*
X161738978Y-101921884D01*
X161694468Y-101832863D01*
X161649957Y-101788353D01*
X161560936Y-101743842D01*
X161471915Y-101743842D01*
X161338384Y-101788353D01*
X160804258Y-102322479D01*
X160804258Y-101743842D01*
X141972791Y-100298523D02*
X142507843Y-100204102D01*
X142350475Y-100676207D02*
X143011422Y-100015260D01*
X142759633Y-99763471D01*
X142665212Y-99731997D01*
X142602264Y-99731997D01*
X142507843Y-99763471D01*
X142413422Y-99857892D01*
X142381949Y-99952313D01*
X142381949Y-100015260D01*
X142413422Y-100109681D01*
X142665212Y-100361470D01*
X141343318Y-99669050D02*
X141721002Y-100046733D01*
X141532160Y-99857892D02*
X142193107Y-99196945D01*
X142161633Y-99354313D01*
X142161633Y-99480208D01*
X142193107Y-99574629D01*
X141028581Y-99354313D02*
X140902687Y-99228418D01*
X140871213Y-99133997D01*
X140871213Y-99071050D01*
X140902687Y-98913682D01*
X140997108Y-98756313D01*
X141248897Y-98504524D01*
X141343318Y-98473051D01*
X141406265Y-98473051D01*
X141500686Y-98504524D01*
X141626581Y-98630419D01*
X141658054Y-98724840D01*
X141658054Y-98787787D01*
X141626581Y-98882208D01*
X141469213Y-99039576D01*
X141374792Y-99071050D01*
X141311844Y-99071050D01*
X141217423Y-99039576D01*
X141091529Y-98913682D01*
X141060055Y-98819261D01*
X141060055Y-98756313D01*
X141091529Y-98661892D01*
X118418089Y-95942089D02*
X118729663Y-95496984D01*
X118952215Y-95942089D02*
X118952215Y-95007369D01*
X118596131Y-95007369D01*
X118507110Y-95051880D01*
X118462600Y-95096390D01*
X118418089Y-95185411D01*
X118418089Y-95318942D01*
X118462600Y-95407963D01*
X118507110Y-95452474D01*
X118596131Y-95496984D01*
X118952215Y-95496984D01*
X117527880Y-95942089D02*
X118062006Y-95942089D01*
X117794943Y-95942089D02*
X117794943Y-95007369D01*
X117883964Y-95140900D01*
X117972985Y-95229921D01*
X118062006Y-95274432D01*
X117171796Y-95096390D02*
X117127286Y-95051880D01*
X117038265Y-95007369D01*
X116815712Y-95007369D01*
X116726691Y-95051880D01*
X116682181Y-95096390D01*
X116637670Y-95185411D01*
X116637670Y-95274432D01*
X116682181Y-95407963D01*
X117216307Y-95942089D01*
X116637670Y-95942089D01*
X110069812Y-100520333D02*
X109975391Y-99985281D01*
X110447496Y-100142649D02*
X109786549Y-99481702D01*
X109534760Y-99733491D01*
X109503286Y-99827912D01*
X109503286Y-99890860D01*
X109534760Y-99985281D01*
X109629181Y-100079702D01*
X109723602Y-100111175D01*
X109786549Y-100111175D01*
X109880970Y-100079702D01*
X110132759Y-99827912D01*
X109440339Y-101149806D02*
X109818022Y-100772122D01*
X109629181Y-100960964D02*
X108968234Y-100300017D01*
X109125602Y-100331491D01*
X109251497Y-100331491D01*
X109345918Y-100300017D01*
X108559076Y-100709175D02*
X108149919Y-101118332D01*
X108622023Y-101149806D01*
X108527602Y-101244227D01*
X108496129Y-101338648D01*
X108496129Y-101401595D01*
X108527602Y-101496016D01*
X108684971Y-101653385D01*
X108779392Y-101684858D01*
X108842339Y-101684858D01*
X108936760Y-101653385D01*
X109125602Y-101464543D01*
X109157076Y-101370122D01*
X109157076Y-101307174D01*
X144436525Y-97760391D02*
X144971577Y-97665970D01*
X144814209Y-98138075D02*
X145475156Y-97477128D01*
X145223367Y-97225339D01*
X145128946Y-97193865D01*
X145065998Y-97193865D01*
X144971577Y-97225339D01*
X144877156Y-97319760D01*
X144845683Y-97414181D01*
X144845683Y-97477128D01*
X144877156Y-97571549D01*
X145128946Y-97823338D01*
X144782735Y-96910602D02*
X144782735Y-96847655D01*
X144751262Y-96753234D01*
X144593893Y-96595865D01*
X144499472Y-96564392D01*
X144436525Y-96564392D01*
X144342104Y-96595865D01*
X144279157Y-96658813D01*
X144216209Y-96784707D01*
X144216209Y-97540075D01*
X143807052Y-97130918D01*
X143177579Y-96501444D02*
X143555263Y-96879128D01*
X143366421Y-96690286D02*
X144027368Y-96029339D01*
X143995894Y-96186708D01*
X143995894Y-96312602D01*
X144027368Y-96407023D01*
X150660890Y-110914892D02*
X151105995Y-111226466D01*
X150660890Y-111449018D02*
X151595610Y-111449018D01*
X151595610Y-111092934D01*
X151551100Y-111003913D01*
X151506589Y-110959403D01*
X151417568Y-110914892D01*
X151284037Y-110914892D01*
X151195016Y-110959403D01*
X151150505Y-111003913D01*
X151105995Y-111092934D01*
X151105995Y-111449018D01*
X151506589Y-110558809D02*
X151551100Y-110514298D01*
X151595610Y-110425277D01*
X151595610Y-110202725D01*
X151551100Y-110113704D01*
X151506589Y-110069193D01*
X151417568Y-110024683D01*
X151328547Y-110024683D01*
X151195016Y-110069193D01*
X150660890Y-110603319D01*
X150660890Y-110024683D01*
X151595610Y-109223494D02*
X151595610Y-109401536D01*
X151551100Y-109490557D01*
X151506589Y-109535068D01*
X151373058Y-109624089D01*
X151195016Y-109668599D01*
X150838932Y-109668599D01*
X150749911Y-109624089D01*
X150705400Y-109579578D01*
X150660890Y-109490557D01*
X150660890Y-109312515D01*
X150705400Y-109223494D01*
X150749911Y-109178984D01*
X150838932Y-109134473D01*
X151061484Y-109134473D01*
X151150505Y-109178984D01*
X151195016Y-109223494D01*
X151239526Y-109312515D01*
X151239526Y-109490557D01*
X151195016Y-109579578D01*
X151150505Y-109624089D01*
X151061484Y-109668599D01*
X155160890Y-118914892D02*
X155605995Y-119226466D01*
X155160890Y-119449018D02*
X156095610Y-119449018D01*
X156095610Y-119092934D01*
X156051100Y-119003913D01*
X156006589Y-118959403D01*
X155917568Y-118914892D01*
X155784037Y-118914892D01*
X155695016Y-118959403D01*
X155650505Y-119003913D01*
X155605995Y-119092934D01*
X155605995Y-119449018D01*
X156006589Y-118558809D02*
X156051100Y-118514298D01*
X156095610Y-118425277D01*
X156095610Y-118202725D01*
X156051100Y-118113704D01*
X156006589Y-118069193D01*
X155917568Y-118024683D01*
X155828547Y-118024683D01*
X155695016Y-118069193D01*
X155160890Y-118603319D01*
X155160890Y-118024683D01*
X156095610Y-117446047D02*
X156095610Y-117357026D01*
X156051100Y-117268005D01*
X156006589Y-117223494D01*
X155917568Y-117178984D01*
X155739526Y-117134473D01*
X155516974Y-117134473D01*
X155338932Y-117178984D01*
X155249911Y-117223494D01*
X155205400Y-117268005D01*
X155160890Y-117357026D01*
X155160890Y-117446047D01*
X155205400Y-117535068D01*
X155249911Y-117579578D01*
X155338932Y-117624089D01*
X155516974Y-117668599D01*
X155739526Y-117668599D01*
X155917568Y-117624089D01*
X156006589Y-117579578D01*
X156051100Y-117535068D01*
X156095610Y-117446047D01*
X160730367Y-86742309D02*
X161264492Y-86742309D01*
X160997430Y-86742309D02*
X160997430Y-85807589D01*
X161086451Y-85941120D01*
X161175472Y-86030141D01*
X161264492Y-86074652D01*
X160151731Y-85807589D02*
X160062710Y-85807589D01*
X159973689Y-85852100D01*
X159929178Y-85896610D01*
X159884668Y-85985631D01*
X159840157Y-86163673D01*
X159840157Y-86386225D01*
X159884668Y-86564267D01*
X159929178Y-86653288D01*
X159973689Y-86697799D01*
X160062710Y-86742309D01*
X160151731Y-86742309D01*
X160240752Y-86697799D01*
X160285262Y-86653288D01*
X160329772Y-86564267D01*
X160374283Y-86386225D01*
X160374283Y-86163673D01*
X160329772Y-85985631D01*
X160285262Y-85896610D01*
X160240752Y-85852100D01*
X160151731Y-85807589D01*
X159528584Y-86742309D02*
X159038969Y-86119162D01*
X159528584Y-86119162D02*
X159038969Y-86742309D01*
X158193270Y-86742309D02*
X158727395Y-86742309D01*
X158460332Y-86742309D02*
X158460332Y-85807589D01*
X158549353Y-85941120D01*
X158638374Y-86030141D01*
X158727395Y-86074652D01*
X157614633Y-85807589D02*
X157525612Y-85807589D01*
X157436592Y-85852100D01*
X157392081Y-85896610D01*
X157347571Y-85985631D01*
X157303060Y-86163673D01*
X157303060Y-86386225D01*
X157347571Y-86564267D01*
X157392081Y-86653288D01*
X157436592Y-86697799D01*
X157525612Y-86742309D01*
X157614633Y-86742309D01*
X157703654Y-86697799D01*
X157748165Y-86653288D01*
X157792675Y-86564267D01*
X157837186Y-86386225D01*
X157837186Y-86163673D01*
X157792675Y-85985631D01*
X157748165Y-85896610D01*
X157703654Y-85852100D01*
X157614633Y-85807589D01*
X156902466Y-86742309D02*
X156902466Y-86119162D01*
X156902466Y-86208183D02*
X156857955Y-86163673D01*
X156768934Y-86119162D01*
X156635403Y-86119162D01*
X156546382Y-86163673D01*
X156501872Y-86252694D01*
X156501872Y-86742309D01*
X156501872Y-86252694D02*
X156457361Y-86163673D01*
X156368340Y-86119162D01*
X156234809Y-86119162D01*
X156145788Y-86163673D01*
X156101277Y-86252694D01*
X156101277Y-86742309D01*
X155656172Y-86742309D02*
X155656172Y-86119162D01*
X155656172Y-86208183D02*
X155611662Y-86163673D01*
X155522641Y-86119162D01*
X155389110Y-86119162D01*
X155300089Y-86163673D01*
X155255578Y-86252694D01*
X155255578Y-86742309D01*
X155255578Y-86252694D02*
X155211068Y-86163673D01*
X155122047Y-86119162D01*
X154988515Y-86119162D01*
X154899494Y-86163673D01*
X154854984Y-86252694D01*
X154854984Y-86742309D01*
X126179663Y-109035216D02*
X126714715Y-108940795D01*
X126557347Y-109412900D02*
X127218294Y-108751953D01*
X126966505Y-108500164D01*
X126872084Y-108468690D01*
X126809136Y-108468690D01*
X126714715Y-108500164D01*
X126620294Y-108594585D01*
X126588821Y-108689006D01*
X126588821Y-108751953D01*
X126620294Y-108846374D01*
X126872084Y-109098163D01*
X125550190Y-108405743D02*
X125927874Y-108783426D01*
X125739032Y-108594585D02*
X126399979Y-107933638D01*
X126368505Y-108091006D01*
X126368505Y-108216901D01*
X126399979Y-108311322D01*
X124920717Y-107776269D02*
X125298401Y-108153953D01*
X125109559Y-107965111D02*
X125770506Y-107304164D01*
X125739032Y-107461533D01*
X125739032Y-107587427D01*
X125770506Y-107681848D01*
X140911663Y-86683216D02*
X141446715Y-86588795D01*
X141289347Y-87060900D02*
X141950294Y-86399953D01*
X141698505Y-86148164D01*
X141604084Y-86116690D01*
X141541136Y-86116690D01*
X141446715Y-86148164D01*
X141352294Y-86242585D01*
X141320821Y-86337006D01*
X141320821Y-86399953D01*
X141352294Y-86494374D01*
X141604084Y-86746163D01*
X141352294Y-85801953D02*
X140943137Y-85392796D01*
X140911663Y-85864901D01*
X140817242Y-85770480D01*
X140722821Y-85739006D01*
X140659874Y-85739006D01*
X140565453Y-85770480D01*
X140408085Y-85927848D01*
X140376611Y-86022269D01*
X140376611Y-86085216D01*
X140408085Y-86179637D01*
X140596926Y-86368479D01*
X140691347Y-86399953D01*
X140754295Y-86399953D01*
X140628400Y-85203954D02*
X140628400Y-85141006D01*
X140596926Y-85046585D01*
X140439558Y-84889217D01*
X140345137Y-84857744D01*
X140282190Y-84857744D01*
X140187769Y-84889217D01*
X140124822Y-84952164D01*
X140061874Y-85078059D01*
X140061874Y-85833427D01*
X139652717Y-85424269D01*
X191030642Y-128345474D02*
X191342215Y-128345474D01*
X191342215Y-128835089D02*
X191342215Y-127900369D01*
X190897110Y-127900369D01*
X190407495Y-128300963D02*
X190496516Y-128256453D01*
X190541027Y-128211942D01*
X190585537Y-128122921D01*
X190585537Y-128078411D01*
X190541027Y-127989390D01*
X190496516Y-127944880D01*
X190407495Y-127900369D01*
X190229453Y-127900369D01*
X190140432Y-127944880D01*
X190095922Y-127989390D01*
X190051411Y-128078411D01*
X190051411Y-128122921D01*
X190095922Y-128211942D01*
X190140432Y-128256453D01*
X190229453Y-128300963D01*
X190407495Y-128300963D01*
X190496516Y-128345474D01*
X190541027Y-128389984D01*
X190585537Y-128479005D01*
X190585537Y-128657047D01*
X190541027Y-128746068D01*
X190496516Y-128790579D01*
X190407495Y-128835089D01*
X190229453Y-128835089D01*
X190140432Y-128790579D01*
X190095922Y-128746068D01*
X190051411Y-128657047D01*
X190051411Y-128479005D01*
X190095922Y-128389984D01*
X190140432Y-128345474D01*
X190229453Y-128300963D01*
X155660890Y-103414892D02*
X156105995Y-103726466D01*
X155660890Y-103949018D02*
X156595610Y-103949018D01*
X156595610Y-103592934D01*
X156551100Y-103503913D01*
X156506589Y-103459403D01*
X156417568Y-103414892D01*
X156284037Y-103414892D01*
X156195016Y-103459403D01*
X156150505Y-103503913D01*
X156105995Y-103592934D01*
X156105995Y-103949018D01*
X156506589Y-103058809D02*
X156551100Y-103014298D01*
X156595610Y-102925277D01*
X156595610Y-102702725D01*
X156551100Y-102613704D01*
X156506589Y-102569193D01*
X156417568Y-102524683D01*
X156328547Y-102524683D01*
X156195016Y-102569193D01*
X155660890Y-103103319D01*
X155660890Y-102524683D01*
X156595610Y-101946047D02*
X156595610Y-101857026D01*
X156551100Y-101768005D01*
X156506589Y-101723494D01*
X156417568Y-101678984D01*
X156239526Y-101634473D01*
X156016974Y-101634473D01*
X155838932Y-101678984D01*
X155749911Y-101723494D01*
X155705400Y-101768005D01*
X155660890Y-101857026D01*
X155660890Y-101946047D01*
X155705400Y-102035068D01*
X155749911Y-102079578D01*
X155838932Y-102124089D01*
X156016974Y-102168599D01*
X156239526Y-102168599D01*
X156417568Y-102124089D01*
X156506589Y-102079578D01*
X156551100Y-102035068D01*
X156595610Y-101946047D01*
X134561663Y-93033216D02*
X135096715Y-92938795D01*
X134939347Y-93410900D02*
X135600294Y-92749953D01*
X135348505Y-92498164D01*
X135254084Y-92466690D01*
X135191136Y-92466690D01*
X135096715Y-92498164D01*
X135002294Y-92592585D01*
X134970821Y-92687006D01*
X134970821Y-92749953D01*
X135002294Y-92844374D01*
X135254084Y-93096163D01*
X134907873Y-92183427D02*
X134907873Y-92120480D01*
X134876400Y-92026059D01*
X134719031Y-91868690D01*
X134624610Y-91837217D01*
X134561663Y-91837217D01*
X134467242Y-91868690D01*
X134404295Y-91931638D01*
X134341347Y-92057532D01*
X134341347Y-92812900D01*
X133932190Y-92403743D01*
X134372821Y-91522480D02*
X133932190Y-91081849D01*
X133554506Y-92026059D01*
X144660890Y-118914892D02*
X145105995Y-119226466D01*
X144660890Y-119449018D02*
X145595610Y-119449018D01*
X145595610Y-119092934D01*
X145551100Y-119003913D01*
X145506589Y-118959403D01*
X145417568Y-118914892D01*
X145284037Y-118914892D01*
X145195016Y-118959403D01*
X145150505Y-119003913D01*
X145105995Y-119092934D01*
X145105995Y-119449018D01*
X144660890Y-118024683D02*
X144660890Y-118558809D01*
X144660890Y-118291746D02*
X145595610Y-118291746D01*
X145462079Y-118380767D01*
X145373058Y-118469788D01*
X145328547Y-118558809D01*
X145595610Y-117713110D02*
X145595610Y-117089963D01*
X144660890Y-117490557D01*
X122228089Y-130041589D02*
X122539663Y-129596484D01*
X122762215Y-130041589D02*
X122762215Y-129106869D01*
X122406131Y-129106869D01*
X122317110Y-129151380D01*
X122272600Y-129195890D01*
X122228089Y-129284911D01*
X122228089Y-129418442D01*
X122272600Y-129507463D01*
X122317110Y-129551974D01*
X122406131Y-129596484D01*
X122762215Y-129596484D01*
X121337880Y-130041589D02*
X121872006Y-130041589D01*
X121604943Y-130041589D02*
X121604943Y-129106869D01*
X121693964Y-129240400D01*
X121782985Y-129329421D01*
X121872006Y-129373932D01*
X120536691Y-129106869D02*
X120714733Y-129106869D01*
X120803754Y-129151380D01*
X120848265Y-129195890D01*
X120937286Y-129329421D01*
X120981796Y-129507463D01*
X120981796Y-129863547D01*
X120937286Y-129952568D01*
X120892775Y-129997079D01*
X120803754Y-130041589D01*
X120625712Y-130041589D01*
X120536691Y-129997079D01*
X120492181Y-129952568D01*
X120447670Y-129863547D01*
X120447670Y-129640995D01*
X120492181Y-129551974D01*
X120536691Y-129507463D01*
X120625712Y-129462953D01*
X120803754Y-129462953D01*
X120892775Y-129507463D01*
X120937286Y-129551974D01*
X120981796Y-129640995D01*
X115733890Y-113237892D02*
X116178995Y-113549466D01*
X115733890Y-113772018D02*
X116668610Y-113772018D01*
X116668610Y-113415934D01*
X116624100Y-113326913D01*
X116579589Y-113282403D01*
X116490568Y-113237892D01*
X116357037Y-113237892D01*
X116268016Y-113282403D01*
X116223505Y-113326913D01*
X116178995Y-113415934D01*
X116178995Y-113772018D01*
X115733890Y-112347683D02*
X115733890Y-112881809D01*
X115733890Y-112614746D02*
X116668610Y-112614746D01*
X116535079Y-112703767D01*
X116446058Y-112792788D01*
X116401547Y-112881809D01*
X116357037Y-111546494D02*
X115733890Y-111546494D01*
X116713120Y-111769047D02*
X116045463Y-111991599D01*
X116045463Y-111412963D01*
X186563742Y-89290474D02*
X186875315Y-89290474D01*
X186875315Y-89780089D02*
X186875315Y-88845369D01*
X186430210Y-88845369D01*
X186163148Y-88845369D02*
X185540001Y-88845369D01*
X185940595Y-89780089D01*
X122228089Y-122421589D02*
X122539663Y-121976484D01*
X122762215Y-122421589D02*
X122762215Y-121486869D01*
X122406131Y-121486869D01*
X122317110Y-121531380D01*
X122272600Y-121575890D01*
X122228089Y-121664911D01*
X122228089Y-121798442D01*
X122272600Y-121887463D01*
X122317110Y-121931974D01*
X122406131Y-121976484D01*
X122762215Y-121976484D01*
X121337880Y-122421589D02*
X121872006Y-122421589D01*
X121604943Y-122421589D02*
X121604943Y-121486869D01*
X121693964Y-121620400D01*
X121782985Y-121709421D01*
X121872006Y-121753932D01*
X120536691Y-121486869D02*
X120714733Y-121486869D01*
X120803754Y-121531380D01*
X120848265Y-121575890D01*
X120937286Y-121709421D01*
X120981796Y-121887463D01*
X120981796Y-122243547D01*
X120937286Y-122332568D01*
X120892775Y-122377079D01*
X120803754Y-122421589D01*
X120625712Y-122421589D01*
X120536691Y-122377079D01*
X120492181Y-122332568D01*
X120447670Y-122243547D01*
X120447670Y-122020995D01*
X120492181Y-121931974D01*
X120536691Y-121887463D01*
X120625712Y-121842953D01*
X120803754Y-121842953D01*
X120892775Y-121887463D01*
X120937286Y-121931974D01*
X120981796Y-122020995D01*
X134656890Y-113110892D02*
X135101995Y-113422466D01*
X134656890Y-113645018D02*
X135591610Y-113645018D01*
X135591610Y-113288934D01*
X135547100Y-113199913D01*
X135502589Y-113155403D01*
X135413568Y-113110892D01*
X135280037Y-113110892D01*
X135191016Y-113155403D01*
X135146505Y-113199913D01*
X135101995Y-113288934D01*
X135101995Y-113645018D01*
X134656890Y-112220683D02*
X134656890Y-112754809D01*
X134656890Y-112487746D02*
X135591610Y-112487746D01*
X135458079Y-112576767D01*
X135369058Y-112665788D01*
X135324547Y-112754809D01*
X135591610Y-111642047D02*
X135591610Y-111553026D01*
X135547100Y-111464005D01*
X135502589Y-111419494D01*
X135413568Y-111374984D01*
X135235526Y-111330473D01*
X135012974Y-111330473D01*
X134834932Y-111374984D01*
X134745911Y-111419494D01*
X134701400Y-111464005D01*
X134656890Y-111553026D01*
X134656890Y-111642047D01*
X134701400Y-111731068D01*
X134745911Y-111775578D01*
X134834932Y-111820089D01*
X135012974Y-111864599D01*
X135235526Y-111864599D01*
X135413568Y-111820089D01*
X135502589Y-111775578D01*
X135547100Y-111731068D01*
X135591610Y-111642047D01*
X123214473Y-102843235D02*
X123125452Y-102843235D01*
X123036431Y-102887746D01*
X122991921Y-102932256D01*
X122947410Y-103021277D01*
X122902900Y-103199319D01*
X122902900Y-103421871D01*
X122947410Y-103599913D01*
X122991921Y-103688934D01*
X123036431Y-103733445D01*
X123125452Y-103777955D01*
X123214473Y-103777955D01*
X123303494Y-103733445D01*
X123348005Y-103688934D01*
X123392515Y-103599913D01*
X123437026Y-103421871D01*
X123437026Y-103199319D01*
X123392515Y-103021277D01*
X123348005Y-102932256D01*
X123303494Y-102887746D01*
X123214473Y-102843235D01*
X122101711Y-102843235D02*
X122279753Y-102843235D01*
X122368774Y-102887746D01*
X122413285Y-102932256D01*
X122502306Y-103065787D01*
X122546816Y-103243829D01*
X122546816Y-103599913D01*
X122502306Y-103688934D01*
X122457795Y-103733445D01*
X122368774Y-103777955D01*
X122190732Y-103777955D01*
X122101711Y-103733445D01*
X122057201Y-103688934D01*
X122012690Y-103599913D01*
X122012690Y-103377361D01*
X122057201Y-103288340D01*
X122101711Y-103243829D01*
X122190732Y-103199319D01*
X122368774Y-103199319D01*
X122457795Y-103243829D01*
X122502306Y-103288340D01*
X122546816Y-103377361D01*
X121434054Y-102843235D02*
X121345033Y-102843235D01*
X121256012Y-102887746D01*
X121211502Y-102932256D01*
X121166991Y-103021277D01*
X121122481Y-103199319D01*
X121122481Y-103421871D01*
X121166991Y-103599913D01*
X121211502Y-103688934D01*
X121256012Y-103733445D01*
X121345033Y-103777955D01*
X121434054Y-103777955D01*
X121523075Y-103733445D01*
X121567586Y-103688934D01*
X121612096Y-103599913D01*
X121656607Y-103421871D01*
X121656607Y-103199319D01*
X121612096Y-103021277D01*
X121567586Y-102932256D01*
X121523075Y-102887746D01*
X121434054Y-102843235D01*
X120810908Y-102843235D02*
X120232271Y-102843235D01*
X120543845Y-103199319D01*
X120410313Y-103199319D01*
X120321292Y-103243829D01*
X120276782Y-103288340D01*
X120232271Y-103377361D01*
X120232271Y-103599913D01*
X120276782Y-103688934D01*
X120321292Y-103733445D01*
X120410313Y-103777955D01*
X120677376Y-103777955D01*
X120766397Y-103733445D01*
X120810908Y-103688934D01*
X126333516Y-117090643D02*
X126239095Y-116555591D01*
X126711200Y-116712959D02*
X126050253Y-116052012D01*
X125798464Y-116303801D01*
X125766990Y-116398222D01*
X125766990Y-116461170D01*
X125798464Y-116555591D01*
X125892885Y-116650012D01*
X125987306Y-116681485D01*
X126050253Y-116681485D01*
X126144674Y-116650012D01*
X126396463Y-116398222D01*
X126018779Y-117405380D02*
X125892885Y-117531274D01*
X125798464Y-117562748D01*
X125735516Y-117562748D01*
X125578148Y-117531274D01*
X125420780Y-117436853D01*
X125168990Y-117185064D01*
X125137517Y-117090643D01*
X125137517Y-117027696D01*
X125168990Y-116933275D01*
X125294885Y-116807380D01*
X125389306Y-116775906D01*
X125452253Y-116775906D01*
X125546674Y-116807380D01*
X125704043Y-116964748D01*
X125735516Y-117059169D01*
X125735516Y-117122117D01*
X125704043Y-117216538D01*
X125578148Y-117342432D01*
X125483727Y-117373906D01*
X125420780Y-117373906D01*
X125326359Y-117342432D01*
D14*
X171677978Y-124516361D02*
X172345635Y-124516361D01*
X172011806Y-124516361D02*
X172011806Y-123347961D01*
X172123082Y-123514876D01*
X172234359Y-123626152D01*
X172345635Y-123681790D01*
X171232873Y-123459238D02*
X171177235Y-123403600D01*
X171065959Y-123347961D01*
X170787768Y-123347961D01*
X170676492Y-123403600D01*
X170620854Y-123459238D01*
X170565216Y-123570514D01*
X170565216Y-123681790D01*
X170620854Y-123848704D01*
X171288511Y-124516361D01*
X170565216Y-124516361D01*
X169841920Y-123347961D02*
X169730644Y-123347961D01*
X169619368Y-123403600D01*
X169563730Y-123459238D01*
X169508092Y-123570514D01*
X169452454Y-123793066D01*
X169452454Y-124071257D01*
X169508092Y-124293809D01*
X169563730Y-124405085D01*
X169619368Y-124460723D01*
X169730644Y-124516361D01*
X169841920Y-124516361D01*
X169953197Y-124460723D01*
X170008835Y-124405085D01*
X170064473Y-124293809D01*
X170120111Y-124071257D01*
X170120111Y-123793066D01*
X170064473Y-123570514D01*
X170008835Y-123459238D01*
X169953197Y-123403600D01*
X169841920Y-123347961D01*
X168450968Y-123347961D02*
X168673520Y-123347961D01*
X168784797Y-123403600D01*
X168840435Y-123459238D01*
X168951711Y-123626152D01*
X169007349Y-123848704D01*
X169007349Y-124293809D01*
X168951711Y-124405085D01*
X168896073Y-124460723D01*
X168784797Y-124516361D01*
X168562244Y-124516361D01*
X168450968Y-124460723D01*
X168395330Y-124405085D01*
X168339692Y-124293809D01*
X168339692Y-124015619D01*
X168395330Y-123904342D01*
X168450968Y-123848704D01*
X168562244Y-123793066D01*
X168784797Y-123793066D01*
X168896073Y-123848704D01*
X168951711Y-123904342D01*
X169007349Y-124015619D01*
D13*
X143154309Y-98979110D02*
X143689361Y-98884689D01*
X143531993Y-99356794D02*
X144192940Y-98695847D01*
X143941151Y-98444058D01*
X143846730Y-98412584D01*
X143783782Y-98412584D01*
X143689361Y-98444058D01*
X143594940Y-98538479D01*
X143563467Y-98632900D01*
X143563467Y-98695847D01*
X143594940Y-98790268D01*
X143846730Y-99042057D01*
X143500519Y-98129321D02*
X143500519Y-98066374D01*
X143469046Y-97971953D01*
X143311677Y-97814584D01*
X143217256Y-97783111D01*
X143154309Y-97783111D01*
X143059888Y-97814584D01*
X142996941Y-97877532D01*
X142933993Y-98003426D01*
X142933993Y-98758794D01*
X142524836Y-98349637D01*
X142776625Y-97279532D02*
X142713678Y-97216585D01*
X142619257Y-97185111D01*
X142556310Y-97185111D01*
X142461889Y-97216585D01*
X142304520Y-97311006D01*
X142147152Y-97468374D01*
X142052731Y-97625742D01*
X142021257Y-97720163D01*
X142021257Y-97783111D01*
X142052731Y-97877532D01*
X142115678Y-97940479D01*
X142210099Y-97971953D01*
X142273047Y-97971953D01*
X142367468Y-97940479D01*
X142524836Y-97846058D01*
X142682204Y-97688690D01*
X142776625Y-97531321D01*
X142808099Y-97436900D01*
X142808099Y-97373953D01*
X142776625Y-97279532D01*
D14*
X172067444Y-106347961D02*
X171956168Y-106347961D01*
X171844892Y-106403600D01*
X171789254Y-106459238D01*
X171733616Y-106570514D01*
X171677978Y-106793066D01*
X171677978Y-107071257D01*
X171733616Y-107293809D01*
X171789254Y-107405085D01*
X171844892Y-107460723D01*
X171956168Y-107516361D01*
X172067444Y-107516361D01*
X172178720Y-107460723D01*
X172234359Y-107405085D01*
X172289997Y-107293809D01*
X172345635Y-107071257D01*
X172345635Y-106793066D01*
X172289997Y-106570514D01*
X172234359Y-106459238D01*
X172178720Y-106403600D01*
X172067444Y-106347961D01*
X170676492Y-106347961D02*
X170899044Y-106347961D01*
X171010320Y-106403600D01*
X171065959Y-106459238D01*
X171177235Y-106626152D01*
X171232873Y-106848704D01*
X171232873Y-107293809D01*
X171177235Y-107405085D01*
X171121597Y-107460723D01*
X171010320Y-107516361D01*
X170787768Y-107516361D01*
X170676492Y-107460723D01*
X170620854Y-107405085D01*
X170565216Y-107293809D01*
X170565216Y-107015619D01*
X170620854Y-106904342D01*
X170676492Y-106848704D01*
X170787768Y-106793066D01*
X171010320Y-106793066D01*
X171121597Y-106848704D01*
X171177235Y-106904342D01*
X171232873Y-107015619D01*
X169841920Y-106347961D02*
X169730644Y-106347961D01*
X169619368Y-106403600D01*
X169563730Y-106459238D01*
X169508092Y-106570514D01*
X169452454Y-106793066D01*
X169452454Y-107071257D01*
X169508092Y-107293809D01*
X169563730Y-107405085D01*
X169619368Y-107460723D01*
X169730644Y-107516361D01*
X169841920Y-107516361D01*
X169953197Y-107460723D01*
X170008835Y-107405085D01*
X170064473Y-107293809D01*
X170120111Y-107071257D01*
X170120111Y-106793066D01*
X170064473Y-106570514D01*
X170008835Y-106459238D01*
X169953197Y-106403600D01*
X169841920Y-106347961D01*
X169062987Y-106347961D02*
X168339692Y-106347961D01*
X168729159Y-106793066D01*
X168562244Y-106793066D01*
X168450968Y-106848704D01*
X168395330Y-106904342D01*
X168339692Y-107015619D01*
X168339692Y-107293809D01*
X168395330Y-107405085D01*
X168450968Y-107460723D01*
X168562244Y-107516361D01*
X168896073Y-107516361D01*
X169007349Y-107460723D01*
X169062987Y-107405085D01*
D13*
X158660890Y-128414892D02*
X159105995Y-128726466D01*
X158660890Y-128949018D02*
X159595610Y-128949018D01*
X159595610Y-128592934D01*
X159551100Y-128503913D01*
X159506589Y-128459403D01*
X159417568Y-128414892D01*
X159284037Y-128414892D01*
X159195016Y-128459403D01*
X159150505Y-128503913D01*
X159105995Y-128592934D01*
X159105995Y-128949018D01*
X159506589Y-128058809D02*
X159551100Y-128014298D01*
X159595610Y-127925277D01*
X159595610Y-127702725D01*
X159551100Y-127613704D01*
X159506589Y-127569193D01*
X159417568Y-127524683D01*
X159328547Y-127524683D01*
X159195016Y-127569193D01*
X158660890Y-128103319D01*
X158660890Y-127524683D01*
X158660890Y-126634473D02*
X158660890Y-127168599D01*
X158660890Y-126901536D02*
X159595610Y-126901536D01*
X159462079Y-126990557D01*
X159373058Y-127079578D01*
X159328547Y-127168599D01*
D14*
X190836731Y-122791461D02*
X190614179Y-122791461D01*
X190502902Y-122735823D01*
X190447264Y-122680185D01*
X190335988Y-122513271D01*
X190280350Y-122290719D01*
X190280350Y-121845614D01*
X190335988Y-121734338D01*
X190391626Y-121678700D01*
X190502902Y-121623061D01*
X190725455Y-121623061D01*
X190836731Y-121678700D01*
X190892369Y-121734338D01*
X190948007Y-121845614D01*
X190948007Y-122123804D01*
X190892369Y-122235080D01*
X190836731Y-122290719D01*
X190725455Y-122346357D01*
X190502902Y-122346357D01*
X190391626Y-122290719D01*
X190335988Y-122235080D01*
X190280350Y-122123804D01*
D13*
X131477016Y-122234143D02*
X131382595Y-121699091D01*
X131854700Y-121856459D02*
X131193753Y-121195512D01*
X130941964Y-121447301D01*
X130910490Y-121541722D01*
X130910490Y-121604670D01*
X130941964Y-121699091D01*
X131036385Y-121793512D01*
X131130806Y-121824985D01*
X131193753Y-121824985D01*
X131288174Y-121793512D01*
X131539963Y-121541722D01*
X131162279Y-122548880D02*
X131036385Y-122674774D01*
X130941964Y-122706248D01*
X130879016Y-122706248D01*
X130721648Y-122674774D01*
X130564280Y-122580353D01*
X130312490Y-122328564D01*
X130281017Y-122234143D01*
X130281017Y-122171196D01*
X130312490Y-122076775D01*
X130438385Y-121950880D01*
X130532806Y-121919406D01*
X130595753Y-121919406D01*
X130690174Y-121950880D01*
X130847543Y-122108248D01*
X130879016Y-122202669D01*
X130879016Y-122265617D01*
X130847543Y-122360038D01*
X130721648Y-122485932D01*
X130627227Y-122517406D01*
X130564280Y-122517406D01*
X130469859Y-122485932D01*
X148160890Y-103414892D02*
X148605995Y-103726466D01*
X148160890Y-103949018D02*
X149095610Y-103949018D01*
X149095610Y-103592934D01*
X149051100Y-103503913D01*
X149006589Y-103459403D01*
X148917568Y-103414892D01*
X148784037Y-103414892D01*
X148695016Y-103459403D01*
X148650505Y-103503913D01*
X148605995Y-103592934D01*
X148605995Y-103949018D01*
X148160890Y-102524683D02*
X148160890Y-103058809D01*
X148160890Y-102791746D02*
X149095610Y-102791746D01*
X148962079Y-102880767D01*
X148873058Y-102969788D01*
X148828547Y-103058809D01*
X149095610Y-102213110D02*
X149095610Y-101589963D01*
X148160890Y-101990557D01*
X148160890Y-118914892D02*
X148605995Y-119226466D01*
X148160890Y-119449018D02*
X149095610Y-119449018D01*
X149095610Y-119092934D01*
X149051100Y-119003913D01*
X149006589Y-118959403D01*
X148917568Y-118914892D01*
X148784037Y-118914892D01*
X148695016Y-118959403D01*
X148650505Y-119003913D01*
X148605995Y-119092934D01*
X148605995Y-119449018D01*
X148160890Y-118024683D02*
X148160890Y-118558809D01*
X148160890Y-118291746D02*
X149095610Y-118291746D01*
X148962079Y-118380767D01*
X148873058Y-118469788D01*
X148828547Y-118558809D01*
X148695016Y-117490557D02*
X148739526Y-117579578D01*
X148784037Y-117624089D01*
X148873058Y-117668599D01*
X148917568Y-117668599D01*
X149006589Y-117624089D01*
X149051100Y-117579578D01*
X149095610Y-117490557D01*
X149095610Y-117312515D01*
X149051100Y-117223494D01*
X149006589Y-117178984D01*
X148917568Y-117134473D01*
X148873058Y-117134473D01*
X148784037Y-117178984D01*
X148739526Y-117223494D01*
X148695016Y-117312515D01*
X148695016Y-117490557D01*
X148650505Y-117579578D01*
X148605995Y-117624089D01*
X148516974Y-117668599D01*
X148338932Y-117668599D01*
X148249911Y-117624089D01*
X148205400Y-117579578D01*
X148160890Y-117490557D01*
X148160890Y-117312515D01*
X148205400Y-117223494D01*
X148249911Y-117178984D01*
X148338932Y-117134473D01*
X148516974Y-117134473D01*
X148605995Y-117178984D01*
X148650505Y-117223494D01*
X148695016Y-117312515D01*
X122228089Y-126231589D02*
X122539663Y-125786484D01*
X122762215Y-126231589D02*
X122762215Y-125296869D01*
X122406131Y-125296869D01*
X122317110Y-125341380D01*
X122272600Y-125385890D01*
X122228089Y-125474911D01*
X122228089Y-125608442D01*
X122272600Y-125697463D01*
X122317110Y-125741974D01*
X122406131Y-125786484D01*
X122762215Y-125786484D01*
X121337880Y-126231589D02*
X121872006Y-126231589D01*
X121604943Y-126231589D02*
X121604943Y-125296869D01*
X121693964Y-125430400D01*
X121782985Y-125519421D01*
X121872006Y-125563932D01*
X120536691Y-125296869D02*
X120714733Y-125296869D01*
X120803754Y-125341380D01*
X120848265Y-125385890D01*
X120937286Y-125519421D01*
X120981796Y-125697463D01*
X120981796Y-126053547D01*
X120937286Y-126142568D01*
X120892775Y-126187079D01*
X120803754Y-126231589D01*
X120625712Y-126231589D01*
X120536691Y-126187079D01*
X120492181Y-126142568D01*
X120447670Y-126053547D01*
X120447670Y-125830995D01*
X120492181Y-125741974D01*
X120536691Y-125697463D01*
X120625712Y-125652953D01*
X120803754Y-125652953D01*
X120892775Y-125697463D01*
X120937286Y-125741974D01*
X120981796Y-125830995D01*
X138593890Y-112920392D02*
X139038995Y-113231966D01*
X138593890Y-113454518D02*
X139528610Y-113454518D01*
X139528610Y-113098434D01*
X139484100Y-113009413D01*
X139439589Y-112964903D01*
X139350568Y-112920392D01*
X139217037Y-112920392D01*
X139128016Y-112964903D01*
X139083505Y-113009413D01*
X139038995Y-113098434D01*
X139038995Y-113454518D01*
X138593890Y-112030183D02*
X138593890Y-112564309D01*
X138593890Y-112297246D02*
X139528610Y-112297246D01*
X139395079Y-112386267D01*
X139306058Y-112475288D01*
X139261547Y-112564309D01*
X139528610Y-111451547D02*
X139528610Y-111362526D01*
X139484100Y-111273505D01*
X139439589Y-111228994D01*
X139350568Y-111184484D01*
X139172526Y-111139973D01*
X138949974Y-111139973D01*
X138771932Y-111184484D01*
X138682911Y-111228994D01*
X138638400Y-111273505D01*
X138593890Y-111362526D01*
X138593890Y-111451547D01*
X138638400Y-111540568D01*
X138682911Y-111585078D01*
X138771932Y-111629589D01*
X138949974Y-111674099D01*
X139172526Y-111674099D01*
X139350568Y-111629589D01*
X139439589Y-111585078D01*
X139484100Y-111540568D01*
X139528610Y-111451547D01*
X155160890Y-128414892D02*
X155605995Y-128726466D01*
X155160890Y-128949018D02*
X156095610Y-128949018D01*
X156095610Y-128592934D01*
X156051100Y-128503913D01*
X156006589Y-128459403D01*
X155917568Y-128414892D01*
X155784037Y-128414892D01*
X155695016Y-128459403D01*
X155650505Y-128503913D01*
X155605995Y-128592934D01*
X155605995Y-128949018D01*
X156006589Y-128058809D02*
X156051100Y-128014298D01*
X156095610Y-127925277D01*
X156095610Y-127702725D01*
X156051100Y-127613704D01*
X156006589Y-127569193D01*
X155917568Y-127524683D01*
X155828547Y-127524683D01*
X155695016Y-127569193D01*
X155160890Y-128103319D01*
X155160890Y-127524683D01*
X156095610Y-126946047D02*
X156095610Y-126857026D01*
X156051100Y-126768005D01*
X156006589Y-126723494D01*
X155917568Y-126678984D01*
X155739526Y-126634473D01*
X155516974Y-126634473D01*
X155338932Y-126678984D01*
X155249911Y-126723494D01*
X155205400Y-126768005D01*
X155160890Y-126857026D01*
X155160890Y-126946047D01*
X155205400Y-127035068D01*
X155249911Y-127079578D01*
X155338932Y-127124089D01*
X155516974Y-127168599D01*
X155739526Y-127168599D01*
X155917568Y-127124089D01*
X156006589Y-127079578D01*
X156051100Y-127035068D01*
X156095610Y-126946047D01*
X131196163Y-103891716D02*
X131731215Y-103797295D01*
X131573847Y-104269400D02*
X132234794Y-103608453D01*
X131983005Y-103356664D01*
X131888584Y-103325190D01*
X131825636Y-103325190D01*
X131731215Y-103356664D01*
X131636794Y-103451085D01*
X131605321Y-103545506D01*
X131605321Y-103608453D01*
X131636794Y-103702874D01*
X131888584Y-103954663D01*
X130566690Y-103262243D02*
X130944374Y-103639926D01*
X130755532Y-103451085D02*
X131416479Y-102790138D01*
X131385005Y-102947506D01*
X131385005Y-103073401D01*
X131416479Y-103167822D01*
X129937217Y-102632769D02*
X130314901Y-103010453D01*
X130126059Y-102821611D02*
X130787006Y-102160664D01*
X130755532Y-102318033D01*
X130755532Y-102443927D01*
X130787006Y-102538348D01*
D15*
X181417785Y-87241285D02*
X181853988Y-86618138D01*
X182165561Y-87241285D02*
X182165561Y-85932677D01*
X181667044Y-85932677D01*
X181542415Y-85994992D01*
X181480100Y-86057306D01*
X181417785Y-86181936D01*
X181417785Y-86368880D01*
X181480100Y-86493509D01*
X181542415Y-86555824D01*
X181667044Y-86618138D01*
X182165561Y-86618138D01*
X180296121Y-86368880D02*
X180296121Y-87241285D01*
X180856953Y-86368880D02*
X180856953Y-87054341D01*
X180794639Y-87178970D01*
X180670009Y-87241285D01*
X180483065Y-87241285D01*
X180358436Y-87178970D01*
X180296121Y-87116656D01*
X179486031Y-87241285D02*
X179610660Y-87178970D01*
X179672975Y-87054341D01*
X179672975Y-85932677D01*
X178488996Y-87178970D02*
X178613625Y-87241285D01*
X178862884Y-87241285D01*
X178987513Y-87178970D01*
X179049828Y-87054341D01*
X179049828Y-86555824D01*
X178987513Y-86431194D01*
X178862884Y-86368880D01*
X178613625Y-86368880D01*
X178488996Y-86431194D01*
X178426681Y-86555824D01*
X178426681Y-86680453D01*
X179049828Y-86805082D01*
X177865849Y-87241285D02*
X177865849Y-86368880D01*
X177865849Y-86618138D02*
X177803535Y-86493509D01*
X177741220Y-86431194D01*
X177616591Y-86368880D01*
X177491961Y-86368880D01*
X176121039Y-87178970D02*
X175934095Y-87241285D01*
X175622521Y-87241285D01*
X175497892Y-87178970D01*
X175435577Y-87116656D01*
X175373263Y-86992026D01*
X175373263Y-86867397D01*
X175435577Y-86742768D01*
X175497892Y-86680453D01*
X175622521Y-86618138D01*
X175871780Y-86555824D01*
X175996409Y-86493509D01*
X176058724Y-86431194D01*
X176121039Y-86306565D01*
X176121039Y-86181936D01*
X176058724Y-86057306D01*
X175996409Y-85994992D01*
X175871780Y-85932677D01*
X175560207Y-85932677D01*
X175373263Y-85994992D01*
X174812431Y-86368880D02*
X174812431Y-87677488D01*
X174812431Y-86431194D02*
X174687801Y-86368880D01*
X174438543Y-86368880D01*
X174313913Y-86431194D01*
X174251599Y-86493509D01*
X174189284Y-86618138D01*
X174189284Y-86992026D01*
X174251599Y-87116656D01*
X174313913Y-87178970D01*
X174438543Y-87241285D01*
X174687801Y-87241285D01*
X174812431Y-87178970D01*
X173067620Y-87241285D02*
X173067620Y-86555824D01*
X173129935Y-86431194D01*
X173254564Y-86368880D01*
X173503823Y-86368880D01*
X173628452Y-86431194D01*
X173067620Y-87178970D02*
X173192249Y-87241285D01*
X173503823Y-87241285D01*
X173628452Y-87178970D01*
X173690767Y-87054341D01*
X173690767Y-86929712D01*
X173628452Y-86805082D01*
X173503823Y-86742768D01*
X173192249Y-86742768D01*
X173067620Y-86680453D01*
X171883641Y-87178970D02*
X172008271Y-87241285D01*
X172257529Y-87241285D01*
X172382159Y-87178970D01*
X172444473Y-87116656D01*
X172506788Y-86992026D01*
X172506788Y-86618138D01*
X172444473Y-86493509D01*
X172382159Y-86431194D01*
X172257529Y-86368880D01*
X172008271Y-86368880D01*
X171883641Y-86431194D01*
X171322809Y-87241285D02*
X171322809Y-86368880D01*
X171322809Y-85932677D02*
X171385124Y-85994992D01*
X171322809Y-86057306D01*
X171260495Y-85994992D01*
X171322809Y-85932677D01*
X171322809Y-86057306D01*
X170699663Y-86368880D02*
X170699663Y-87241285D01*
X170699663Y-86493509D02*
X170637348Y-86431194D01*
X170512719Y-86368880D01*
X170325775Y-86368880D01*
X170201145Y-86431194D01*
X170138831Y-86555824D01*
X170138831Y-87241285D01*
X168954852Y-86368880D02*
X168954852Y-87428229D01*
X169017167Y-87552858D01*
X169079481Y-87615173D01*
X169204111Y-87677488D01*
X169391055Y-87677488D01*
X169515684Y-87615173D01*
X168954852Y-87178970D02*
X169079481Y-87241285D01*
X169328740Y-87241285D01*
X169453369Y-87178970D01*
X169515684Y-87116656D01*
X169577999Y-86992026D01*
X169577999Y-86618138D01*
X169515684Y-86493509D01*
X169453369Y-86431194D01*
X169328740Y-86368880D01*
X169079481Y-86368880D01*
X168954852Y-86431194D01*
D13*
X165848155Y-103524261D02*
X166293260Y-103835835D01*
X165848155Y-104058387D02*
X166782875Y-104058387D01*
X166782875Y-103702303D01*
X166738365Y-103613282D01*
X166693854Y-103568772D01*
X166604833Y-103524261D01*
X166471302Y-103524261D01*
X166382281Y-103568772D01*
X166337770Y-103613282D01*
X166293260Y-103702303D01*
X166293260Y-104058387D01*
X166693854Y-103168178D02*
X166738365Y-103123667D01*
X166782875Y-103034646D01*
X166782875Y-102812094D01*
X166738365Y-102723073D01*
X166693854Y-102678562D01*
X166604833Y-102634052D01*
X166515812Y-102634052D01*
X166382281Y-102678562D01*
X165848155Y-103212688D01*
X165848155Y-102634052D01*
X166471302Y-101832863D02*
X165848155Y-101832863D01*
X166827385Y-102055416D02*
X166159728Y-102277968D01*
X166159728Y-101699332D01*
X162160890Y-128414892D02*
X162605995Y-128726466D01*
X162160890Y-128949018D02*
X163095610Y-128949018D01*
X163095610Y-128592934D01*
X163051100Y-128503913D01*
X163006589Y-128459403D01*
X162917568Y-128414892D01*
X162784037Y-128414892D01*
X162695016Y-128459403D01*
X162650505Y-128503913D01*
X162605995Y-128592934D01*
X162605995Y-128949018D01*
X163006589Y-128058809D02*
X163051100Y-128014298D01*
X163095610Y-127925277D01*
X163095610Y-127702725D01*
X163051100Y-127613704D01*
X163006589Y-127569193D01*
X162917568Y-127524683D01*
X162828547Y-127524683D01*
X162695016Y-127569193D01*
X162160890Y-128103319D01*
X162160890Y-127524683D01*
X163006589Y-127168599D02*
X163051100Y-127124089D01*
X163095610Y-127035068D01*
X163095610Y-126812515D01*
X163051100Y-126723494D01*
X163006589Y-126678984D01*
X162917568Y-126634473D01*
X162828547Y-126634473D01*
X162695016Y-126678984D01*
X162160890Y-127213110D01*
X162160890Y-126634473D01*
X134117163Y-101034216D02*
X134652215Y-100939795D01*
X134494847Y-101411900D02*
X135155794Y-100750953D01*
X134904005Y-100499164D01*
X134809584Y-100467690D01*
X134746636Y-100467690D01*
X134652215Y-100499164D01*
X134557794Y-100593585D01*
X134526321Y-100688006D01*
X134526321Y-100750953D01*
X134557794Y-100845374D01*
X134809584Y-101097163D01*
X133487690Y-100404743D02*
X133865374Y-100782426D01*
X133676532Y-100593585D02*
X134337479Y-99932638D01*
X134306005Y-100090006D01*
X134306005Y-100215901D01*
X134337479Y-100310322D01*
X132858217Y-99775269D02*
X133235901Y-100152953D01*
X133047059Y-99964111D02*
X133708006Y-99303164D01*
X133676532Y-99460533D01*
X133676532Y-99586427D01*
X133708006Y-99680848D01*
X162160890Y-118914892D02*
X162605995Y-119226466D01*
X162160890Y-119449018D02*
X163095610Y-119449018D01*
X163095610Y-119092934D01*
X163051100Y-119003913D01*
X163006589Y-118959403D01*
X162917568Y-118914892D01*
X162784037Y-118914892D01*
X162695016Y-118959403D01*
X162650505Y-119003913D01*
X162605995Y-119092934D01*
X162605995Y-119449018D01*
X163006589Y-118558809D02*
X163051100Y-118514298D01*
X163095610Y-118425277D01*
X163095610Y-118202725D01*
X163051100Y-118113704D01*
X163006589Y-118069193D01*
X162917568Y-118024683D01*
X162828547Y-118024683D01*
X162695016Y-118069193D01*
X162160890Y-118603319D01*
X162160890Y-118024683D01*
X163006589Y-117668599D02*
X163051100Y-117624089D01*
X163095610Y-117535068D01*
X163095610Y-117312515D01*
X163051100Y-117223494D01*
X163006589Y-117178984D01*
X162917568Y-117134473D01*
X162828547Y-117134473D01*
X162695016Y-117178984D01*
X162160890Y-117713110D01*
X162160890Y-117134473D01*
X153160890Y-110914892D02*
X153605995Y-111226466D01*
X153160890Y-111449018D02*
X154095610Y-111449018D01*
X154095610Y-111092934D01*
X154051100Y-111003913D01*
X154006589Y-110959403D01*
X153917568Y-110914892D01*
X153784037Y-110914892D01*
X153695016Y-110959403D01*
X153650505Y-111003913D01*
X153605995Y-111092934D01*
X153605995Y-111449018D01*
X154006589Y-110558809D02*
X154051100Y-110514298D01*
X154095610Y-110425277D01*
X154095610Y-110202725D01*
X154051100Y-110113704D01*
X154006589Y-110069193D01*
X153917568Y-110024683D01*
X153828547Y-110024683D01*
X153695016Y-110069193D01*
X153160890Y-110603319D01*
X153160890Y-110024683D01*
X154095610Y-109713110D02*
X154095610Y-109089963D01*
X153160890Y-109490557D01*
X148796158Y-87702700D02*
X148733211Y-87765647D01*
X148701737Y-87860068D01*
X148701737Y-87923015D01*
X148733211Y-88017436D01*
X148827632Y-88174805D01*
X148985000Y-88332173D01*
X149142368Y-88426594D01*
X149236789Y-88458068D01*
X149299737Y-88458068D01*
X149394158Y-88426594D01*
X149457105Y-88363647D01*
X149488579Y-88269226D01*
X149488579Y-88206278D01*
X149457105Y-88111857D01*
X149362684Y-87954489D01*
X149205316Y-87797121D01*
X149047947Y-87702700D01*
X148953526Y-87671226D01*
X148890579Y-87671226D01*
X148796158Y-87702700D01*
X148009317Y-88489541D02*
X148135211Y-88363647D01*
X148229632Y-88332173D01*
X148292580Y-88332173D01*
X148449948Y-88363647D01*
X148607316Y-88458068D01*
X148859106Y-88709857D01*
X148890579Y-88804278D01*
X148890579Y-88867225D01*
X148859106Y-88961646D01*
X148733211Y-89087541D01*
X148638790Y-89119014D01*
X148575843Y-89119014D01*
X148481422Y-89087541D01*
X148324053Y-88930173D01*
X148292580Y-88835752D01*
X148292580Y-88772804D01*
X148324053Y-88678383D01*
X148449948Y-88552489D01*
X148544369Y-88521015D01*
X148607316Y-88521015D01*
X148701737Y-88552489D01*
X147537212Y-88961646D02*
X147474264Y-89024593D01*
X147442791Y-89119014D01*
X147442791Y-89181962D01*
X147474264Y-89276383D01*
X147568685Y-89433751D01*
X147726054Y-89591119D01*
X147883422Y-89685540D01*
X147977843Y-89717014D01*
X148040790Y-89717014D01*
X148135211Y-89685540D01*
X148198159Y-89622593D01*
X148229632Y-89528172D01*
X148229632Y-89465225D01*
X148198159Y-89370804D01*
X148103738Y-89213435D01*
X147946369Y-89056067D01*
X147789001Y-88961646D01*
X147694580Y-88930173D01*
X147631633Y-88930173D01*
X147537212Y-88961646D01*
X147096581Y-89402277D02*
X146687423Y-89811435D01*
X147159528Y-89842909D01*
X147065107Y-89937330D01*
X147033633Y-90031751D01*
X147033633Y-90094698D01*
X147065107Y-90189119D01*
X147222475Y-90346487D01*
X147316896Y-90377961D01*
X147379844Y-90377961D01*
X147474264Y-90346487D01*
X147663106Y-90157645D01*
X147694580Y-90063224D01*
X147694580Y-90000277D01*
X163389705Y-103524261D02*
X163834810Y-103835835D01*
X163389705Y-104058387D02*
X164324425Y-104058387D01*
X164324425Y-103702303D01*
X164279915Y-103613282D01*
X164235404Y-103568772D01*
X164146383Y-103524261D01*
X164012852Y-103524261D01*
X163923831Y-103568772D01*
X163879320Y-103613282D01*
X163834810Y-103702303D01*
X163834810Y-104058387D01*
X164235404Y-103168178D02*
X164279915Y-103123667D01*
X164324425Y-103034646D01*
X164324425Y-102812094D01*
X164279915Y-102723073D01*
X164235404Y-102678562D01*
X164146383Y-102634052D01*
X164057362Y-102634052D01*
X163923831Y-102678562D01*
X163389705Y-103212688D01*
X163389705Y-102634052D01*
X164324425Y-102322479D02*
X164324425Y-101743842D01*
X163968341Y-102055416D01*
X163968341Y-101921884D01*
X163923831Y-101832863D01*
X163879320Y-101788353D01*
X163790299Y-101743842D01*
X163567747Y-101743842D01*
X163478726Y-101788353D01*
X163434215Y-101832863D01*
X163389705Y-101921884D01*
X163389705Y-102188947D01*
X163434215Y-102277968D01*
X163478726Y-102322479D01*
X163160890Y-110914892D02*
X163605995Y-111226466D01*
X163160890Y-111449018D02*
X164095610Y-111449018D01*
X164095610Y-111092934D01*
X164051100Y-111003913D01*
X164006589Y-110959403D01*
X163917568Y-110914892D01*
X163784037Y-110914892D01*
X163695016Y-110959403D01*
X163650505Y-111003913D01*
X163605995Y-111092934D01*
X163605995Y-111449018D01*
X164095610Y-110603319D02*
X164095610Y-110024683D01*
X163739526Y-110336256D01*
X163739526Y-110202725D01*
X163695016Y-110113704D01*
X163650505Y-110069193D01*
X163561484Y-110024683D01*
X163338932Y-110024683D01*
X163249911Y-110069193D01*
X163205400Y-110113704D01*
X163160890Y-110202725D01*
X163160890Y-110469788D01*
X163205400Y-110558809D01*
X163249911Y-110603319D01*
X163160890Y-109134473D02*
X163160890Y-109668599D01*
X163160890Y-109401536D02*
X164095610Y-109401536D01*
X163962079Y-109490557D01*
X163873058Y-109579578D01*
X163828547Y-109668599D01*
X160660890Y-110914892D02*
X161105995Y-111226466D01*
X160660890Y-111449018D02*
X161595610Y-111449018D01*
X161595610Y-111092934D01*
X161551100Y-111003913D01*
X161506589Y-110959403D01*
X161417568Y-110914892D01*
X161284037Y-110914892D01*
X161195016Y-110959403D01*
X161150505Y-111003913D01*
X161105995Y-111092934D01*
X161105995Y-111449018D01*
X161595610Y-110603319D02*
X161595610Y-110024683D01*
X161239526Y-110336256D01*
X161239526Y-110202725D01*
X161195016Y-110113704D01*
X161150505Y-110069193D01*
X161061484Y-110024683D01*
X160838932Y-110024683D01*
X160749911Y-110069193D01*
X160705400Y-110113704D01*
X160660890Y-110202725D01*
X160660890Y-110469788D01*
X160705400Y-110558809D01*
X160749911Y-110603319D01*
X161595610Y-109446047D02*
X161595610Y-109357026D01*
X161551100Y-109268005D01*
X161506589Y-109223494D01*
X161417568Y-109178984D01*
X161239526Y-109134473D01*
X161016974Y-109134473D01*
X160838932Y-109178984D01*
X160749911Y-109223494D01*
X160705400Y-109268005D01*
X160660890Y-109357026D01*
X160660890Y-109446047D01*
X160705400Y-109535068D01*
X160749911Y-109579578D01*
X160838932Y-109624089D01*
X161016974Y-109668599D01*
X161239526Y-109668599D01*
X161417568Y-109624089D01*
X161506589Y-109579578D01*
X161551100Y-109535068D01*
X161595610Y-109446047D01*
X128810016Y-119630643D02*
X128715595Y-119095591D01*
X129187700Y-119252959D02*
X128526753Y-118592012D01*
X128274964Y-118843801D01*
X128243490Y-118938222D01*
X128243490Y-119001170D01*
X128274964Y-119095591D01*
X128369385Y-119190012D01*
X128463806Y-119221485D01*
X128526753Y-119221485D01*
X128621174Y-119190012D01*
X128872963Y-118938222D01*
X128495279Y-119945380D02*
X128369385Y-120071274D01*
X128274964Y-120102748D01*
X128212016Y-120102748D01*
X128054648Y-120071274D01*
X127897280Y-119976853D01*
X127645490Y-119725064D01*
X127614017Y-119630643D01*
X127614017Y-119567696D01*
X127645490Y-119473275D01*
X127771385Y-119347380D01*
X127865806Y-119315906D01*
X127928753Y-119315906D01*
X128023174Y-119347380D01*
X128180543Y-119504748D01*
X128212016Y-119599169D01*
X128212016Y-119662117D01*
X128180543Y-119756538D01*
X128054648Y-119882432D01*
X127960227Y-119913906D01*
X127897280Y-119913906D01*
X127802859Y-119882432D01*
X150660890Y-103414892D02*
X151105995Y-103726466D01*
X150660890Y-103949018D02*
X151595610Y-103949018D01*
X151595610Y-103592934D01*
X151551100Y-103503913D01*
X151506589Y-103459403D01*
X151417568Y-103414892D01*
X151284037Y-103414892D01*
X151195016Y-103459403D01*
X151150505Y-103503913D01*
X151105995Y-103592934D01*
X151105995Y-103949018D01*
X150660890Y-102524683D02*
X150660890Y-103058809D01*
X150660890Y-102791746D02*
X151595610Y-102791746D01*
X151462079Y-102880767D01*
X151373058Y-102969788D01*
X151328547Y-103058809D01*
X151195016Y-101990557D02*
X151239526Y-102079578D01*
X151284037Y-102124089D01*
X151373058Y-102168599D01*
X151417568Y-102168599D01*
X151506589Y-102124089D01*
X151551100Y-102079578D01*
X151595610Y-101990557D01*
X151595610Y-101812515D01*
X151551100Y-101723494D01*
X151506589Y-101678984D01*
X151417568Y-101634473D01*
X151373058Y-101634473D01*
X151284037Y-101678984D01*
X151239526Y-101723494D01*
X151195016Y-101812515D01*
X151195016Y-101990557D01*
X151150505Y-102079578D01*
X151105995Y-102124089D01*
X151016974Y-102168599D01*
X150838932Y-102168599D01*
X150749911Y-102124089D01*
X150705400Y-102079578D01*
X150660890Y-101990557D01*
X150660890Y-101812515D01*
X150705400Y-101723494D01*
X150749911Y-101678984D01*
X150838932Y-101634473D01*
X151016974Y-101634473D01*
X151105995Y-101678984D01*
X151150505Y-101723494D01*
X151195016Y-101812515D01*
X165660890Y-128414892D02*
X166105995Y-128726466D01*
X165660890Y-128949018D02*
X166595610Y-128949018D01*
X166595610Y-128592934D01*
X166551100Y-128503913D01*
X166506589Y-128459403D01*
X166417568Y-128414892D01*
X166284037Y-128414892D01*
X166195016Y-128459403D01*
X166150505Y-128503913D01*
X166105995Y-128592934D01*
X166105995Y-128949018D01*
X166506589Y-128058809D02*
X166551100Y-128014298D01*
X166595610Y-127925277D01*
X166595610Y-127702725D01*
X166551100Y-127613704D01*
X166506589Y-127569193D01*
X166417568Y-127524683D01*
X166328547Y-127524683D01*
X166195016Y-127569193D01*
X165660890Y-128103319D01*
X165660890Y-127524683D01*
X166595610Y-127213110D02*
X166595610Y-126634473D01*
X166239526Y-126946047D01*
X166239526Y-126812515D01*
X166195016Y-126723494D01*
X166150505Y-126678984D01*
X166061484Y-126634473D01*
X165838932Y-126634473D01*
X165749911Y-126678984D01*
X165705400Y-126723494D01*
X165660890Y-126812515D01*
X165660890Y-127079578D01*
X165705400Y-127168599D01*
X165749911Y-127213110D01*
X145801163Y-96652716D02*
X146336215Y-96558295D01*
X146178847Y-97030400D02*
X146839794Y-96369453D01*
X146588005Y-96117664D01*
X146493584Y-96086190D01*
X146430636Y-96086190D01*
X146336215Y-96117664D01*
X146241794Y-96212085D01*
X146210321Y-96306506D01*
X146210321Y-96369453D01*
X146241794Y-96463874D01*
X146493584Y-96715663D01*
X146147373Y-95802927D02*
X146147373Y-95739980D01*
X146115900Y-95645559D01*
X145958531Y-95488190D01*
X145864110Y-95456717D01*
X145801163Y-95456717D01*
X145706742Y-95488190D01*
X145643795Y-95551138D01*
X145580847Y-95677032D01*
X145580847Y-96432400D01*
X145171690Y-96023243D01*
X145517900Y-95173454D02*
X145517900Y-95110506D01*
X145486426Y-95016085D01*
X145329058Y-94858717D01*
X145234637Y-94827244D01*
X145171690Y-94827244D01*
X145077269Y-94858717D01*
X145014322Y-94921664D01*
X144951374Y-95047559D01*
X144951374Y-95802927D01*
X144542217Y-95393769D01*
D14*
X190725455Y-114313304D02*
X190836731Y-114257666D01*
X190892369Y-114202028D01*
X190948007Y-114090752D01*
X190948007Y-114035114D01*
X190892369Y-113923838D01*
X190836731Y-113868200D01*
X190725455Y-113812561D01*
X190502902Y-113812561D01*
X190391626Y-113868200D01*
X190335988Y-113923838D01*
X190280350Y-114035114D01*
X190280350Y-114090752D01*
X190335988Y-114202028D01*
X190391626Y-114257666D01*
X190502902Y-114313304D01*
X190725455Y-114313304D01*
X190836731Y-114368942D01*
X190892369Y-114424580D01*
X190948007Y-114535857D01*
X190948007Y-114758409D01*
X190892369Y-114869685D01*
X190836731Y-114925323D01*
X190725455Y-114980961D01*
X190502902Y-114980961D01*
X190391626Y-114925323D01*
X190335988Y-114869685D01*
X190280350Y-114758409D01*
X190280350Y-114535857D01*
X190335988Y-114424580D01*
X190391626Y-114368942D01*
X190502902Y-114313304D01*
D13*
X135831663Y-91763216D02*
X136366715Y-91668795D01*
X136209347Y-92140900D02*
X136870294Y-91479953D01*
X136618505Y-91228164D01*
X136524084Y-91196690D01*
X136461136Y-91196690D01*
X136366715Y-91228164D01*
X136272294Y-91322585D01*
X136240821Y-91417006D01*
X136240821Y-91479953D01*
X136272294Y-91574374D01*
X136524084Y-91826163D01*
X136177873Y-90913427D02*
X136177873Y-90850480D01*
X136146400Y-90756059D01*
X135989031Y-90598690D01*
X135894610Y-90567217D01*
X135831663Y-90567217D01*
X135737242Y-90598690D01*
X135674295Y-90661638D01*
X135611347Y-90787532D01*
X135611347Y-91542900D01*
X135202190Y-91133743D01*
X135202190Y-90378375D02*
X135296611Y-90409848D01*
X135359558Y-90409848D01*
X135453979Y-90378375D01*
X135485453Y-90346901D01*
X135516926Y-90252480D01*
X135516926Y-90189533D01*
X135485453Y-90095112D01*
X135359558Y-89969217D01*
X135265137Y-89937744D01*
X135202190Y-89937744D01*
X135107769Y-89969217D01*
X135076295Y-90000691D01*
X135044822Y-90095112D01*
X135044822Y-90158059D01*
X135076295Y-90252480D01*
X135202190Y-90378375D01*
X135233664Y-90472796D01*
X135233664Y-90535743D01*
X135202190Y-90630164D01*
X135076295Y-90756059D01*
X134981874Y-90787532D01*
X134918927Y-90787532D01*
X134824506Y-90756059D01*
X134698611Y-90630164D01*
X134667138Y-90535743D01*
X134667138Y-90472796D01*
X134698611Y-90378375D01*
X134824506Y-90252480D01*
X134918927Y-90221006D01*
X134981874Y-90221006D01*
X135076295Y-90252480D01*
X128465663Y-106495216D02*
X129000715Y-106400795D01*
X128843347Y-106872900D02*
X129504294Y-106211953D01*
X129252505Y-105960164D01*
X129158084Y-105928690D01*
X129095136Y-105928690D01*
X129000715Y-105960164D01*
X128906294Y-106054585D01*
X128874821Y-106149006D01*
X128874821Y-106211953D01*
X128906294Y-106306374D01*
X129158084Y-106558163D01*
X127836190Y-105865743D02*
X128213874Y-106243426D01*
X128025032Y-106054585D02*
X128685979Y-105393638D01*
X128654505Y-105551006D01*
X128654505Y-105676901D01*
X128685979Y-105771322D01*
X127206717Y-105236269D02*
X127584401Y-105613953D01*
X127395559Y-105425111D02*
X128056506Y-104764164D01*
X128025032Y-104921533D01*
X128025032Y-105047427D01*
X128056506Y-105141848D01*
D14*
X184184350Y-126791961D02*
X184852007Y-126791961D01*
X184518179Y-126791961D02*
X184518179Y-125623561D01*
X184629455Y-125790476D01*
X184740731Y-125901752D01*
X184852007Y-125957390D01*
X183461055Y-125623561D02*
X183349779Y-125623561D01*
X183238502Y-125679200D01*
X183182864Y-125734838D01*
X183127226Y-125846114D01*
X183071588Y-126068666D01*
X183071588Y-126346857D01*
X183127226Y-126569409D01*
X183182864Y-126680685D01*
X183238502Y-126736323D01*
X183349779Y-126791961D01*
X183461055Y-126791961D01*
X183572331Y-126736323D01*
X183627969Y-126680685D01*
X183683607Y-126569409D01*
X183739245Y-126346857D01*
X183739245Y-126068666D01*
X183683607Y-125846114D01*
X183627969Y-125734838D01*
X183572331Y-125679200D01*
X183461055Y-125623561D01*
D13*
X104494390Y-113174392D02*
X104939495Y-113485966D01*
X104494390Y-113708518D02*
X105429110Y-113708518D01*
X105429110Y-113352434D01*
X105384600Y-113263413D01*
X105340089Y-113218903D01*
X105251068Y-113174392D01*
X105117537Y-113174392D01*
X105028516Y-113218903D01*
X104984005Y-113263413D01*
X104939495Y-113352434D01*
X104939495Y-113708518D01*
X104494390Y-112284183D02*
X104494390Y-112818309D01*
X104494390Y-112551246D02*
X105429110Y-112551246D01*
X105295579Y-112640267D01*
X105206558Y-112729288D01*
X105162047Y-112818309D01*
X105117537Y-111482994D02*
X104494390Y-111482994D01*
X105473620Y-111705547D02*
X104805963Y-111928099D01*
X104805963Y-111349463D01*
D14*
X186630007Y-118671823D02*
X186463093Y-118727461D01*
X186184902Y-118727461D01*
X186073626Y-118671823D01*
X186017988Y-118616185D01*
X185962350Y-118504909D01*
X185962350Y-118393633D01*
X186017988Y-118282357D01*
X186073626Y-118226719D01*
X186184902Y-118171080D01*
X186407455Y-118115442D01*
X186518731Y-118059804D01*
X186574369Y-118004166D01*
X186630007Y-117892890D01*
X186630007Y-117781614D01*
X186574369Y-117670338D01*
X186518731Y-117614700D01*
X186407455Y-117559061D01*
X186129264Y-117559061D01*
X185962350Y-117614700D01*
X185239055Y-117559061D02*
X185016502Y-117559061D01*
X184905226Y-117614700D01*
X184793950Y-117725976D01*
X184738312Y-117948528D01*
X184738312Y-118337995D01*
X184793950Y-118560547D01*
X184905226Y-118671823D01*
X185016502Y-118727461D01*
X185239055Y-118727461D01*
X185350331Y-118671823D01*
X185461607Y-118560547D01*
X185517245Y-118337995D01*
X185517245Y-117948528D01*
X185461607Y-117725976D01*
X185350331Y-117614700D01*
X185239055Y-117559061D01*
X184404483Y-117559061D02*
X183736826Y-117559061D01*
X184070655Y-118727461D02*
X184070655Y-117559061D01*
X183402998Y-117670338D02*
X183347360Y-117614700D01*
X183236083Y-117559061D01*
X182957893Y-117559061D01*
X182846617Y-117614700D01*
X182790979Y-117670338D01*
X182735340Y-117781614D01*
X182735340Y-117892890D01*
X182790979Y-118059804D01*
X183458636Y-118727461D01*
X182735340Y-118727461D01*
X182345874Y-117559061D02*
X181622579Y-117559061D01*
X182012045Y-118004166D01*
X181845131Y-118004166D01*
X181733855Y-118059804D01*
X181678217Y-118115442D01*
X181622579Y-118226719D01*
X181622579Y-118504909D01*
X181678217Y-118616185D01*
X181733855Y-118671823D01*
X181845131Y-118727461D01*
X182178960Y-118727461D01*
X182290236Y-118671823D01*
X182345874Y-118616185D01*
D13*
X137101663Y-90493216D02*
X137636715Y-90398795D01*
X137479347Y-90870900D02*
X138140294Y-90209953D01*
X137888505Y-89958164D01*
X137794084Y-89926690D01*
X137731136Y-89926690D01*
X137636715Y-89958164D01*
X137542294Y-90052585D01*
X137510821Y-90147006D01*
X137510821Y-90209953D01*
X137542294Y-90304374D01*
X137794084Y-90556163D01*
X137447873Y-89643427D02*
X137447873Y-89580480D01*
X137416400Y-89486059D01*
X137259031Y-89328690D01*
X137164610Y-89297217D01*
X137101663Y-89297217D01*
X137007242Y-89328690D01*
X136944295Y-89391638D01*
X136881347Y-89517532D01*
X136881347Y-90272900D01*
X136472190Y-89863743D01*
X136157453Y-89549006D02*
X136031559Y-89423111D01*
X136000085Y-89328690D01*
X136000085Y-89265743D01*
X136031559Y-89108375D01*
X136125980Y-88951006D01*
X136377769Y-88699217D01*
X136472190Y-88667744D01*
X136535137Y-88667744D01*
X136629558Y-88699217D01*
X136755453Y-88825112D01*
X136786926Y-88919533D01*
X136786926Y-88982480D01*
X136755453Y-89076901D01*
X136598085Y-89234269D01*
X136503664Y-89265743D01*
X136440716Y-89265743D01*
X136346295Y-89234269D01*
X136220401Y-89108375D01*
X136188927Y-89013954D01*
X136188927Y-88951006D01*
X136220401Y-88856585D01*
X112990812Y-103187333D02*
X112896391Y-102652281D01*
X113368496Y-102809649D02*
X112707549Y-102148702D01*
X112455760Y-102400491D01*
X112424286Y-102494912D01*
X112424286Y-102557860D01*
X112455760Y-102652281D01*
X112550181Y-102746702D01*
X112644602Y-102778175D01*
X112707549Y-102778175D01*
X112801970Y-102746702D01*
X113053759Y-102494912D01*
X112361339Y-103816806D02*
X112739022Y-103439122D01*
X112550181Y-103627964D02*
X111889234Y-102967017D01*
X112046602Y-102998491D01*
X112172497Y-102998491D01*
X112266918Y-102967017D01*
X111480076Y-103376175D02*
X111070919Y-103785332D01*
X111543023Y-103816806D01*
X111448602Y-103911227D01*
X111417129Y-104005648D01*
X111417129Y-104068595D01*
X111448602Y-104163016D01*
X111605971Y-104320385D01*
X111700392Y-104351858D01*
X111763339Y-104351858D01*
X111857760Y-104320385D01*
X112046602Y-104131543D01*
X112078076Y-104037122D01*
X112078076Y-103974174D01*
D14*
X131639007Y-82984823D02*
X131472093Y-83040461D01*
X131193902Y-83040461D01*
X131082626Y-82984823D01*
X131026988Y-82929185D01*
X130971350Y-82817909D01*
X130971350Y-82706633D01*
X131026988Y-82595357D01*
X131082626Y-82539719D01*
X131193902Y-82484080D01*
X131416455Y-82428442D01*
X131527731Y-82372804D01*
X131583369Y-82317166D01*
X131639007Y-82205890D01*
X131639007Y-82094614D01*
X131583369Y-81983338D01*
X131527731Y-81927700D01*
X131416455Y-81872061D01*
X131138264Y-81872061D01*
X130971350Y-81927700D01*
X130248055Y-81872061D02*
X130025502Y-81872061D01*
X129914226Y-81927700D01*
X129802950Y-82038976D01*
X129747312Y-82261528D01*
X129747312Y-82650995D01*
X129802950Y-82873547D01*
X129914226Y-82984823D01*
X130025502Y-83040461D01*
X130248055Y-83040461D01*
X130359331Y-82984823D01*
X130470607Y-82873547D01*
X130526245Y-82650995D01*
X130526245Y-82261528D01*
X130470607Y-82038976D01*
X130359331Y-81927700D01*
X130248055Y-81872061D01*
X129413483Y-81872061D02*
X128745826Y-81872061D01*
X129079655Y-83040461D02*
X129079655Y-81872061D01*
X128356360Y-82595357D02*
X127466150Y-82595357D01*
X126965407Y-81983338D02*
X126909769Y-81927700D01*
X126798493Y-81872061D01*
X126520302Y-81872061D01*
X126409026Y-81927700D01*
X126353388Y-81983338D01*
X126297750Y-82094614D01*
X126297750Y-82205890D01*
X126353388Y-82372804D01*
X127021045Y-83040461D01*
X126297750Y-83040461D01*
X125240626Y-81872061D02*
X125797007Y-81872061D01*
X125852645Y-82428442D01*
X125797007Y-82372804D01*
X125685731Y-82317166D01*
X125407540Y-82317166D01*
X125296264Y-82372804D01*
X125240626Y-82428442D01*
X125184988Y-82539719D01*
X125184988Y-82817909D01*
X125240626Y-82929185D01*
X125296264Y-82984823D01*
X125407540Y-83040461D01*
X125685731Y-83040461D01*
X125797007Y-82984823D01*
X125852645Y-82929185D01*
X124739883Y-81983338D02*
X124684245Y-81927700D01*
X124572969Y-81872061D01*
X124294779Y-81872061D01*
X124183502Y-81927700D01*
X124127864Y-81983338D01*
X124072226Y-82094614D01*
X124072226Y-82205890D01*
X124127864Y-82372804D01*
X124795521Y-83040461D01*
X124072226Y-83040461D01*
X123571483Y-82595357D02*
X122681274Y-82595357D01*
X122180531Y-81983338D02*
X122124893Y-81927700D01*
X122013617Y-81872061D01*
X121735426Y-81872061D01*
X121624150Y-81927700D01*
X121568512Y-81983338D01*
X121512874Y-82094614D01*
X121512874Y-82205890D01*
X121568512Y-82372804D01*
X122236169Y-83040461D01*
X121512874Y-83040461D01*
D13*
X117760463Y-117369126D02*
X118295515Y-117274705D01*
X118138147Y-117746810D02*
X118799094Y-117085863D01*
X118547305Y-116834074D01*
X118452884Y-116802600D01*
X118389936Y-116802600D01*
X118295515Y-116834074D01*
X118201094Y-116928495D01*
X118169621Y-117022916D01*
X118169621Y-117085863D01*
X118201094Y-117180284D01*
X118452884Y-117432073D01*
X117130990Y-116739653D02*
X117508674Y-117117336D01*
X117319832Y-116928495D02*
X117980779Y-116267548D01*
X117949305Y-116424916D01*
X117949305Y-116550811D01*
X117980779Y-116645232D01*
X117193937Y-115480706D02*
X117508674Y-115795443D01*
X117225411Y-116141653D01*
X117225411Y-116078706D01*
X117193937Y-115984285D01*
X117036569Y-115826916D01*
X116942148Y-115795443D01*
X116879201Y-115795443D01*
X116784780Y-115826916D01*
X116627411Y-115984285D01*
X116595938Y-116078706D01*
X116595938Y-116141653D01*
X116627411Y-116236074D01*
X116784780Y-116393442D01*
X116879201Y-116424916D01*
X116942148Y-116424916D01*
X122907600Y-96005589D02*
X123441726Y-96005589D01*
X123174663Y-96005589D02*
X123174663Y-95070869D01*
X123263684Y-95204400D01*
X123352705Y-95293421D01*
X123441726Y-95337932D01*
X122551516Y-95159890D02*
X122507006Y-95115380D01*
X122417985Y-95070869D01*
X122195432Y-95070869D01*
X122106411Y-95115380D01*
X122061901Y-95159890D01*
X122017390Y-95248911D01*
X122017390Y-95337932D01*
X122061901Y-95471463D01*
X122596027Y-96005589D01*
X122017390Y-96005589D01*
X121438754Y-95070869D02*
X121349733Y-95070869D01*
X121260712Y-95115380D01*
X121216202Y-95159890D01*
X121171691Y-95248911D01*
X121127181Y-95426953D01*
X121127181Y-95649505D01*
X121171691Y-95827547D01*
X121216202Y-95916568D01*
X121260712Y-95961079D01*
X121349733Y-96005589D01*
X121438754Y-96005589D01*
X121527775Y-95961079D01*
X121572286Y-95916568D01*
X121616796Y-95827547D01*
X121661307Y-95649505D01*
X121661307Y-95426953D01*
X121616796Y-95248911D01*
X121572286Y-95159890D01*
X121527775Y-95115380D01*
X121438754Y-95070869D01*
X120325992Y-95070869D02*
X120504034Y-95070869D01*
X120593055Y-95115380D01*
X120637566Y-95159890D01*
X120726587Y-95293421D01*
X120771097Y-95471463D01*
X120771097Y-95827547D01*
X120726587Y-95916568D01*
X120682076Y-95961079D01*
X120593055Y-96005589D01*
X120415013Y-96005589D01*
X120325992Y-95961079D01*
X120281482Y-95916568D01*
X120236971Y-95827547D01*
X120236971Y-95604995D01*
X120281482Y-95515974D01*
X120325992Y-95471463D01*
X120415013Y-95426953D01*
X120593055Y-95426953D01*
X120682076Y-95471463D01*
X120726587Y-95515974D01*
X120771097Y-95604995D01*
X130846890Y-113047392D02*
X131291995Y-113358966D01*
X130846890Y-113581518D02*
X131781610Y-113581518D01*
X131781610Y-113225434D01*
X131737100Y-113136413D01*
X131692589Y-113091903D01*
X131603568Y-113047392D01*
X131470037Y-113047392D01*
X131381016Y-113091903D01*
X131336505Y-113136413D01*
X131291995Y-113225434D01*
X131291995Y-113581518D01*
X130846890Y-112157183D02*
X130846890Y-112691309D01*
X130846890Y-112424246D02*
X131781610Y-112424246D01*
X131648079Y-112513267D01*
X131559058Y-112602288D01*
X131514547Y-112691309D01*
X131781610Y-111578547D02*
X131781610Y-111489526D01*
X131737100Y-111400505D01*
X131692589Y-111355994D01*
X131603568Y-111311484D01*
X131425526Y-111266973D01*
X131202974Y-111266973D01*
X131024932Y-111311484D01*
X130935911Y-111355994D01*
X130891400Y-111400505D01*
X130846890Y-111489526D01*
X130846890Y-111578547D01*
X130891400Y-111667568D01*
X130935911Y-111712078D01*
X131024932Y-111756589D01*
X131202974Y-111801099D01*
X131425526Y-111801099D01*
X131603568Y-111756589D01*
X131692589Y-111712078D01*
X131737100Y-111667568D01*
X131781610Y-111578547D01*
X123009601Y-106598473D02*
X122920580Y-106598473D01*
X122831559Y-106642984D01*
X122787049Y-106687494D01*
X122742538Y-106776515D01*
X122698028Y-106954557D01*
X122698028Y-107177109D01*
X122742538Y-107355151D01*
X122787049Y-107444172D01*
X122831559Y-107488683D01*
X122920580Y-107533193D01*
X123009601Y-107533193D01*
X123098622Y-107488683D01*
X123143133Y-107444172D01*
X123187643Y-107355151D01*
X123232154Y-107177109D01*
X123232154Y-106954557D01*
X123187643Y-106776515D01*
X123143133Y-106687494D01*
X123098622Y-106642984D01*
X123009601Y-106598473D01*
X121896839Y-106910046D02*
X121896839Y-107533193D01*
X122119392Y-106553963D02*
X122341944Y-107221620D01*
X121763308Y-107221620D01*
X121229182Y-106598473D02*
X121140161Y-106598473D01*
X121051140Y-106642984D01*
X121006630Y-106687494D01*
X120962119Y-106776515D01*
X120917609Y-106954557D01*
X120917609Y-107177109D01*
X120962119Y-107355151D01*
X121006630Y-107444172D01*
X121051140Y-107488683D01*
X121140161Y-107533193D01*
X121229182Y-107533193D01*
X121318203Y-107488683D01*
X121362714Y-107444172D01*
X121407224Y-107355151D01*
X121451735Y-107177109D01*
X121451735Y-106954557D01*
X121407224Y-106776515D01*
X121362714Y-106687494D01*
X121318203Y-106642984D01*
X121229182Y-106598473D01*
X120561525Y-106687494D02*
X120517015Y-106642984D01*
X120427994Y-106598473D01*
X120205441Y-106598473D01*
X120116420Y-106642984D01*
X120071910Y-106687494D01*
X120027399Y-106776515D01*
X120027399Y-106865536D01*
X120071910Y-106999067D01*
X120606036Y-107533193D01*
X120027399Y-107533193D01*
X151660890Y-118914892D02*
X152105995Y-119226466D01*
X151660890Y-119449018D02*
X152595610Y-119449018D01*
X152595610Y-119092934D01*
X152551100Y-119003913D01*
X152506589Y-118959403D01*
X152417568Y-118914892D01*
X152284037Y-118914892D01*
X152195016Y-118959403D01*
X152150505Y-119003913D01*
X152105995Y-119092934D01*
X152105995Y-119449018D01*
X151660890Y-118024683D02*
X151660890Y-118558809D01*
X151660890Y-118291746D02*
X152595610Y-118291746D01*
X152462079Y-118380767D01*
X152373058Y-118469788D01*
X152328547Y-118558809D01*
X151660890Y-117579578D02*
X151660890Y-117401536D01*
X151705400Y-117312515D01*
X151749911Y-117268005D01*
X151883442Y-117178984D01*
X152061484Y-117134473D01*
X152417568Y-117134473D01*
X152506589Y-117178984D01*
X152551100Y-117223494D01*
X152595610Y-117312515D01*
X152595610Y-117490557D01*
X152551100Y-117579578D01*
X152506589Y-117624089D01*
X152417568Y-117668599D01*
X152195016Y-117668599D01*
X152105995Y-117624089D01*
X152061484Y-117579578D01*
X152016974Y-117490557D01*
X152016974Y-117312515D01*
X152061484Y-117223494D01*
X152105995Y-117178984D01*
X152195016Y-117134473D01*
X108177390Y-113237892D02*
X108622495Y-113549466D01*
X108177390Y-113772018D02*
X109112110Y-113772018D01*
X109112110Y-113415934D01*
X109067600Y-113326913D01*
X109023089Y-113282403D01*
X108934068Y-113237892D01*
X108800537Y-113237892D01*
X108711516Y-113282403D01*
X108667005Y-113326913D01*
X108622495Y-113415934D01*
X108622495Y-113772018D01*
X108177390Y-112347683D02*
X108177390Y-112881809D01*
X108177390Y-112614746D02*
X109112110Y-112614746D01*
X108978579Y-112703767D01*
X108889558Y-112792788D01*
X108845047Y-112881809D01*
X108800537Y-111546494D02*
X108177390Y-111546494D01*
X109156620Y-111769047D02*
X108488963Y-111991599D01*
X108488963Y-111412963D01*
X158160890Y-103414892D02*
X158605995Y-103726466D01*
X158160890Y-103949018D02*
X159095610Y-103949018D01*
X159095610Y-103592934D01*
X159051100Y-103503913D01*
X159006589Y-103459403D01*
X158917568Y-103414892D01*
X158784037Y-103414892D01*
X158695016Y-103459403D01*
X158650505Y-103503913D01*
X158605995Y-103592934D01*
X158605995Y-103949018D01*
X159006589Y-103058809D02*
X159051100Y-103014298D01*
X159095610Y-102925277D01*
X159095610Y-102702725D01*
X159051100Y-102613704D01*
X159006589Y-102569193D01*
X158917568Y-102524683D01*
X158828547Y-102524683D01*
X158695016Y-102569193D01*
X158160890Y-103103319D01*
X158160890Y-102524683D01*
X158160890Y-101634473D02*
X158160890Y-102168599D01*
X158160890Y-101901536D02*
X159095610Y-101901536D01*
X158962079Y-101990557D01*
X158873058Y-102079578D01*
X158828547Y-102168599D01*
X144660890Y-128414892D02*
X145105995Y-128726466D01*
X144660890Y-128949018D02*
X145595610Y-128949018D01*
X145595610Y-128592934D01*
X145551100Y-128503913D01*
X145506589Y-128459403D01*
X145417568Y-128414892D01*
X145284037Y-128414892D01*
X145195016Y-128459403D01*
X145150505Y-128503913D01*
X145105995Y-128592934D01*
X145105995Y-128949018D01*
X144660890Y-127524683D02*
X144660890Y-128058809D01*
X144660890Y-127791746D02*
X145595610Y-127791746D01*
X145462079Y-127880767D01*
X145373058Y-127969788D01*
X145328547Y-128058809D01*
X145595610Y-127213110D02*
X145595610Y-126589963D01*
X144660890Y-126990557D01*
D14*
X118939007Y-93335323D02*
X118772093Y-93390961D01*
X118493902Y-93390961D01*
X118382626Y-93335323D01*
X118326988Y-93279685D01*
X118271350Y-93168409D01*
X118271350Y-93057133D01*
X118326988Y-92945857D01*
X118382626Y-92890219D01*
X118493902Y-92834580D01*
X118716455Y-92778942D01*
X118827731Y-92723304D01*
X118883369Y-92667666D01*
X118939007Y-92556390D01*
X118939007Y-92445114D01*
X118883369Y-92333838D01*
X118827731Y-92278200D01*
X118716455Y-92222561D01*
X118438264Y-92222561D01*
X118271350Y-92278200D01*
X117548055Y-92222561D02*
X117325502Y-92222561D01*
X117214226Y-92278200D01*
X117102950Y-92389476D01*
X117047312Y-92612028D01*
X117047312Y-93001495D01*
X117102950Y-93224047D01*
X117214226Y-93335323D01*
X117325502Y-93390961D01*
X117548055Y-93390961D01*
X117659331Y-93335323D01*
X117770607Y-93224047D01*
X117826245Y-93001495D01*
X117826245Y-92612028D01*
X117770607Y-92389476D01*
X117659331Y-92278200D01*
X117548055Y-92222561D01*
X116713483Y-92222561D02*
X116045826Y-92222561D01*
X116379655Y-93390961D02*
X116379655Y-92222561D01*
X115656360Y-92945857D02*
X114766150Y-92945857D01*
X114265407Y-92333838D02*
X114209769Y-92278200D01*
X114098493Y-92222561D01*
X113820302Y-92222561D01*
X113709026Y-92278200D01*
X113653388Y-92333838D01*
X113597750Y-92445114D01*
X113597750Y-92556390D01*
X113653388Y-92723304D01*
X114321045Y-93390961D01*
X113597750Y-93390961D01*
X113152645Y-92333838D02*
X113097007Y-92278200D01*
X112985731Y-92222561D01*
X112707540Y-92222561D01*
X112596264Y-92278200D01*
X112540626Y-92333838D01*
X112484988Y-92445114D01*
X112484988Y-92556390D01*
X112540626Y-92723304D01*
X113208283Y-93390961D01*
X112484988Y-93390961D01*
X112095521Y-92222561D02*
X111372226Y-92222561D01*
X111761693Y-92667666D01*
X111594779Y-92667666D01*
X111483502Y-92723304D01*
X111427864Y-92778942D01*
X111372226Y-92890219D01*
X111372226Y-93168409D01*
X111427864Y-93279685D01*
X111483502Y-93335323D01*
X111594779Y-93390961D01*
X111928607Y-93390961D01*
X112039883Y-93335323D01*
X112095521Y-93279685D01*
X110871483Y-92945857D02*
X109981274Y-92945857D01*
X109480531Y-92333838D02*
X109424893Y-92278200D01*
X109313617Y-92222561D01*
X109035426Y-92222561D01*
X108924150Y-92278200D01*
X108868512Y-92333838D01*
X108812874Y-92445114D01*
X108812874Y-92556390D01*
X108868512Y-92723304D01*
X109536169Y-93390961D01*
X108812874Y-93390961D01*
D13*
X132021663Y-95573216D02*
X132556715Y-95478795D01*
X132399347Y-95950900D02*
X133060294Y-95289953D01*
X132808505Y-95038164D01*
X132714084Y-95006690D01*
X132651136Y-95006690D01*
X132556715Y-95038164D01*
X132462294Y-95132585D01*
X132430821Y-95227006D01*
X132430821Y-95289953D01*
X132462294Y-95384374D01*
X132714084Y-95636163D01*
X132367873Y-94723427D02*
X132367873Y-94660480D01*
X132336400Y-94566059D01*
X132179031Y-94408690D01*
X132084610Y-94377217D01*
X132021663Y-94377217D01*
X131927242Y-94408690D01*
X131864295Y-94471638D01*
X131801347Y-94597532D01*
X131801347Y-95352900D01*
X131392190Y-94943743D01*
X131455137Y-93684796D02*
X131769874Y-93999533D01*
X131486611Y-94345743D01*
X131486611Y-94282796D01*
X131455137Y-94188375D01*
X131297769Y-94031006D01*
X131203348Y-93999533D01*
X131140401Y-93999533D01*
X131045980Y-94031006D01*
X130888611Y-94188375D01*
X130857138Y-94282796D01*
X130857138Y-94345743D01*
X130888611Y-94440164D01*
X131045980Y-94597532D01*
X131140401Y-94629006D01*
X131203348Y-94629006D01*
X182097673Y-88224369D02*
X182008652Y-88224369D01*
X181919631Y-88268880D01*
X181875121Y-88313390D01*
X181830610Y-88402411D01*
X181786100Y-88580453D01*
X181786100Y-88803005D01*
X181830610Y-88981047D01*
X181875121Y-89070068D01*
X181919631Y-89114579D01*
X182008652Y-89159089D01*
X182097673Y-89159089D01*
X182186694Y-89114579D01*
X182231205Y-89070068D01*
X182275715Y-88981047D01*
X182320226Y-88803005D01*
X182320226Y-88580453D01*
X182275715Y-88402411D01*
X182231205Y-88313390D01*
X182186694Y-88268880D01*
X182097673Y-88224369D01*
X181385506Y-89070068D02*
X181340995Y-89114579D01*
X181385506Y-89159089D01*
X181430016Y-89114579D01*
X181385506Y-89070068D01*
X181385506Y-89159089D01*
X180495296Y-88224369D02*
X180940401Y-88224369D01*
X180984911Y-88669474D01*
X180940401Y-88624963D01*
X180851380Y-88580453D01*
X180628828Y-88580453D01*
X180539807Y-88624963D01*
X180495296Y-88669474D01*
X180450786Y-88758495D01*
X180450786Y-88981047D01*
X180495296Y-89070068D01*
X180539807Y-89114579D01*
X180628828Y-89159089D01*
X180851380Y-89159089D01*
X180940401Y-89114579D01*
X180984911Y-89070068D01*
X180005681Y-89114579D02*
X180005681Y-89159089D01*
X180050191Y-89248110D01*
X180094702Y-89292620D01*
X178403304Y-89159089D02*
X178937429Y-89159089D01*
X178670367Y-89159089D02*
X178670367Y-88224369D01*
X178759388Y-88357900D01*
X178848408Y-88446921D01*
X178937429Y-88491432D01*
X177958199Y-89114579D02*
X177958199Y-89159089D01*
X178002709Y-89248110D01*
X178047220Y-89292620D01*
X176400332Y-88224369D02*
X176845437Y-88224369D01*
X176889948Y-88669474D01*
X176845437Y-88624963D01*
X176756416Y-88580453D01*
X176533864Y-88580453D01*
X176444843Y-88624963D01*
X176400332Y-88669474D01*
X176355822Y-88758495D01*
X176355822Y-88981047D01*
X176400332Y-89070068D01*
X176444843Y-89114579D01*
X176533864Y-89159089D01*
X176756416Y-89159089D01*
X176845437Y-89114579D01*
X176889948Y-89070068D01*
X175910717Y-89114579D02*
X175910717Y-89159089D01*
X175955228Y-89248110D01*
X175999738Y-89292620D01*
X174308340Y-89159089D02*
X174842466Y-89159089D01*
X174575403Y-89159089D02*
X174575403Y-88224369D01*
X174664424Y-88357900D01*
X174753445Y-88446921D01*
X174842466Y-88491432D01*
X173729704Y-88224369D02*
X173640683Y-88224369D01*
X173551662Y-88268880D01*
X173507151Y-88313390D01*
X173462641Y-88402411D01*
X173418130Y-88580453D01*
X173418130Y-88803005D01*
X173462641Y-88981047D01*
X173507151Y-89070068D01*
X173551662Y-89114579D01*
X173640683Y-89159089D01*
X173729704Y-89159089D01*
X173818725Y-89114579D01*
X173863235Y-89070068D01*
X173907746Y-88981047D01*
X173952256Y-88803005D01*
X173952256Y-88580453D01*
X173907746Y-88402411D01*
X173863235Y-88313390D01*
X173818725Y-88268880D01*
X173729704Y-88224369D01*
X172305368Y-89159089D02*
X172305368Y-88535942D01*
X172305368Y-88624963D02*
X172260858Y-88580453D01*
X172171837Y-88535942D01*
X172038306Y-88535942D01*
X171949285Y-88580453D01*
X171904774Y-88669474D01*
X171904774Y-89159089D01*
X171904774Y-88669474D02*
X171860264Y-88580453D01*
X171771243Y-88535942D01*
X171637711Y-88535942D01*
X171548690Y-88580453D01*
X171504180Y-88669474D01*
X171504180Y-89159089D01*
X171059075Y-89159089D02*
X171059075Y-88535942D01*
X171059075Y-88624963D02*
X171014565Y-88580453D01*
X170925544Y-88535942D01*
X170792012Y-88535942D01*
X170702991Y-88580453D01*
X170658481Y-88669474D01*
X170658481Y-89159089D01*
X170658481Y-88669474D02*
X170613970Y-88580453D01*
X170524949Y-88535942D01*
X170391418Y-88535942D01*
X170302397Y-88580453D01*
X170257887Y-88669474D01*
X170257887Y-89159089D01*
X106194642Y-128472474D02*
X106506215Y-128472474D01*
X106506215Y-128962089D02*
X106506215Y-128027369D01*
X106061110Y-128027369D01*
X105259922Y-128027369D02*
X105705027Y-128027369D01*
X105749537Y-128472474D01*
X105705027Y-128427963D01*
X105616006Y-128383453D01*
X105393453Y-128383453D01*
X105304432Y-128427963D01*
X105259922Y-128472474D01*
X105215411Y-128561495D01*
X105215411Y-128784047D01*
X105259922Y-128873068D01*
X105304432Y-128917579D01*
X105393453Y-128962089D01*
X105616006Y-128962089D01*
X105705027Y-128917579D01*
X105749537Y-128873068D01*
X111923890Y-113237892D02*
X112368995Y-113549466D01*
X111923890Y-113772018D02*
X112858610Y-113772018D01*
X112858610Y-113415934D01*
X112814100Y-113326913D01*
X112769589Y-113282403D01*
X112680568Y-113237892D01*
X112547037Y-113237892D01*
X112458016Y-113282403D01*
X112413505Y-113326913D01*
X112368995Y-113415934D01*
X112368995Y-113772018D01*
X111923890Y-112347683D02*
X111923890Y-112881809D01*
X111923890Y-112614746D02*
X112858610Y-112614746D01*
X112725079Y-112703767D01*
X112636058Y-112792788D01*
X112591547Y-112881809D01*
X112547037Y-111546494D02*
X111923890Y-111546494D01*
X112903120Y-111769047D02*
X112235463Y-111991599D01*
X112235463Y-111412963D01*
X134461516Y-125218643D02*
X134367095Y-124683591D01*
X134839200Y-124840959D02*
X134178253Y-124180012D01*
X133926464Y-124431801D01*
X133894990Y-124526222D01*
X133894990Y-124589170D01*
X133926464Y-124683591D01*
X134020885Y-124778012D01*
X134115306Y-124809485D01*
X134178253Y-124809485D01*
X134272674Y-124778012D01*
X134524463Y-124526222D01*
X134146779Y-125533380D02*
X134020885Y-125659274D01*
X133926464Y-125690748D01*
X133863516Y-125690748D01*
X133706148Y-125659274D01*
X133548780Y-125564853D01*
X133296990Y-125313064D01*
X133265517Y-125218643D01*
X133265517Y-125155696D01*
X133296990Y-125061275D01*
X133422885Y-124935380D01*
X133517306Y-124903906D01*
X133580253Y-124903906D01*
X133674674Y-124935380D01*
X133832043Y-125092748D01*
X133863516Y-125187169D01*
X133863516Y-125250117D01*
X133832043Y-125344538D01*
X133706148Y-125470432D01*
X133611727Y-125501906D01*
X133548780Y-125501906D01*
X133454359Y-125470432D01*
X151660890Y-128414892D02*
X152105995Y-128726466D01*
X151660890Y-128949018D02*
X152595610Y-128949018D01*
X152595610Y-128592934D01*
X152551100Y-128503913D01*
X152506589Y-128459403D01*
X152417568Y-128414892D01*
X152284037Y-128414892D01*
X152195016Y-128459403D01*
X152150505Y-128503913D01*
X152105995Y-128592934D01*
X152105995Y-128949018D01*
X151660890Y-127524683D02*
X151660890Y-128058809D01*
X151660890Y-127791746D02*
X152595610Y-127791746D01*
X152462079Y-127880767D01*
X152373058Y-127969788D01*
X152328547Y-128058809D01*
X151660890Y-127079578D02*
X151660890Y-126901536D01*
X151705400Y-126812515D01*
X151749911Y-126768005D01*
X151883442Y-126678984D01*
X152061484Y-126634473D01*
X152417568Y-126634473D01*
X152506589Y-126678984D01*
X152551100Y-126723494D01*
X152595610Y-126812515D01*
X152595610Y-126990557D01*
X152551100Y-127079578D01*
X152506589Y-127124089D01*
X152417568Y-127168599D01*
X152195016Y-127168599D01*
X152105995Y-127124089D01*
X152061484Y-127079578D01*
X152016974Y-126990557D01*
X152016974Y-126812515D01*
X152061484Y-126723494D01*
X152105995Y-126678984D01*
X152195016Y-126634473D01*
D14*
X184018645Y-110002561D02*
X183239712Y-110002561D01*
X183740455Y-111170961D01*
D16*
X182611129Y-107256597D02*
X182539913Y-107256597D01*
X182468696Y-107292206D01*
X182433088Y-107327814D01*
X182397479Y-107399031D01*
X182361871Y-107541464D01*
X182361871Y-107719506D01*
X182397479Y-107861940D01*
X182433088Y-107933156D01*
X182468696Y-107968765D01*
X182539913Y-108004373D01*
X182611129Y-108004373D01*
X182682346Y-107968765D01*
X182717955Y-107933156D01*
X182753563Y-107861940D01*
X182789171Y-107719506D01*
X182789171Y-107541464D01*
X182753563Y-107399031D01*
X182717955Y-107327814D01*
X182682346Y-107292206D01*
X182611129Y-107256597D01*
X182041395Y-107933156D02*
X182005787Y-107968765D01*
X182041395Y-108004373D01*
X182077004Y-107968765D01*
X182041395Y-107933156D01*
X182041395Y-108004373D01*
X181578486Y-107577073D02*
X181649703Y-107541464D01*
X181685312Y-107505856D01*
X181720920Y-107434639D01*
X181720920Y-107399031D01*
X181685312Y-107327814D01*
X181649703Y-107292206D01*
X181578486Y-107256597D01*
X181436053Y-107256597D01*
X181364836Y-107292206D01*
X181329228Y-107327814D01*
X181293619Y-107399031D01*
X181293619Y-107434639D01*
X181329228Y-107505856D01*
X181364836Y-107541464D01*
X181436053Y-107577073D01*
X181578486Y-107577073D01*
X181649703Y-107612681D01*
X181685312Y-107648289D01*
X181720920Y-107719506D01*
X181720920Y-107861940D01*
X181685312Y-107933156D01*
X181649703Y-107968765D01*
X181578486Y-108004373D01*
X181436053Y-108004373D01*
X181364836Y-107968765D01*
X181329228Y-107933156D01*
X181293619Y-107861940D01*
X181293619Y-107719506D01*
X181329228Y-107648289D01*
X181364836Y-107612681D01*
X181436053Y-107577073D01*
X180973144Y-108004373D02*
X180973144Y-107505856D01*
X180973144Y-107577073D02*
X180937536Y-107541464D01*
X180866319Y-107505856D01*
X180759494Y-107505856D01*
X180688277Y-107541464D01*
X180652669Y-107612681D01*
X180652669Y-108004373D01*
X180652669Y-107612681D02*
X180617060Y-107541464D01*
X180545843Y-107505856D01*
X180439018Y-107505856D01*
X180367801Y-107541464D01*
X180332193Y-107612681D01*
X180332193Y-108004373D01*
X179976109Y-108004373D02*
X179976109Y-107505856D01*
X179976109Y-107577073D02*
X179940501Y-107541464D01*
X179869284Y-107505856D01*
X179762459Y-107505856D01*
X179691242Y-107541464D01*
X179655634Y-107612681D01*
X179655634Y-108004373D01*
X179655634Y-107612681D02*
X179620025Y-107541464D01*
X179548809Y-107505856D01*
X179441984Y-107505856D01*
X179370767Y-107541464D01*
X179335158Y-107612681D01*
X179335158Y-108004373D01*
X178409341Y-108004373D02*
X178409341Y-107256597D01*
X178124473Y-107256597D01*
X178053257Y-107292206D01*
X178017648Y-107327814D01*
X177982040Y-107399031D01*
X177982040Y-107505856D01*
X178017648Y-107577073D01*
X178053257Y-107612681D01*
X178124473Y-107648289D01*
X178409341Y-107648289D01*
X177661565Y-108004373D02*
X177661565Y-107505856D01*
X177661565Y-107256597D02*
X177697173Y-107292206D01*
X177661565Y-107327814D01*
X177625956Y-107292206D01*
X177661565Y-107256597D01*
X177661565Y-107327814D01*
X177412306Y-107505856D02*
X177127439Y-107505856D01*
X177305481Y-107256597D02*
X177305481Y-107897548D01*
X177269872Y-107968765D01*
X177198656Y-108004373D01*
X177127439Y-108004373D01*
X176557705Y-107968765D02*
X176628921Y-108004373D01*
X176771355Y-108004373D01*
X176842572Y-107968765D01*
X176878180Y-107933156D01*
X176913789Y-107861940D01*
X176913789Y-107648289D01*
X176878180Y-107577073D01*
X176842572Y-107541464D01*
X176771355Y-107505856D01*
X176628921Y-107505856D01*
X176557705Y-107541464D01*
X176237229Y-108004373D02*
X176237229Y-107256597D01*
X175916754Y-108004373D02*
X175916754Y-107612681D01*
X175952362Y-107541464D01*
X176023579Y-107505856D01*
X176130404Y-107505856D01*
X176201621Y-107541464D01*
X176237229Y-107577073D01*
D13*
X165660890Y-110914892D02*
X166105995Y-111226466D01*
X165660890Y-111449018D02*
X166595610Y-111449018D01*
X166595610Y-111092934D01*
X166551100Y-111003913D01*
X166506589Y-110959403D01*
X166417568Y-110914892D01*
X166284037Y-110914892D01*
X166195016Y-110959403D01*
X166150505Y-111003913D01*
X166105995Y-111092934D01*
X166105995Y-111449018D01*
X166595610Y-110603319D02*
X166595610Y-110024683D01*
X166239526Y-110336256D01*
X166239526Y-110202725D01*
X166195016Y-110113704D01*
X166150505Y-110069193D01*
X166061484Y-110024683D01*
X165838932Y-110024683D01*
X165749911Y-110069193D01*
X165705400Y-110113704D01*
X165660890Y-110202725D01*
X165660890Y-110469788D01*
X165705400Y-110558809D01*
X165749911Y-110603319D01*
X166506589Y-109668599D02*
X166551100Y-109624089D01*
X166595610Y-109535068D01*
X166595610Y-109312515D01*
X166551100Y-109223494D01*
X166506589Y-109178984D01*
X166417568Y-109134473D01*
X166328547Y-109134473D01*
X166195016Y-109178984D01*
X165660890Y-109713110D01*
X165660890Y-109134473D01*
X127163890Y-112983892D02*
X127608995Y-113295466D01*
X127163890Y-113518018D02*
X128098610Y-113518018D01*
X128098610Y-113161934D01*
X128054100Y-113072913D01*
X128009589Y-113028403D01*
X127920568Y-112983892D01*
X127787037Y-112983892D01*
X127698016Y-113028403D01*
X127653505Y-113072913D01*
X127608995Y-113161934D01*
X127608995Y-113518018D01*
X127163890Y-112093683D02*
X127163890Y-112627809D01*
X127163890Y-112360746D02*
X128098610Y-112360746D01*
X127965079Y-112449767D01*
X127876058Y-112538788D01*
X127831547Y-112627809D01*
X128098610Y-111515047D02*
X128098610Y-111426026D01*
X128054100Y-111337005D01*
X128009589Y-111292494D01*
X127920568Y-111247984D01*
X127742526Y-111203473D01*
X127519974Y-111203473D01*
X127341932Y-111247984D01*
X127252911Y-111292494D01*
X127208400Y-111337005D01*
X127163890Y-111426026D01*
X127163890Y-111515047D01*
X127208400Y-111604068D01*
X127252911Y-111648578D01*
X127341932Y-111693089D01*
X127519974Y-111737599D01*
X127742526Y-111737599D01*
X127920568Y-111693089D01*
X128009589Y-111648578D01*
X128054100Y-111604068D01*
X128098610Y-111515047D01*
X133291663Y-94303216D02*
X133826715Y-94208795D01*
X133669347Y-94680900D02*
X134330294Y-94019953D01*
X134078505Y-93768164D01*
X133984084Y-93736690D01*
X133921136Y-93736690D01*
X133826715Y-93768164D01*
X133732294Y-93862585D01*
X133700821Y-93957006D01*
X133700821Y-94019953D01*
X133732294Y-94114374D01*
X133984084Y-94366163D01*
X133637873Y-93453427D02*
X133637873Y-93390480D01*
X133606400Y-93296059D01*
X133449031Y-93138690D01*
X133354610Y-93107217D01*
X133291663Y-93107217D01*
X133197242Y-93138690D01*
X133134295Y-93201638D01*
X133071347Y-93327532D01*
X133071347Y-94082900D01*
X132662190Y-93673743D01*
X132756611Y-92446270D02*
X132882506Y-92572164D01*
X132913979Y-92666585D01*
X132913979Y-92729533D01*
X132882506Y-92886901D01*
X132788085Y-93044269D01*
X132536295Y-93296059D01*
X132441874Y-93327532D01*
X132378927Y-93327532D01*
X132284506Y-93296059D01*
X132158611Y-93170164D01*
X132127138Y-93075743D01*
X132127138Y-93012796D01*
X132158611Y-92918375D01*
X132315980Y-92761006D01*
X132410401Y-92729533D01*
X132473348Y-92729533D01*
X132567769Y-92761006D01*
X132693664Y-92886901D01*
X132725137Y-92981322D01*
X132725137Y-93044269D01*
X132693664Y-93138690D01*
D14*
X176754850Y-123045461D02*
X177422507Y-123045461D01*
X177088679Y-123045461D02*
X177088679Y-121877061D01*
X177199955Y-122043976D01*
X177311231Y-122155252D01*
X177422507Y-122210890D01*
X175642088Y-123045461D02*
X176309745Y-123045461D01*
X175975917Y-123045461D02*
X175975917Y-121877061D01*
X176087193Y-122043976D01*
X176198469Y-122155252D01*
X176309745Y-122210890D01*
D13*
X148341163Y-94112716D02*
X148876215Y-94018295D01*
X148718847Y-94490400D02*
X149379794Y-93829453D01*
X149128005Y-93577664D01*
X149033584Y-93546190D01*
X148970636Y-93546190D01*
X148876215Y-93577664D01*
X148781794Y-93672085D01*
X148750321Y-93766506D01*
X148750321Y-93829453D01*
X148781794Y-93923874D01*
X149033584Y-94175663D01*
X148687373Y-93262927D02*
X148687373Y-93199980D01*
X148655900Y-93105559D01*
X148498531Y-92948190D01*
X148404110Y-92916717D01*
X148341163Y-92916717D01*
X148246742Y-92948190D01*
X148183795Y-93011138D01*
X148120847Y-93137032D01*
X148120847Y-93892400D01*
X147711690Y-93483243D01*
X147585795Y-92476085D02*
X147145164Y-92916717D01*
X147994953Y-92381664D02*
X147680216Y-93011138D01*
X147271059Y-92601980D01*
X138371663Y-89223216D02*
X138906715Y-89128795D01*
X138749347Y-89600900D02*
X139410294Y-88939953D01*
X139158505Y-88688164D01*
X139064084Y-88656690D01*
X139001136Y-88656690D01*
X138906715Y-88688164D01*
X138812294Y-88782585D01*
X138780821Y-88877006D01*
X138780821Y-88939953D01*
X138812294Y-89034374D01*
X139064084Y-89286163D01*
X138812294Y-88341953D02*
X138403137Y-87932796D01*
X138371663Y-88404901D01*
X138277242Y-88310480D01*
X138182821Y-88279006D01*
X138119874Y-88279006D01*
X138025453Y-88310480D01*
X137868085Y-88467848D01*
X137836611Y-88562269D01*
X137836611Y-88625216D01*
X137868085Y-88719637D01*
X138056926Y-88908479D01*
X138151347Y-88939953D01*
X138214295Y-88939953D01*
X137993979Y-87523638D02*
X137931032Y-87460691D01*
X137836611Y-87429217D01*
X137773664Y-87429217D01*
X137679243Y-87460691D01*
X137521874Y-87555112D01*
X137364506Y-87712480D01*
X137270085Y-87869848D01*
X137238611Y-87964269D01*
X137238611Y-88027217D01*
X137270085Y-88121638D01*
X137333032Y-88184585D01*
X137427453Y-88216059D01*
X137490401Y-88216059D01*
X137584822Y-88184585D01*
X137742190Y-88090164D01*
X137899558Y-87932796D01*
X137993979Y-87775427D01*
X138025453Y-87681006D01*
X138025453Y-87618059D01*
X137993979Y-87523638D01*
X123190038Y-99027338D02*
X123101017Y-99027338D01*
X123011996Y-99071849D01*
X122967486Y-99116359D01*
X122922975Y-99205380D01*
X122878465Y-99383422D01*
X122878465Y-99605974D01*
X122922975Y-99784016D01*
X122967486Y-99873037D01*
X123011996Y-99917548D01*
X123101017Y-99962058D01*
X123190038Y-99962058D01*
X123279059Y-99917548D01*
X123323570Y-99873037D01*
X123368080Y-99784016D01*
X123412591Y-99605974D01*
X123412591Y-99383422D01*
X123368080Y-99205380D01*
X123323570Y-99116359D01*
X123279059Y-99071849D01*
X123190038Y-99027338D01*
X122344339Y-99427932D02*
X122433360Y-99383422D01*
X122477871Y-99338911D01*
X122522381Y-99249890D01*
X122522381Y-99205380D01*
X122477871Y-99116359D01*
X122433360Y-99071849D01*
X122344339Y-99027338D01*
X122166297Y-99027338D01*
X122077276Y-99071849D01*
X122032766Y-99116359D01*
X121988255Y-99205380D01*
X121988255Y-99249890D01*
X122032766Y-99338911D01*
X122077276Y-99383422D01*
X122166297Y-99427932D01*
X122344339Y-99427932D01*
X122433360Y-99472443D01*
X122477871Y-99516953D01*
X122522381Y-99605974D01*
X122522381Y-99784016D01*
X122477871Y-99873037D01*
X122433360Y-99917548D01*
X122344339Y-99962058D01*
X122166297Y-99962058D01*
X122077276Y-99917548D01*
X122032766Y-99873037D01*
X121988255Y-99784016D01*
X121988255Y-99605974D01*
X122032766Y-99516953D01*
X122077276Y-99472443D01*
X122166297Y-99427932D01*
X121409619Y-99027338D02*
X121320598Y-99027338D01*
X121231577Y-99071849D01*
X121187067Y-99116359D01*
X121142556Y-99205380D01*
X121098046Y-99383422D01*
X121098046Y-99605974D01*
X121142556Y-99784016D01*
X121187067Y-99873037D01*
X121231577Y-99917548D01*
X121320598Y-99962058D01*
X121409619Y-99962058D01*
X121498640Y-99917548D01*
X121543151Y-99873037D01*
X121587661Y-99784016D01*
X121632172Y-99605974D01*
X121632172Y-99383422D01*
X121587661Y-99205380D01*
X121543151Y-99116359D01*
X121498640Y-99071849D01*
X121409619Y-99027338D01*
X120252347Y-99027338D02*
X120697452Y-99027338D01*
X120741962Y-99472443D01*
X120697452Y-99427932D01*
X120608431Y-99383422D01*
X120385878Y-99383422D01*
X120296857Y-99427932D01*
X120252347Y-99472443D01*
X120207836Y-99561464D01*
X120207836Y-99784016D01*
X120252347Y-99873037D01*
X120296857Y-99917548D01*
X120385878Y-99962058D01*
X120608431Y-99962058D01*
X120697452Y-99917548D01*
X120741962Y-99873037D01*
X148160890Y-128414892D02*
X148605995Y-128726466D01*
X148160890Y-128949018D02*
X149095610Y-128949018D01*
X149095610Y-128592934D01*
X149051100Y-128503913D01*
X149006589Y-128459403D01*
X148917568Y-128414892D01*
X148784037Y-128414892D01*
X148695016Y-128459403D01*
X148650505Y-128503913D01*
X148605995Y-128592934D01*
X148605995Y-128949018D01*
X148160890Y-127524683D02*
X148160890Y-128058809D01*
X148160890Y-127791746D02*
X149095610Y-127791746D01*
X148962079Y-127880767D01*
X148873058Y-127969788D01*
X148828547Y-128058809D01*
X148695016Y-126990557D02*
X148739526Y-127079578D01*
X148784037Y-127124089D01*
X148873058Y-127168599D01*
X148917568Y-127168599D01*
X149006589Y-127124089D01*
X149051100Y-127079578D01*
X149095610Y-126990557D01*
X149095610Y-126812515D01*
X149051100Y-126723494D01*
X149006589Y-126678984D01*
X148917568Y-126634473D01*
X148873058Y-126634473D01*
X148784037Y-126678984D01*
X148739526Y-126723494D01*
X148695016Y-126812515D01*
X148695016Y-126990557D01*
X148650505Y-127079578D01*
X148605995Y-127124089D01*
X148516974Y-127168599D01*
X148338932Y-127168599D01*
X148249911Y-127124089D01*
X148205400Y-127079578D01*
X148160890Y-126990557D01*
X148160890Y-126812515D01*
X148205400Y-126723494D01*
X148249911Y-126678984D01*
X148338932Y-126634473D01*
X148516974Y-126634473D01*
X148605995Y-126678984D01*
X148650505Y-126723494D01*
X148695016Y-126812515D01*
X148160890Y-110914892D02*
X148605995Y-111226466D01*
X148160890Y-111449018D02*
X149095610Y-111449018D01*
X149095610Y-111092934D01*
X149051100Y-111003913D01*
X149006589Y-110959403D01*
X148917568Y-110914892D01*
X148784037Y-110914892D01*
X148695016Y-110959403D01*
X148650505Y-111003913D01*
X148605995Y-111092934D01*
X148605995Y-111449018D01*
X149006589Y-110558809D02*
X149051100Y-110514298D01*
X149095610Y-110425277D01*
X149095610Y-110202725D01*
X149051100Y-110113704D01*
X149006589Y-110069193D01*
X148917568Y-110024683D01*
X148828547Y-110024683D01*
X148695016Y-110069193D01*
X148160890Y-110603319D01*
X148160890Y-110024683D01*
X149095610Y-109178984D02*
X149095610Y-109624089D01*
X148650505Y-109668599D01*
X148695016Y-109624089D01*
X148739526Y-109535068D01*
X148739526Y-109312515D01*
X148695016Y-109223494D01*
X148650505Y-109178984D01*
X148561484Y-109134473D01*
X148338932Y-109134473D01*
X148249911Y-109178984D01*
X148205400Y-109223494D01*
X148160890Y-109312515D01*
X148160890Y-109535068D01*
X148205400Y-109624089D01*
X148249911Y-109668599D01*
X112616963Y-122639626D02*
X113152015Y-122545205D01*
X112994647Y-123017310D02*
X113655594Y-122356363D01*
X113403805Y-122104574D01*
X113309384Y-122073100D01*
X113246436Y-122073100D01*
X113152015Y-122104574D01*
X113057594Y-122198995D01*
X113026121Y-122293416D01*
X113026121Y-122356363D01*
X113057594Y-122450784D01*
X113309384Y-122702573D01*
X111987490Y-122010153D02*
X112365174Y-122387836D01*
X112176332Y-122198995D02*
X112837279Y-121538048D01*
X112805805Y-121695416D01*
X112805805Y-121821311D01*
X112837279Y-121915732D01*
X112050437Y-120751206D02*
X112365174Y-121065943D01*
X112081911Y-121412153D01*
X112081911Y-121349206D01*
X112050437Y-121254785D01*
X111893069Y-121097416D01*
X111798648Y-121065943D01*
X111735701Y-121065943D01*
X111641280Y-121097416D01*
X111483911Y-121254785D01*
X111452438Y-121349206D01*
X111452438Y-121412153D01*
X111483911Y-121506574D01*
X111641280Y-121663942D01*
X111735701Y-121695416D01*
X111798648Y-121695416D01*
D14*
X172067444Y-114347961D02*
X171956168Y-114347961D01*
X171844892Y-114403600D01*
X171789254Y-114459238D01*
X171733616Y-114570514D01*
X171677978Y-114793066D01*
X171677978Y-115071257D01*
X171733616Y-115293809D01*
X171789254Y-115405085D01*
X171844892Y-115460723D01*
X171956168Y-115516361D01*
X172067444Y-115516361D01*
X172178720Y-115460723D01*
X172234359Y-115405085D01*
X172289997Y-115293809D01*
X172345635Y-115071257D01*
X172345635Y-114793066D01*
X172289997Y-114570514D01*
X172234359Y-114459238D01*
X172178720Y-114403600D01*
X172067444Y-114347961D01*
X171010320Y-114848704D02*
X171121597Y-114793066D01*
X171177235Y-114737428D01*
X171232873Y-114626152D01*
X171232873Y-114570514D01*
X171177235Y-114459238D01*
X171121597Y-114403600D01*
X171010320Y-114347961D01*
X170787768Y-114347961D01*
X170676492Y-114403600D01*
X170620854Y-114459238D01*
X170565216Y-114570514D01*
X170565216Y-114626152D01*
X170620854Y-114737428D01*
X170676492Y-114793066D01*
X170787768Y-114848704D01*
X171010320Y-114848704D01*
X171121597Y-114904342D01*
X171177235Y-114959980D01*
X171232873Y-115071257D01*
X171232873Y-115293809D01*
X171177235Y-115405085D01*
X171121597Y-115460723D01*
X171010320Y-115516361D01*
X170787768Y-115516361D01*
X170676492Y-115460723D01*
X170620854Y-115405085D01*
X170565216Y-115293809D01*
X170565216Y-115071257D01*
X170620854Y-114959980D01*
X170676492Y-114904342D01*
X170787768Y-114848704D01*
X169841920Y-114347961D02*
X169730644Y-114347961D01*
X169619368Y-114403600D01*
X169563730Y-114459238D01*
X169508092Y-114570514D01*
X169452454Y-114793066D01*
X169452454Y-115071257D01*
X169508092Y-115293809D01*
X169563730Y-115405085D01*
X169619368Y-115460723D01*
X169730644Y-115516361D01*
X169841920Y-115516361D01*
X169953197Y-115460723D01*
X170008835Y-115405085D01*
X170064473Y-115293809D01*
X170120111Y-115071257D01*
X170120111Y-114793066D01*
X170064473Y-114570514D01*
X170008835Y-114459238D01*
X169953197Y-114403600D01*
X169841920Y-114347961D01*
X168395330Y-114347961D02*
X168951711Y-114347961D01*
X169007349Y-114904342D01*
X168951711Y-114848704D01*
X168840435Y-114793066D01*
X168562244Y-114793066D01*
X168450968Y-114848704D01*
X168395330Y-114904342D01*
X168339692Y-115015619D01*
X168339692Y-115293809D01*
X168395330Y-115405085D01*
X168450968Y-115460723D01*
X168562244Y-115516361D01*
X168840435Y-115516361D01*
X168951711Y-115460723D01*
X169007349Y-115405085D01*
D13*
X139177469Y-102828951D02*
X139712521Y-102734530D01*
X139555153Y-103206635D02*
X140216100Y-102545688D01*
X139964311Y-102293899D01*
X139869890Y-102262425D01*
X139806942Y-102262425D01*
X139712521Y-102293899D01*
X139618100Y-102388320D01*
X139586627Y-102482741D01*
X139586627Y-102545688D01*
X139618100Y-102640109D01*
X139869890Y-102891898D01*
X138547996Y-102199478D02*
X138925680Y-102577161D01*
X138736838Y-102388320D02*
X139397785Y-101727373D01*
X139366311Y-101884741D01*
X139366311Y-102010636D01*
X139397785Y-102105057D01*
X138988627Y-101318215D02*
X138547996Y-100877584D01*
X138170312Y-101821794D01*
X165660890Y-118914892D02*
X166105995Y-119226466D01*
X165660890Y-119449018D02*
X166595610Y-119449018D01*
X166595610Y-119092934D01*
X166551100Y-119003913D01*
X166506589Y-118959403D01*
X166417568Y-118914892D01*
X166284037Y-118914892D01*
X166195016Y-118959403D01*
X166150505Y-119003913D01*
X166105995Y-119092934D01*
X166105995Y-119449018D01*
X166506589Y-118558809D02*
X166551100Y-118514298D01*
X166595610Y-118425277D01*
X166595610Y-118202725D01*
X166551100Y-118113704D01*
X166506589Y-118069193D01*
X166417568Y-118024683D01*
X166328547Y-118024683D01*
X166195016Y-118069193D01*
X165660890Y-118603319D01*
X165660890Y-118024683D01*
X166595610Y-117713110D02*
X166595610Y-117134473D01*
X166239526Y-117446047D01*
X166239526Y-117312515D01*
X166195016Y-117223494D01*
X166150505Y-117178984D01*
X166061484Y-117134473D01*
X165838932Y-117134473D01*
X165749911Y-117178984D01*
X165705400Y-117223494D01*
X165660890Y-117312515D01*
X165660890Y-117579578D01*
X165705400Y-117668599D01*
X165749911Y-117713110D01*
X153160890Y-103414892D02*
X153605995Y-103726466D01*
X153160890Y-103949018D02*
X154095610Y-103949018D01*
X154095610Y-103592934D01*
X154051100Y-103503913D01*
X154006589Y-103459403D01*
X153917568Y-103414892D01*
X153784037Y-103414892D01*
X153695016Y-103459403D01*
X153650505Y-103503913D01*
X153605995Y-103592934D01*
X153605995Y-103949018D01*
X153160890Y-102524683D02*
X153160890Y-103058809D01*
X153160890Y-102791746D02*
X154095610Y-102791746D01*
X153962079Y-102880767D01*
X153873058Y-102969788D01*
X153828547Y-103058809D01*
X153160890Y-102079578D02*
X153160890Y-101901536D01*
X153205400Y-101812515D01*
X153249911Y-101768005D01*
X153383442Y-101678984D01*
X153561484Y-101634473D01*
X153917568Y-101634473D01*
X154006589Y-101678984D01*
X154051100Y-101723494D01*
X154095610Y-101812515D01*
X154095610Y-101990557D01*
X154051100Y-102079578D01*
X154006589Y-102124089D01*
X153917568Y-102168599D01*
X153695016Y-102168599D01*
X153605995Y-102124089D01*
X153561484Y-102079578D01*
X153516974Y-101990557D01*
X153516974Y-101812515D01*
X153561484Y-101723494D01*
X153605995Y-101678984D01*
X153695016Y-101634473D01*
X139641663Y-87953216D02*
X140176715Y-87858795D01*
X140019347Y-88330900D02*
X140680294Y-87669953D01*
X140428505Y-87418164D01*
X140334084Y-87386690D01*
X140271136Y-87386690D01*
X140176715Y-87418164D01*
X140082294Y-87512585D01*
X140050821Y-87607006D01*
X140050821Y-87669953D01*
X140082294Y-87764374D01*
X140334084Y-88016163D01*
X140082294Y-87071953D02*
X139673137Y-86662796D01*
X139641663Y-87134901D01*
X139547242Y-87040480D01*
X139452821Y-87009006D01*
X139389874Y-87009006D01*
X139295453Y-87040480D01*
X139138085Y-87197848D01*
X139106611Y-87292269D01*
X139106611Y-87355216D01*
X139138085Y-87449637D01*
X139326926Y-87638479D01*
X139421347Y-87669953D01*
X139484295Y-87669953D01*
X138382717Y-86694269D02*
X138760401Y-87071953D01*
X138571559Y-86883111D02*
X139232506Y-86222164D01*
X139201032Y-86379533D01*
X139201032Y-86505427D01*
X139232506Y-86599848D01*
D17*
%TO.C,TQFP-32-2*%
X175546100Y-103908600D02*
X182556100Y-103908600D01*
X182556100Y-103908600D02*
X182556100Y-97253600D01*
X175546100Y-96898600D02*
X175546100Y-103908600D01*
X182201100Y-96898600D02*
X182556100Y-97253600D01*
X182201100Y-96898600D02*
X175546100Y-96898600D01*
X182153500Y-97660400D02*
G75*
G03*
X182153500Y-97660400I-359200J0D01*
G01*
%TO.C,SOT-23-9*%
X187617877Y-121096248D02*
X187222977Y-121780235D01*
X188645377Y-119316565D02*
X188262977Y-119978902D01*
X187222977Y-121780235D02*
X188054708Y-122260435D01*
X189477108Y-119796765D02*
X188645377Y-119316565D01*
D11*
%TO.C,SOT-251-2*%
X122715700Y-90680200D02*
X128710100Y-90680600D01*
X128710100Y-84126600D02*
X122715700Y-84127000D01*
X128710100Y-90680600D02*
X128710100Y-84126600D01*
G36*
X129573700Y-87835400D02*
G01*
X128811700Y-87835400D01*
X128811700Y-86971800D01*
X129573700Y-86971800D01*
X129573700Y-87835400D01*
G37*
%TO.C,SOT-223-2*%
X110774500Y-85752600D02*
X110774500Y-89054600D01*
X117327700Y-89054600D02*
X117327700Y-85752600D01*
X110774500Y-89054600D02*
X117327700Y-89054600D01*
X117327700Y-85752600D02*
X110774500Y-85752600D01*
D17*
%TO.C,SOT-23-11*%
X180899223Y-121780235D02*
X180516823Y-121117898D01*
X179871723Y-120000552D02*
X179476823Y-119316565D01*
X180067492Y-122260435D02*
X180899223Y-121780235D01*
X179476823Y-119316565D02*
X178645092Y-119796765D01*
%TO.C,SOT-23-10*%
X185483500Y-123718600D02*
X185483500Y-122758200D01*
X183428500Y-122758200D02*
X182638700Y-122758200D01*
X185483500Y-122758200D02*
X184718700Y-122758200D01*
X182638700Y-122758200D02*
X182638700Y-123718600D01*
%TO.C,SOT-23-8*%
X188645377Y-117360635D02*
X189477108Y-116880435D01*
X187222977Y-114896965D02*
X187605377Y-115559302D01*
X188250477Y-116676648D02*
X188645377Y-117360635D01*
X188054708Y-114416765D02*
X187222977Y-114896965D01*
%TO.C,SOT-23-7*%
X182638700Y-112958600D02*
X182638700Y-113919000D01*
X182638700Y-113919000D02*
X183403500Y-113919000D01*
X185483500Y-113919000D02*
X185483500Y-112958600D01*
X184693700Y-113919000D02*
X185483500Y-113919000D01*
%TO.C,SOT-23-12*%
X179476823Y-117360635D02*
X179859223Y-116698298D01*
X178645092Y-116880435D02*
X179476823Y-117360635D01*
X180504323Y-115580952D02*
X180899223Y-114896965D01*
X180899223Y-114896965D02*
X180067492Y-114416765D01*
%TD*%
M02*
