%TF.GenerationSoftware,KiCad,Pcbnew,6.0.11-2627ca5db0~126~ubuntu20.04.1*%
%TF.CreationDate,2023-07-21T22:08:41+02:00*%
%TF.ProjectId,Demo Board v2,44656d6f-2042-46f6-9172-642076322e6b,rev?*%
%TF.SameCoordinates,Original*%
%TF.FileFunction,Legend,Top*%
%TF.FilePolarity,Positive*%
%FSLAX46Y46*%
G04 Gerber Fmt 4.6, Leading zero omitted, Abs format (unit mm)*
G04 Created by KiCad (PCBNEW 6.0.11-2627ca5db0~126~ubuntu20.04.1) date 2023-07-21 22:08:41*
%MOMM*%
%LPD*%
G01*
G04 APERTURE LIST*
%ADD10C,0.203200*%
%ADD11C,0.100000*%
%ADD12C,0.101600*%
%ADD13C,0.081280*%
%ADD14C,0.065024*%
%ADD15C,0.152400*%
%ADD16C,0.308864*%
%ADD17C,0.154432*%
%ADD18C,0.010000*%
%ADD19C,0.127000*%
%ADD20C,0.050800*%
G04 APERTURE END LIST*
D10*
X137071100Y-112623600D02*
G75*
G03*
X137071100Y-112623600I-15240000J0D01*
G01*
D11*
X184301100Y-96153600D02*
X186301100Y-96153600D01*
D10*
X129451100Y-112623600D02*
G75*
G03*
X129451100Y-112623600I-7620000J0D01*
G01*
D11*
X147551100Y-116403600D02*
X152051100Y-116403600D01*
D10*
X133261100Y-112623600D02*
G75*
G03*
X133261100Y-112623600I-11430000J0D01*
G01*
D11*
X179551100Y-111403600D02*
X181051100Y-111403600D01*
X114051100Y-86653600D02*
X114051100Y-88153600D01*
X180301100Y-110653600D02*
X180301100Y-112153600D01*
X165551100Y-123403600D02*
X167051100Y-124903600D01*
X149801100Y-114403600D02*
X149801100Y-118403600D01*
X140551100Y-95903600D02*
X138551100Y-93903600D01*
X113051100Y-87403600D02*
X115051100Y-87403600D01*
D10*
X125423200Y-112623600D02*
G75*
G03*
X125423200Y-112623600I-3592100J0D01*
G01*
D11*
X138551100Y-95903600D02*
X140551100Y-93903600D01*
X171501100Y-96653600D02*
X171501100Y-98153600D01*
X165551100Y-124903600D02*
X167051100Y-123403600D01*
X170751100Y-97403600D02*
X172251100Y-97403600D01*
X185301100Y-95153600D02*
X185301100Y-97153600D01*
D12*
X177999692Y-122672323D02*
X178166606Y-122727961D01*
X178444797Y-122727961D01*
X178556073Y-122672323D01*
X178611711Y-122616685D01*
X178667349Y-122505409D01*
X178667349Y-122394133D01*
X178611711Y-122282857D01*
X178556073Y-122227219D01*
X178444797Y-122171580D01*
X178222244Y-122115942D01*
X178110968Y-122060304D01*
X178055330Y-122004666D01*
X177999692Y-121893390D01*
X177999692Y-121782114D01*
X178055330Y-121670838D01*
X178110968Y-121615200D01*
X178222244Y-121559561D01*
X178500435Y-121559561D01*
X178667349Y-121615200D01*
X179390644Y-121559561D02*
X179613197Y-121559561D01*
X179724473Y-121615200D01*
X179835749Y-121726476D01*
X179891387Y-121949028D01*
X179891387Y-122338495D01*
X179835749Y-122561047D01*
X179724473Y-122672323D01*
X179613197Y-122727961D01*
X179390644Y-122727961D01*
X179279368Y-122672323D01*
X179168092Y-122561047D01*
X179112454Y-122338495D01*
X179112454Y-121949028D01*
X179168092Y-121726476D01*
X179279368Y-121615200D01*
X179390644Y-121559561D01*
X180225216Y-121559561D02*
X180892873Y-121559561D01*
X180559044Y-122727961D02*
X180559044Y-121559561D01*
X181226701Y-121670838D02*
X181282340Y-121615200D01*
X181393616Y-121559561D01*
X181671806Y-121559561D01*
X181783082Y-121615200D01*
X181838720Y-121670838D01*
X181894359Y-121782114D01*
X181894359Y-121893390D01*
X181838720Y-122060304D01*
X181171063Y-122727961D01*
X181894359Y-122727961D01*
X182283825Y-121559561D02*
X183007120Y-121559561D01*
X182617654Y-122004666D01*
X182784568Y-122004666D01*
X182895844Y-122060304D01*
X182951482Y-122115942D01*
X183007120Y-122227219D01*
X183007120Y-122505409D01*
X182951482Y-122616685D01*
X182895844Y-122672323D01*
X182784568Y-122727961D01*
X182450740Y-122727961D01*
X182339463Y-122672323D01*
X182283825Y-122616685D01*
D13*
X116100110Y-113087089D02*
X115788536Y-112641984D01*
X115565984Y-113087089D02*
X115565984Y-112152369D01*
X115922068Y-112152369D01*
X116011089Y-112196880D01*
X116055599Y-112241390D01*
X116100110Y-112330411D01*
X116100110Y-112463942D01*
X116055599Y-112552963D01*
X116011089Y-112597474D01*
X115922068Y-112641984D01*
X115565984Y-112641984D01*
X116411683Y-112152369D02*
X117034830Y-112152369D01*
X116634235Y-113087089D01*
X120233454Y-106598473D02*
X120322475Y-106598473D01*
X120411496Y-106642984D01*
X120456006Y-106687494D01*
X120500517Y-106776515D01*
X120545027Y-106954557D01*
X120545027Y-107177109D01*
X120500517Y-107355151D01*
X120456006Y-107444172D01*
X120411496Y-107488683D01*
X120322475Y-107533193D01*
X120233454Y-107533193D01*
X120144433Y-107488683D01*
X120099922Y-107444172D01*
X120055412Y-107355151D01*
X120010901Y-107177109D01*
X120010901Y-106954557D01*
X120055412Y-106776515D01*
X120099922Y-106687494D01*
X120144433Y-106642984D01*
X120233454Y-106598473D01*
X121346216Y-106910046D02*
X121346216Y-107533193D01*
X121123663Y-106553963D02*
X120901111Y-107221620D01*
X121479747Y-107221620D01*
X122013873Y-106598473D02*
X122102894Y-106598473D01*
X122191915Y-106642984D01*
X122236425Y-106687494D01*
X122280936Y-106776515D01*
X122325446Y-106954557D01*
X122325446Y-107177109D01*
X122280936Y-107355151D01*
X122236425Y-107444172D01*
X122191915Y-107488683D01*
X122102894Y-107533193D01*
X122013873Y-107533193D01*
X121924852Y-107488683D01*
X121880341Y-107444172D01*
X121835831Y-107355151D01*
X121791320Y-107177109D01*
X121791320Y-106954557D01*
X121835831Y-106776515D01*
X121880341Y-106687494D01*
X121924852Y-106642984D01*
X122013873Y-106598473D01*
X122681530Y-106687494D02*
X122726040Y-106642984D01*
X122815061Y-106598473D01*
X123037614Y-106598473D01*
X123126635Y-106642984D01*
X123171145Y-106687494D01*
X123215656Y-106776515D01*
X123215656Y-106865536D01*
X123171145Y-106999067D01*
X122637020Y-107533193D01*
X123215656Y-107533193D01*
X105467089Y-112449089D02*
X105021984Y-112760663D01*
X105467089Y-112983215D02*
X104532369Y-112983215D01*
X104532369Y-112627131D01*
X104576880Y-112538110D01*
X104621390Y-112493600D01*
X104710411Y-112449089D01*
X104843942Y-112449089D01*
X104932963Y-112493600D01*
X104977474Y-112538110D01*
X105021984Y-112627131D01*
X105021984Y-112983215D01*
X104532369Y-112137516D02*
X104532369Y-111514369D01*
X105467089Y-111914964D01*
X109559610Y-125279089D02*
X109248036Y-124833984D01*
X109025484Y-125279089D02*
X109025484Y-124344369D01*
X109381568Y-124344369D01*
X109470589Y-124388880D01*
X109515099Y-124433390D01*
X109559610Y-124522411D01*
X109559610Y-124655942D01*
X109515099Y-124744963D01*
X109470589Y-124789474D01*
X109381568Y-124833984D01*
X109025484Y-124833984D01*
X110360798Y-124344369D02*
X110182756Y-124344369D01*
X110093735Y-124388880D01*
X110049225Y-124433390D01*
X109960204Y-124566921D01*
X109915693Y-124744963D01*
X109915693Y-125101047D01*
X109960204Y-125190068D01*
X110004714Y-125234579D01*
X110093735Y-125279089D01*
X110271777Y-125279089D01*
X110360798Y-125234579D01*
X110405309Y-125190068D01*
X110449819Y-125101047D01*
X110449819Y-124878495D01*
X110405309Y-124789474D01*
X110360798Y-124744963D01*
X110271777Y-124700453D01*
X110093735Y-124700453D01*
X110004714Y-124744963D01*
X109960204Y-124789474D01*
X109915693Y-124878495D01*
X126323610Y-108896089D02*
X126012036Y-108450984D01*
X125789484Y-108896089D02*
X125789484Y-107961369D01*
X126145568Y-107961369D01*
X126234589Y-108005880D01*
X126279099Y-108050390D01*
X126323610Y-108139411D01*
X126323610Y-108272942D01*
X126279099Y-108361963D01*
X126234589Y-108406474D01*
X126145568Y-108450984D01*
X125789484Y-108450984D01*
X126679693Y-108050390D02*
X126724204Y-108005880D01*
X126813225Y-107961369D01*
X127035777Y-107961369D01*
X127124798Y-108005880D01*
X127169309Y-108050390D01*
X127213819Y-108139411D01*
X127213819Y-108228432D01*
X127169309Y-108361963D01*
X126635183Y-108896089D01*
X127213819Y-108896089D01*
X125244110Y-103752589D02*
X124932536Y-103307484D01*
X124709984Y-103752589D02*
X124709984Y-102817869D01*
X125066068Y-102817869D01*
X125155089Y-102862380D01*
X125199599Y-102906890D01*
X125244110Y-102995911D01*
X125244110Y-103129442D01*
X125199599Y-103218463D01*
X125155089Y-103262974D01*
X125066068Y-103307484D01*
X124709984Y-103307484D01*
X126134319Y-103752589D02*
X125600193Y-103752589D01*
X125867256Y-103752589D02*
X125867256Y-102817869D01*
X125778235Y-102951400D01*
X125689214Y-103040421D01*
X125600193Y-103084932D01*
D14*
X146323841Y-125810215D02*
X146395057Y-125810215D01*
X146466274Y-125845824D01*
X146501882Y-125881432D01*
X146537491Y-125952649D01*
X146573099Y-126095082D01*
X146573099Y-126273124D01*
X146537491Y-126415558D01*
X146501882Y-126486774D01*
X146466274Y-126522383D01*
X146395057Y-126557991D01*
X146323841Y-126557991D01*
X146252624Y-126522383D01*
X146217015Y-126486774D01*
X146181407Y-126415558D01*
X146145799Y-126273124D01*
X146145799Y-126095082D01*
X146181407Y-125952649D01*
X146217015Y-125881432D01*
X146252624Y-125845824D01*
X146323841Y-125810215D01*
X146893575Y-126486774D02*
X146929183Y-126522383D01*
X146893575Y-126557991D01*
X146857966Y-126522383D01*
X146893575Y-126486774D01*
X146893575Y-126557991D01*
X147605742Y-125810215D02*
X147249658Y-125810215D01*
X147214050Y-126166299D01*
X147249658Y-126130691D01*
X147320875Y-126095082D01*
X147498917Y-126095082D01*
X147570134Y-126130691D01*
X147605742Y-126166299D01*
X147641351Y-126237516D01*
X147641351Y-126415558D01*
X147605742Y-126486774D01*
X147570134Y-126522383D01*
X147498917Y-126557991D01*
X147320875Y-126557991D01*
X147249658Y-126522383D01*
X147214050Y-126486774D01*
X147961826Y-126557991D02*
X147961826Y-126059474D01*
X147961826Y-126130691D02*
X147997434Y-126095082D01*
X148068651Y-126059474D01*
X148175476Y-126059474D01*
X148246693Y-126095082D01*
X148282301Y-126166299D01*
X148282301Y-126557991D01*
X148282301Y-126166299D02*
X148317910Y-126095082D01*
X148389127Y-126059474D01*
X148495952Y-126059474D01*
X148567169Y-126095082D01*
X148602777Y-126166299D01*
X148602777Y-126557991D01*
X148958861Y-126557991D02*
X148958861Y-126059474D01*
X148958861Y-126130691D02*
X148994469Y-126095082D01*
X149065686Y-126059474D01*
X149172511Y-126059474D01*
X149243728Y-126095082D01*
X149279336Y-126166299D01*
X149279336Y-126557991D01*
X149279336Y-126166299D02*
X149314945Y-126095082D01*
X149386161Y-126059474D01*
X149492986Y-126059474D01*
X149564203Y-126095082D01*
X149599812Y-126166299D01*
X149599812Y-126557991D01*
X150525629Y-126557991D02*
X150525629Y-125810215D01*
X150810497Y-125810215D01*
X150881713Y-125845824D01*
X150917322Y-125881432D01*
X150952930Y-125952649D01*
X150952930Y-126059474D01*
X150917322Y-126130691D01*
X150881713Y-126166299D01*
X150810497Y-126201907D01*
X150525629Y-126201907D01*
X151273405Y-126557991D02*
X151273405Y-126059474D01*
X151273405Y-125810215D02*
X151237797Y-125845824D01*
X151273405Y-125881432D01*
X151309014Y-125845824D01*
X151273405Y-125810215D01*
X151273405Y-125881432D01*
X151522664Y-126059474D02*
X151807531Y-126059474D01*
X151629489Y-125810215D02*
X151629489Y-126451166D01*
X151665098Y-126522383D01*
X151736314Y-126557991D01*
X151807531Y-126557991D01*
X152377265Y-126522383D02*
X152306049Y-126557991D01*
X152163615Y-126557991D01*
X152092398Y-126522383D01*
X152056790Y-126486774D01*
X152021181Y-126415558D01*
X152021181Y-126201907D01*
X152056790Y-126130691D01*
X152092398Y-126095082D01*
X152163615Y-126059474D01*
X152306049Y-126059474D01*
X152377265Y-126095082D01*
X152697741Y-126557991D02*
X152697741Y-125810215D01*
X153018216Y-126557991D02*
X153018216Y-126166299D01*
X152982608Y-126095082D01*
X152911391Y-126059474D01*
X152804566Y-126059474D01*
X152733349Y-126095082D01*
X152697741Y-126130691D01*
D12*
X130580592Y-93635423D02*
X131052697Y-93163318D01*
X131642828Y-94225554D02*
X130816645Y-93399370D01*
X132783748Y-93242002D02*
X132665722Y-93281344D01*
X132508354Y-93281344D01*
X132272301Y-93281344D01*
X132154275Y-93320686D01*
X132075591Y-93399370D01*
X132311643Y-93556739D02*
X132193617Y-93596081D01*
X132036249Y-93596081D01*
X131839539Y-93478054D01*
X131564144Y-93202660D01*
X131446118Y-93005949D01*
X131446118Y-92848581D01*
X131485460Y-92730555D01*
X131642828Y-92573187D01*
X131760854Y-92533845D01*
X131918223Y-92533845D01*
X132114933Y-92651871D01*
X132390328Y-92927265D01*
X132508354Y-93123976D01*
X132508354Y-93281344D01*
X132469012Y-93399370D01*
X132311643Y-93556739D01*
X132862432Y-92140424D02*
X132587038Y-92415818D01*
X133019801Y-92848581D02*
X132193617Y-92022398D01*
X132587038Y-91628977D01*
X133727958Y-92140424D02*
X132901775Y-91314240D01*
X133216511Y-90999504D01*
X133334537Y-90960162D01*
X133413222Y-90960162D01*
X133531248Y-90999504D01*
X133649274Y-91117530D01*
X133688616Y-91235556D01*
X133688616Y-91314240D01*
X133649274Y-91432267D01*
X133334537Y-91747003D01*
X134239405Y-90999504D02*
X134868878Y-90370030D01*
X134672168Y-89543847D02*
X135183615Y-89032400D01*
X135222957Y-89622531D01*
X135340983Y-89504505D01*
X135459009Y-89465163D01*
X135537694Y-89465163D01*
X135655720Y-89504505D01*
X135852430Y-89701215D01*
X135891772Y-89819241D01*
X135891772Y-89897926D01*
X135852430Y-90015952D01*
X135616378Y-90252004D01*
X135498351Y-90291346D01*
X135419667Y-90291346D01*
X135577036Y-88796348D02*
X135577036Y-88717663D01*
X135616378Y-88599637D01*
X135813088Y-88402927D01*
X135931114Y-88363585D01*
X136009798Y-88363585D01*
X136127825Y-88402927D01*
X136206509Y-88481611D01*
X136285193Y-88638979D01*
X136285193Y-89583189D01*
X136796640Y-89071742D01*
X136835982Y-88402927D02*
X137465455Y-87773454D01*
X138606375Y-87262007D02*
X138134270Y-87734112D01*
X138370323Y-87498059D02*
X137544139Y-86671876D01*
X137583481Y-86868586D01*
X137583481Y-87025954D01*
X137544139Y-87143980D01*
D13*
X174622089Y-100655891D02*
X174622089Y-101100995D01*
X175067194Y-101145506D01*
X175022683Y-101100995D01*
X174978173Y-101011974D01*
X174978173Y-100789422D01*
X175022683Y-100700401D01*
X175067194Y-100655891D01*
X175156215Y-100611380D01*
X175378767Y-100611380D01*
X175467788Y-100655891D01*
X175512299Y-100700401D01*
X175556809Y-100789422D01*
X175556809Y-101011974D01*
X175512299Y-101100995D01*
X175467788Y-101145506D01*
X175556809Y-100299807D02*
X174933662Y-99810192D01*
X174933662Y-100299807D02*
X175556809Y-99810192D01*
X174622089Y-99009003D02*
X174622089Y-99454108D01*
X175067194Y-99498618D01*
X175022683Y-99454108D01*
X174978173Y-99365087D01*
X174978173Y-99142534D01*
X175022683Y-99053513D01*
X175067194Y-99009003D01*
X175156215Y-98964492D01*
X175378767Y-98964492D01*
X175467788Y-99009003D01*
X175512299Y-99053513D01*
X175556809Y-99142534D01*
X175556809Y-99365087D01*
X175512299Y-99454108D01*
X175467788Y-99498618D01*
X175556809Y-97851731D02*
X174622089Y-97851731D01*
X174933662Y-97406626D02*
X175556809Y-97406626D01*
X175022683Y-97406626D02*
X174978173Y-97362115D01*
X174933662Y-97273094D01*
X174933662Y-97139563D01*
X174978173Y-97050542D01*
X175067194Y-97006032D01*
X175556809Y-97006032D01*
X175556809Y-96160332D02*
X174622089Y-96160332D01*
X175512299Y-96160332D02*
X175556809Y-96249353D01*
X175556809Y-96427395D01*
X175512299Y-96516416D01*
X175467788Y-96560927D01*
X175378767Y-96605437D01*
X175111704Y-96605437D01*
X175022683Y-96560927D01*
X174978173Y-96516416D01*
X174933662Y-96427395D01*
X174933662Y-96249353D01*
X174978173Y-96160332D01*
X174933662Y-95314633D02*
X175556809Y-95314633D01*
X174933662Y-95715228D02*
X175423278Y-95715228D01*
X175512299Y-95670717D01*
X175556809Y-95581696D01*
X175556809Y-95448165D01*
X175512299Y-95359144D01*
X175467788Y-95314633D01*
X175512299Y-94468934D02*
X175556809Y-94557955D01*
X175556809Y-94735997D01*
X175512299Y-94825018D01*
X175467788Y-94869529D01*
X175378767Y-94914039D01*
X175111704Y-94914039D01*
X175022683Y-94869529D01*
X174978173Y-94825018D01*
X174933662Y-94735997D01*
X174933662Y-94557955D01*
X174978173Y-94468934D01*
X174933662Y-94201872D02*
X174933662Y-93845788D01*
X174622089Y-94068340D02*
X175423278Y-94068340D01*
X175512299Y-94023830D01*
X175556809Y-93934809D01*
X175556809Y-93845788D01*
X175556809Y-93400683D02*
X175512299Y-93489704D01*
X175467788Y-93534214D01*
X175378767Y-93578725D01*
X175111704Y-93578725D01*
X175022683Y-93534214D01*
X174978173Y-93489704D01*
X174933662Y-93400683D01*
X174933662Y-93267152D01*
X174978173Y-93178131D01*
X175022683Y-93133620D01*
X175111704Y-93089110D01*
X175378767Y-93089110D01*
X175467788Y-93133620D01*
X175512299Y-93178131D01*
X175556809Y-93267152D01*
X175556809Y-93400683D01*
X175556809Y-92688515D02*
X174933662Y-92688515D01*
X175111704Y-92688515D02*
X175022683Y-92644005D01*
X174978173Y-92599494D01*
X174933662Y-92510473D01*
X174933662Y-92421452D01*
D12*
X145439916Y-105430561D02*
X146107573Y-105430561D01*
X145773744Y-106598961D02*
X145773744Y-105430561D01*
X147275973Y-106710238D02*
X147164697Y-106654600D01*
X147053420Y-106543323D01*
X146886506Y-106376409D01*
X146775230Y-106320771D01*
X146663954Y-106320771D01*
X146719592Y-106598961D02*
X146608316Y-106543323D01*
X146497040Y-106432047D01*
X146441401Y-106209495D01*
X146441401Y-105820028D01*
X146497040Y-105597476D01*
X146608316Y-105486200D01*
X146719592Y-105430561D01*
X146942144Y-105430561D01*
X147053420Y-105486200D01*
X147164697Y-105597476D01*
X147220335Y-105820028D01*
X147220335Y-106209495D01*
X147164697Y-106432047D01*
X147053420Y-106543323D01*
X146942144Y-106598961D01*
X146719592Y-106598961D01*
X148110544Y-105986942D02*
X147721078Y-105986942D01*
X147721078Y-106598961D02*
X147721078Y-105430561D01*
X148277459Y-105430561D01*
X148722563Y-106598961D02*
X148722563Y-105430561D01*
X149167668Y-105430561D01*
X149278944Y-105486200D01*
X149334582Y-105541838D01*
X149390220Y-105653114D01*
X149390220Y-105820028D01*
X149334582Y-105931304D01*
X149278944Y-105986942D01*
X149167668Y-106042580D01*
X148722563Y-106042580D01*
X149890963Y-106153857D02*
X150781173Y-106153857D01*
X151949573Y-106598961D02*
X151281916Y-106598961D01*
X151615744Y-106598961D02*
X151615744Y-105430561D01*
X151504468Y-105597476D01*
X151393192Y-105708752D01*
X151281916Y-105764390D01*
X152672868Y-105430561D02*
X152784144Y-105430561D01*
X152895420Y-105486200D01*
X152951059Y-105541838D01*
X153006697Y-105653114D01*
X153062335Y-105875666D01*
X153062335Y-106153857D01*
X153006697Y-106376409D01*
X152951059Y-106487685D01*
X152895420Y-106543323D01*
X152784144Y-106598961D01*
X152672868Y-106598961D01*
X152561592Y-106543323D01*
X152505954Y-106487685D01*
X152450316Y-106376409D01*
X152394678Y-106153857D01*
X152394678Y-105875666D01*
X152450316Y-105653114D01*
X152505954Y-105541838D01*
X152561592Y-105486200D01*
X152672868Y-105430561D01*
X153785630Y-105430561D02*
X153896906Y-105430561D01*
X154008182Y-105486200D01*
X154063820Y-105541838D01*
X154119459Y-105653114D01*
X154175097Y-105875666D01*
X154175097Y-106153857D01*
X154119459Y-106376409D01*
X154063820Y-106487685D01*
X154008182Y-106543323D01*
X153896906Y-106598961D01*
X153785630Y-106598961D01*
X153674354Y-106543323D01*
X153618716Y-106487685D01*
X153563078Y-106376409D01*
X153507440Y-106153857D01*
X153507440Y-105875666D01*
X153563078Y-105653114D01*
X153618716Y-105541838D01*
X153674354Y-105486200D01*
X153785630Y-105430561D01*
D13*
X134261110Y-101085589D02*
X133949536Y-100640484D01*
X133726984Y-101085589D02*
X133726984Y-100150869D01*
X134083068Y-100150869D01*
X134172089Y-100195380D01*
X134216599Y-100239890D01*
X134261110Y-100328911D01*
X134261110Y-100462442D01*
X134216599Y-100551463D01*
X134172089Y-100595974D01*
X134083068Y-100640484D01*
X133726984Y-100640484D01*
X134617193Y-100239890D02*
X134661704Y-100195380D01*
X134750725Y-100150869D01*
X134973277Y-100150869D01*
X135062298Y-100195380D01*
X135106809Y-100239890D01*
X135151319Y-100328911D01*
X135151319Y-100417932D01*
X135106809Y-100551463D01*
X134572683Y-101085589D01*
X135151319Y-101085589D01*
X121878610Y-126231589D02*
X121567036Y-125786484D01*
X121344484Y-126231589D02*
X121344484Y-125296869D01*
X121700568Y-125296869D01*
X121789589Y-125341380D01*
X121834099Y-125385890D01*
X121878610Y-125474911D01*
X121878610Y-125608442D01*
X121834099Y-125697463D01*
X121789589Y-125741974D01*
X121700568Y-125786484D01*
X121344484Y-125786484D01*
X122724309Y-125296869D02*
X122279204Y-125296869D01*
X122234693Y-125741974D01*
X122279204Y-125697463D01*
X122368225Y-125652953D01*
X122590777Y-125652953D01*
X122679798Y-125697463D01*
X122724309Y-125741974D01*
X122768819Y-125830995D01*
X122768819Y-126053547D01*
X122724309Y-126142568D01*
X122679798Y-126187079D01*
X122590777Y-126231589D01*
X122368225Y-126231589D01*
X122279204Y-126187079D01*
X122234693Y-126142568D01*
X125625110Y-95942089D02*
X125313536Y-95496984D01*
X125090984Y-95942089D02*
X125090984Y-95007369D01*
X125447068Y-95007369D01*
X125536089Y-95051880D01*
X125580599Y-95096390D01*
X125625110Y-95185411D01*
X125625110Y-95318942D01*
X125580599Y-95407963D01*
X125536089Y-95452474D01*
X125447068Y-95496984D01*
X125090984Y-95496984D01*
X126515319Y-95942089D02*
X125981193Y-95942089D01*
X126248256Y-95942089D02*
X126248256Y-95007369D01*
X126159235Y-95140900D01*
X126070214Y-95229921D01*
X125981193Y-95274432D01*
X115147610Y-106610089D02*
X114836036Y-106164984D01*
X114613484Y-106610089D02*
X114613484Y-105675369D01*
X114969568Y-105675369D01*
X115058589Y-105719880D01*
X115103099Y-105764390D01*
X115147610Y-105853411D01*
X115147610Y-105986942D01*
X115103099Y-106075963D01*
X115058589Y-106120474D01*
X114969568Y-106164984D01*
X114613484Y-106164984D01*
X115681735Y-106075963D02*
X115592714Y-106031453D01*
X115548204Y-105986942D01*
X115503693Y-105897921D01*
X115503693Y-105853411D01*
X115548204Y-105764390D01*
X115592714Y-105719880D01*
X115681735Y-105675369D01*
X115859777Y-105675369D01*
X115948798Y-105719880D01*
X115993309Y-105764390D01*
X116037819Y-105853411D01*
X116037819Y-105897921D01*
X115993309Y-105986942D01*
X115948798Y-106031453D01*
X115859777Y-106075963D01*
X115681735Y-106075963D01*
X115592714Y-106120474D01*
X115548204Y-106164984D01*
X115503693Y-106254005D01*
X115503693Y-106432047D01*
X115548204Y-106521068D01*
X115592714Y-106565579D01*
X115681735Y-106610089D01*
X115859777Y-106610089D01*
X115948798Y-106565579D01*
X115993309Y-106521068D01*
X116037819Y-106432047D01*
X116037819Y-106254005D01*
X115993309Y-106164984D01*
X115948798Y-106120474D01*
X115859777Y-106075963D01*
D12*
X174488073Y-120686061D02*
X174265520Y-120686061D01*
X174154244Y-120741700D01*
X174098606Y-120797338D01*
X173987330Y-120964252D01*
X173931692Y-121186804D01*
X173931692Y-121631909D01*
X173987330Y-121743185D01*
X174042968Y-121798823D01*
X174154244Y-121854461D01*
X174376797Y-121854461D01*
X174488073Y-121798823D01*
X174543711Y-121743185D01*
X174599349Y-121631909D01*
X174599349Y-121353719D01*
X174543711Y-121242442D01*
X174488073Y-121186804D01*
X174376797Y-121131166D01*
X174154244Y-121131166D01*
X174042968Y-121186804D01*
X173987330Y-121242442D01*
X173931692Y-121353719D01*
D13*
X185586957Y-88465874D02*
X185275384Y-88465874D01*
X185275384Y-88955489D02*
X185275384Y-88020769D01*
X185720489Y-88020769D01*
X185987552Y-88020769D02*
X186566188Y-88020769D01*
X186254614Y-88376853D01*
X186388146Y-88376853D01*
X186477167Y-88421363D01*
X186521677Y-88465874D01*
X186566188Y-88554895D01*
X186566188Y-88777447D01*
X186521677Y-88866468D01*
X186477167Y-88910979D01*
X186388146Y-88955489D01*
X186121083Y-88955489D01*
X186032062Y-88910979D01*
X185987552Y-88866468D01*
D15*
X144367817Y-88247314D02*
X144580693Y-88992380D01*
X144793569Y-88460190D01*
X145006445Y-88992380D01*
X145219321Y-88247314D01*
X145538636Y-88247314D02*
X145751512Y-88992380D01*
X145964388Y-88460190D01*
X146177264Y-88992380D01*
X146390140Y-88247314D01*
X146709455Y-88247314D02*
X146922331Y-88992380D01*
X147135207Y-88460190D01*
X147348083Y-88992380D01*
X147560960Y-88247314D01*
X147986712Y-88885942D02*
X148039931Y-88939161D01*
X147986712Y-88992380D01*
X147933493Y-88939161D01*
X147986712Y-88885942D01*
X147986712Y-88992380D01*
X148678560Y-88992380D02*
X148572121Y-88939161D01*
X148518902Y-88885942D01*
X148465683Y-88779504D01*
X148465683Y-88460190D01*
X148518902Y-88353752D01*
X148572121Y-88300533D01*
X148678560Y-88247314D01*
X148838217Y-88247314D01*
X148944655Y-88300533D01*
X148997874Y-88353752D01*
X149051093Y-88460190D01*
X149051093Y-88779504D01*
X148997874Y-88885942D01*
X148944655Y-88939161D01*
X148838217Y-88992380D01*
X148678560Y-88992380D01*
X149530064Y-88247314D02*
X149530064Y-89364914D01*
X149530064Y-88300533D02*
X149636502Y-88247314D01*
X149849379Y-88247314D01*
X149955817Y-88300533D01*
X150009036Y-88353752D01*
X150062255Y-88460190D01*
X150062255Y-88779504D01*
X150009036Y-88885942D01*
X149955817Y-88939161D01*
X149849379Y-88992380D01*
X149636502Y-88992380D01*
X149530064Y-88939161D01*
X150966979Y-88939161D02*
X150860540Y-88992380D01*
X150647664Y-88992380D01*
X150541226Y-88939161D01*
X150488007Y-88832723D01*
X150488007Y-88406971D01*
X150541226Y-88300533D01*
X150647664Y-88247314D01*
X150860540Y-88247314D01*
X150966979Y-88300533D01*
X151020198Y-88406971D01*
X151020198Y-88513409D01*
X150488007Y-88619847D01*
X151499169Y-88247314D02*
X151499169Y-88992380D01*
X151499169Y-88353752D02*
X151552388Y-88300533D01*
X151658826Y-88247314D01*
X151818483Y-88247314D01*
X151924921Y-88300533D01*
X151978140Y-88406971D01*
X151978140Y-88992380D01*
X152510331Y-88247314D02*
X152510331Y-89364914D01*
X152510331Y-88300533D02*
X152616769Y-88247314D01*
X152829645Y-88247314D01*
X152936083Y-88300533D01*
X152989302Y-88353752D01*
X153042521Y-88460190D01*
X153042521Y-88779504D01*
X152989302Y-88885942D01*
X152936083Y-88939161D01*
X152829645Y-88992380D01*
X152616769Y-88992380D01*
X152510331Y-88939161D01*
X153521493Y-88247314D02*
X153521493Y-88992380D01*
X153521493Y-88353752D02*
X153574712Y-88300533D01*
X153681150Y-88247314D01*
X153840807Y-88247314D01*
X153947245Y-88300533D01*
X154000464Y-88406971D01*
X154000464Y-88992380D01*
X154532655Y-88247314D02*
X154532655Y-89364914D01*
X154532655Y-88300533D02*
X154639093Y-88247314D01*
X154851969Y-88247314D01*
X154958407Y-88300533D01*
X155011626Y-88353752D01*
X155064845Y-88460190D01*
X155064845Y-88779504D01*
X155011626Y-88885942D01*
X154958407Y-88939161D01*
X154851969Y-88992380D01*
X154639093Y-88992380D01*
X154532655Y-88939161D01*
X155543817Y-88885942D02*
X155597036Y-88939161D01*
X155543817Y-88992380D01*
X155490598Y-88939161D01*
X155543817Y-88885942D01*
X155543817Y-88992380D01*
X156235664Y-88992380D02*
X156129226Y-88939161D01*
X156076007Y-88885942D01*
X156022788Y-88779504D01*
X156022788Y-88460190D01*
X156076007Y-88353752D01*
X156129226Y-88300533D01*
X156235664Y-88247314D01*
X156395321Y-88247314D01*
X156501760Y-88300533D01*
X156554979Y-88353752D01*
X156608198Y-88460190D01*
X156608198Y-88779504D01*
X156554979Y-88885942D01*
X156501760Y-88939161D01*
X156395321Y-88992380D01*
X156235664Y-88992380D01*
X157087169Y-88992380D02*
X157087169Y-88247314D01*
X157087169Y-88460190D02*
X157140388Y-88353752D01*
X157193607Y-88300533D01*
X157300045Y-88247314D01*
X157406483Y-88247314D01*
X158257988Y-88247314D02*
X158257988Y-89152038D01*
X158204769Y-89258476D01*
X158151550Y-89311695D01*
X158045112Y-89364914D01*
X157885455Y-89364914D01*
X157779017Y-89311695D01*
X158257988Y-88939161D02*
X158151550Y-88992380D01*
X157938674Y-88992380D01*
X157832236Y-88939161D01*
X157779017Y-88885942D01*
X157725798Y-88779504D01*
X157725798Y-88460190D01*
X157779017Y-88353752D01*
X157832236Y-88300533D01*
X157938674Y-88247314D01*
X158151550Y-88247314D01*
X158257988Y-88300533D01*
D14*
X172271407Y-114226299D02*
X172520666Y-114226299D01*
X172627491Y-114617991D02*
X172271407Y-114617991D01*
X172271407Y-113870215D01*
X172627491Y-113870215D01*
X173339658Y-114617991D02*
X172912358Y-114617991D01*
X173126008Y-114617991D02*
X173126008Y-113870215D01*
X173054791Y-113977040D01*
X172983575Y-114048257D01*
X172912358Y-114083865D01*
X173802567Y-113870215D02*
X173873784Y-113870215D01*
X173945001Y-113905824D01*
X173980609Y-113941432D01*
X174016218Y-114012649D01*
X174051826Y-114155082D01*
X174051826Y-114333124D01*
X174016218Y-114475558D01*
X173980609Y-114546774D01*
X173945001Y-114582383D01*
X173873784Y-114617991D01*
X173802567Y-114617991D01*
X173731351Y-114582383D01*
X173695742Y-114546774D01*
X173660134Y-114475558D01*
X173624525Y-114333124D01*
X173624525Y-114155082D01*
X173660134Y-114012649D01*
X173695742Y-113941432D01*
X173731351Y-113905824D01*
X173802567Y-113870215D01*
D13*
X121878610Y-122548589D02*
X121567036Y-122103484D01*
X121344484Y-122548589D02*
X121344484Y-121613869D01*
X121700568Y-121613869D01*
X121789589Y-121658380D01*
X121834099Y-121702890D01*
X121878610Y-121791911D01*
X121878610Y-121925442D01*
X121834099Y-122014463D01*
X121789589Y-122058974D01*
X121700568Y-122103484D01*
X121344484Y-122103484D01*
X122724309Y-121613869D02*
X122279204Y-121613869D01*
X122234693Y-122058974D01*
X122279204Y-122014463D01*
X122368225Y-121969953D01*
X122590777Y-121969953D01*
X122679798Y-122014463D01*
X122724309Y-122058974D01*
X122768819Y-122147995D01*
X122768819Y-122370547D01*
X122724309Y-122459568D01*
X122679798Y-122504079D01*
X122590777Y-122548589D01*
X122368225Y-122548589D01*
X122279204Y-122504079D01*
X122234693Y-122459568D01*
X121815110Y-118992589D02*
X121503536Y-118547484D01*
X121280984Y-118992589D02*
X121280984Y-118057869D01*
X121637068Y-118057869D01*
X121726089Y-118102380D01*
X121770599Y-118146890D01*
X121815110Y-118235911D01*
X121815110Y-118369442D01*
X121770599Y-118458463D01*
X121726089Y-118502974D01*
X121637068Y-118547484D01*
X121280984Y-118547484D01*
X122660809Y-118057869D02*
X122215704Y-118057869D01*
X122171193Y-118502974D01*
X122215704Y-118458463D01*
X122304725Y-118413953D01*
X122527277Y-118413953D01*
X122616298Y-118458463D01*
X122660809Y-118502974D01*
X122705319Y-118591995D01*
X122705319Y-118814547D01*
X122660809Y-118903568D01*
X122616298Y-118948079D01*
X122527277Y-118992589D01*
X122304725Y-118992589D01*
X122215704Y-118948079D01*
X122171193Y-118903568D01*
X112417110Y-103625589D02*
X112105536Y-103180484D01*
X111882984Y-103625589D02*
X111882984Y-102690869D01*
X112239068Y-102690869D01*
X112328089Y-102735380D01*
X112372599Y-102779890D01*
X112417110Y-102868911D01*
X112417110Y-103002442D01*
X112372599Y-103091463D01*
X112328089Y-103135974D01*
X112239068Y-103180484D01*
X111882984Y-103180484D01*
X112951235Y-103091463D02*
X112862214Y-103046953D01*
X112817704Y-103002442D01*
X112773193Y-102913421D01*
X112773193Y-102868911D01*
X112817704Y-102779890D01*
X112862214Y-102735380D01*
X112951235Y-102690869D01*
X113129277Y-102690869D01*
X113218298Y-102735380D01*
X113262809Y-102779890D01*
X113307319Y-102868911D01*
X113307319Y-102913421D01*
X113262809Y-103002442D01*
X113218298Y-103046953D01*
X113129277Y-103091463D01*
X112951235Y-103091463D01*
X112862214Y-103135974D01*
X112817704Y-103180484D01*
X112773193Y-103269505D01*
X112773193Y-103447547D01*
X112817704Y-103536568D01*
X112862214Y-103581079D01*
X112951235Y-103625589D01*
X113129277Y-103625589D01*
X113218298Y-103581079D01*
X113262809Y-103536568D01*
X113307319Y-103447547D01*
X113307319Y-103269505D01*
X113262809Y-103180484D01*
X113218298Y-103135974D01*
X113129277Y-103091463D01*
X131403610Y-103625589D02*
X131092036Y-103180484D01*
X130869484Y-103625589D02*
X130869484Y-102690869D01*
X131225568Y-102690869D01*
X131314589Y-102735380D01*
X131359099Y-102779890D01*
X131403610Y-102868911D01*
X131403610Y-103002442D01*
X131359099Y-103091463D01*
X131314589Y-103135974D01*
X131225568Y-103180484D01*
X130869484Y-103180484D01*
X131759693Y-102779890D02*
X131804204Y-102735380D01*
X131893225Y-102690869D01*
X132115777Y-102690869D01*
X132204798Y-102735380D01*
X132249309Y-102779890D01*
X132293819Y-102868911D01*
X132293819Y-102957932D01*
X132249309Y-103091463D01*
X131715183Y-103625589D01*
X132293819Y-103625589D01*
X161858089Y-128725869D02*
X161412984Y-128725869D01*
X161368473Y-129170974D01*
X161412984Y-129126463D01*
X161502005Y-129081953D01*
X161724557Y-129081953D01*
X161813578Y-129126463D01*
X161858089Y-129170974D01*
X161902599Y-129259995D01*
X161902599Y-129482547D01*
X161858089Y-129571568D01*
X161813578Y-129616079D01*
X161724557Y-129660589D01*
X161502005Y-129660589D01*
X161412984Y-129616079D01*
X161368473Y-129571568D01*
X162214172Y-129660589D02*
X162703788Y-129037442D01*
X162214172Y-129037442D02*
X162703788Y-129660589D01*
X163504976Y-128725869D02*
X163059872Y-128725869D01*
X163015361Y-129170974D01*
X163059872Y-129126463D01*
X163148892Y-129081953D01*
X163371445Y-129081953D01*
X163460466Y-129126463D01*
X163504976Y-129170974D01*
X163549487Y-129259995D01*
X163549487Y-129482547D01*
X163504976Y-129571568D01*
X163460466Y-129616079D01*
X163371445Y-129660589D01*
X163148892Y-129660589D01*
X163059872Y-129616079D01*
X163015361Y-129571568D01*
X164662249Y-129660589D02*
X164662249Y-128725869D01*
X165107353Y-129037442D02*
X165107353Y-129660589D01*
X165107353Y-129126463D02*
X165151864Y-129081953D01*
X165240885Y-129037442D01*
X165374416Y-129037442D01*
X165463437Y-129081953D01*
X165507948Y-129170974D01*
X165507948Y-129660589D01*
X166353647Y-129660589D02*
X166353647Y-128725869D01*
X166353647Y-129616079D02*
X166264626Y-129660589D01*
X166086584Y-129660589D01*
X165997563Y-129616079D01*
X165953052Y-129571568D01*
X165908542Y-129482547D01*
X165908542Y-129215484D01*
X165953052Y-129126463D01*
X165997563Y-129081953D01*
X166086584Y-129037442D01*
X166264626Y-129037442D01*
X166353647Y-129081953D01*
X167199346Y-129037442D02*
X167199346Y-129660589D01*
X166798752Y-129037442D02*
X166798752Y-129527058D01*
X166843262Y-129616079D01*
X166932283Y-129660589D01*
X167065814Y-129660589D01*
X167154835Y-129616079D01*
X167199346Y-129571568D01*
X168045045Y-129616079D02*
X167956024Y-129660589D01*
X167777982Y-129660589D01*
X167688961Y-129616079D01*
X167644451Y-129571568D01*
X167599940Y-129482547D01*
X167599940Y-129215484D01*
X167644451Y-129126463D01*
X167688961Y-129081953D01*
X167777982Y-129037442D01*
X167956024Y-129037442D01*
X168045045Y-129081953D01*
X168312108Y-129037442D02*
X168668192Y-129037442D01*
X168445639Y-128725869D02*
X168445639Y-129527058D01*
X168490150Y-129616079D01*
X168579171Y-129660589D01*
X168668192Y-129660589D01*
X169113296Y-129660589D02*
X169024275Y-129616079D01*
X168979765Y-129571568D01*
X168935254Y-129482547D01*
X168935254Y-129215484D01*
X168979765Y-129126463D01*
X169024275Y-129081953D01*
X169113296Y-129037442D01*
X169246828Y-129037442D01*
X169335849Y-129081953D01*
X169380359Y-129126463D01*
X169424870Y-129215484D01*
X169424870Y-129482547D01*
X169380359Y-129571568D01*
X169335849Y-129616079D01*
X169246828Y-129660589D01*
X169113296Y-129660589D01*
X169825464Y-129660589D02*
X169825464Y-129037442D01*
X169825464Y-129215484D02*
X169869974Y-129126463D01*
X169914485Y-129081953D01*
X170003506Y-129037442D01*
X170092527Y-129037442D01*
X112734610Y-122485089D02*
X112423036Y-122039984D01*
X112200484Y-122485089D02*
X112200484Y-121550369D01*
X112556568Y-121550369D01*
X112645589Y-121594880D01*
X112690099Y-121639390D01*
X112734610Y-121728411D01*
X112734610Y-121861942D01*
X112690099Y-121950963D01*
X112645589Y-121995474D01*
X112556568Y-122039984D01*
X112200484Y-122039984D01*
X113535798Y-121550369D02*
X113357756Y-121550369D01*
X113268735Y-121594880D01*
X113224225Y-121639390D01*
X113135204Y-121772921D01*
X113090693Y-121950963D01*
X113090693Y-122307047D01*
X113135204Y-122396068D01*
X113179714Y-122440579D01*
X113268735Y-122485089D01*
X113446777Y-122485089D01*
X113535798Y-122440579D01*
X113580309Y-122396068D01*
X113624819Y-122307047D01*
X113624819Y-122084495D01*
X113580309Y-121995474D01*
X113535798Y-121950963D01*
X113446777Y-121906453D01*
X113268735Y-121906453D01*
X113179714Y-121950963D01*
X113135204Y-121995474D01*
X113090693Y-122084495D01*
D14*
X159835981Y-117974075D02*
X160085240Y-117974075D01*
X160192065Y-118365767D02*
X159835981Y-118365767D01*
X159835981Y-117617991D01*
X160192065Y-117617991D01*
X160476932Y-117689208D02*
X160512541Y-117653600D01*
X160583757Y-117617991D01*
X160761799Y-117617991D01*
X160833016Y-117653600D01*
X160868624Y-117689208D01*
X160904233Y-117760425D01*
X160904233Y-117831641D01*
X160868624Y-117938467D01*
X160441324Y-118365767D01*
X160904233Y-118365767D01*
X161153491Y-117617991D02*
X161652009Y-117617991D01*
X161331533Y-118365767D01*
D12*
X176173916Y-105557561D02*
X176841573Y-105557561D01*
X176507744Y-106725961D02*
X176507744Y-105557561D01*
X177175401Y-106670323D02*
X177342316Y-106725961D01*
X177620506Y-106725961D01*
X177731782Y-106670323D01*
X177787420Y-106614685D01*
X177843059Y-106503409D01*
X177843059Y-106392133D01*
X177787420Y-106280857D01*
X177731782Y-106225219D01*
X177620506Y-106169580D01*
X177397954Y-106113942D01*
X177286678Y-106058304D01*
X177231040Y-106002666D01*
X177175401Y-105891390D01*
X177175401Y-105780114D01*
X177231040Y-105668838D01*
X177286678Y-105613200D01*
X177397954Y-105557561D01*
X177676144Y-105557561D01*
X177843059Y-105613200D01*
X178288163Y-106670323D02*
X178455078Y-106725961D01*
X178733268Y-106725961D01*
X178844544Y-106670323D01*
X178900182Y-106614685D01*
X178955820Y-106503409D01*
X178955820Y-106392133D01*
X178900182Y-106280857D01*
X178844544Y-106225219D01*
X178733268Y-106169580D01*
X178510716Y-106113942D01*
X178399440Y-106058304D01*
X178343801Y-106002666D01*
X178288163Y-105891390D01*
X178288163Y-105780114D01*
X178343801Y-105668838D01*
X178399440Y-105613200D01*
X178510716Y-105557561D01*
X178788906Y-105557561D01*
X178955820Y-105613200D01*
X179679116Y-105557561D02*
X179901668Y-105557561D01*
X180012944Y-105613200D01*
X180124220Y-105724476D01*
X180179859Y-105947028D01*
X180179859Y-106336495D01*
X180124220Y-106559047D01*
X180012944Y-106670323D01*
X179901668Y-106725961D01*
X179679116Y-106725961D01*
X179567840Y-106670323D01*
X179456563Y-106559047D01*
X179400925Y-106336495D01*
X179400925Y-105947028D01*
X179456563Y-105724476D01*
X179567840Y-105613200D01*
X179679116Y-105557561D01*
X180680601Y-106725961D02*
X180680601Y-105557561D01*
X181125706Y-105557561D01*
X181236982Y-105613200D01*
X181292620Y-105668838D01*
X181348259Y-105780114D01*
X181348259Y-105947028D01*
X181292620Y-106058304D01*
X181236982Y-106113942D01*
X181125706Y-106169580D01*
X180680601Y-106169580D01*
X181849001Y-106280857D02*
X182739211Y-106280857D01*
X183239954Y-105668838D02*
X183295592Y-105613200D01*
X183406868Y-105557561D01*
X183685059Y-105557561D01*
X183796335Y-105613200D01*
X183851973Y-105668838D01*
X183907611Y-105780114D01*
X183907611Y-105891390D01*
X183851973Y-106058304D01*
X183184316Y-106725961D01*
X183907611Y-106725961D01*
X184630906Y-105557561D02*
X184742182Y-105557561D01*
X184853459Y-105613200D01*
X184909097Y-105668838D01*
X184964735Y-105780114D01*
X185020373Y-106002666D01*
X185020373Y-106280857D01*
X184964735Y-106503409D01*
X184909097Y-106614685D01*
X184853459Y-106670323D01*
X184742182Y-106725961D01*
X184630906Y-106725961D01*
X184519630Y-106670323D01*
X184463992Y-106614685D01*
X184408354Y-106503409D01*
X184352716Y-106280857D01*
X184352716Y-106002666D01*
X184408354Y-105780114D01*
X184463992Y-105668838D01*
X184519630Y-105613200D01*
X184630906Y-105557561D01*
D16*
X144886805Y-85514848D02*
X145195669Y-85514848D01*
X145350101Y-85592064D01*
X145504533Y-85746496D01*
X145581749Y-86055360D01*
X145581749Y-86595872D01*
X145504533Y-86904736D01*
X145350101Y-87059168D01*
X145195669Y-87136384D01*
X144886805Y-87136384D01*
X144732373Y-87059168D01*
X144577941Y-86904736D01*
X144500725Y-86595872D01*
X144500725Y-86055360D01*
X144577941Y-85746496D01*
X144732373Y-85592064D01*
X144886805Y-85514848D01*
X146276693Y-86055360D02*
X146276693Y-87676896D01*
X146276693Y-86132576D02*
X146431125Y-86055360D01*
X146739989Y-86055360D01*
X146894421Y-86132576D01*
X146971637Y-86209792D01*
X147048853Y-86364224D01*
X147048853Y-86827520D01*
X146971637Y-86981952D01*
X146894421Y-87059168D01*
X146739989Y-87136384D01*
X146431125Y-87136384D01*
X146276693Y-87059168D01*
X148361525Y-87059168D02*
X148207093Y-87136384D01*
X147898229Y-87136384D01*
X147743797Y-87059168D01*
X147666581Y-86904736D01*
X147666581Y-86287008D01*
X147743797Y-86132576D01*
X147898229Y-86055360D01*
X148207093Y-86055360D01*
X148361525Y-86132576D01*
X148438741Y-86287008D01*
X148438741Y-86441440D01*
X147666581Y-86595872D01*
X149133685Y-86055360D02*
X149133685Y-87136384D01*
X149133685Y-86209792D02*
X149210901Y-86132576D01*
X149365333Y-86055360D01*
X149596981Y-86055360D01*
X149751413Y-86132576D01*
X149828629Y-86287008D01*
X149828629Y-87136384D01*
X150600789Y-87136384D02*
X150600789Y-85514848D01*
X151218517Y-85514848D01*
X151372949Y-85592064D01*
X151450165Y-85669280D01*
X151527381Y-85823712D01*
X151527381Y-86055360D01*
X151450165Y-86209792D01*
X151372949Y-86287008D01*
X151218517Y-86364224D01*
X150600789Y-86364224D01*
X152222325Y-86055360D02*
X152222325Y-87136384D01*
X152222325Y-86209792D02*
X152299541Y-86132576D01*
X152453973Y-86055360D01*
X152685621Y-86055360D01*
X152840053Y-86132576D01*
X152917269Y-86287008D01*
X152917269Y-87136384D01*
X153689429Y-87136384D02*
X153689429Y-85514848D01*
X154307157Y-85514848D01*
X154461589Y-85592064D01*
X154538805Y-85669280D01*
X154616021Y-85823712D01*
X154616021Y-86055360D01*
X154538805Y-86209792D01*
X154461589Y-86287008D01*
X154307157Y-86364224D01*
X153689429Y-86364224D01*
X156546421Y-87136384D02*
X156546421Y-85514848D01*
X156932501Y-85514848D01*
X157164149Y-85592064D01*
X157318581Y-85746496D01*
X157395797Y-85900928D01*
X157473013Y-86209792D01*
X157473013Y-86441440D01*
X157395797Y-86750304D01*
X157318581Y-86904736D01*
X157164149Y-87059168D01*
X156932501Y-87136384D01*
X156546421Y-87136384D01*
X158785685Y-87059168D02*
X158631253Y-87136384D01*
X158322389Y-87136384D01*
X158167957Y-87059168D01*
X158090741Y-86904736D01*
X158090741Y-86287008D01*
X158167957Y-86132576D01*
X158322389Y-86055360D01*
X158631253Y-86055360D01*
X158785685Y-86132576D01*
X158862901Y-86287008D01*
X158862901Y-86441440D01*
X158090741Y-86595872D01*
X159557845Y-87136384D02*
X159557845Y-86055360D01*
X159557845Y-86209792D02*
X159635061Y-86132576D01*
X159789493Y-86055360D01*
X160021141Y-86055360D01*
X160175573Y-86132576D01*
X160252789Y-86287008D01*
X160252789Y-87136384D01*
X160252789Y-86287008D02*
X160330005Y-86132576D01*
X160484437Y-86055360D01*
X160716085Y-86055360D01*
X160870517Y-86132576D01*
X160947733Y-86287008D01*
X160947733Y-87136384D01*
X161951541Y-87136384D02*
X161797109Y-87059168D01*
X161719893Y-86981952D01*
X161642677Y-86827520D01*
X161642677Y-86364224D01*
X161719893Y-86209792D01*
X161797109Y-86132576D01*
X161951541Y-86055360D01*
X162183189Y-86055360D01*
X162337621Y-86132576D01*
X162414837Y-86209792D01*
X162492053Y-86364224D01*
X162492053Y-86827520D01*
X162414837Y-86981952D01*
X162337621Y-87059168D01*
X162183189Y-87136384D01*
X161951541Y-87136384D01*
X164962965Y-86287008D02*
X165194613Y-86364224D01*
X165271829Y-86441440D01*
X165349045Y-86595872D01*
X165349045Y-86827520D01*
X165271829Y-86981952D01*
X165194613Y-87059168D01*
X165040181Y-87136384D01*
X164422453Y-87136384D01*
X164422453Y-85514848D01*
X164962965Y-85514848D01*
X165117397Y-85592064D01*
X165194613Y-85669280D01*
X165271829Y-85823712D01*
X165271829Y-85978144D01*
X165194613Y-86132576D01*
X165117397Y-86209792D01*
X164962965Y-86287008D01*
X164422453Y-86287008D01*
X166275637Y-87136384D02*
X166121205Y-87059168D01*
X166043989Y-86981952D01*
X165966773Y-86827520D01*
X165966773Y-86364224D01*
X166043989Y-86209792D01*
X166121205Y-86132576D01*
X166275637Y-86055360D01*
X166507285Y-86055360D01*
X166661717Y-86132576D01*
X166738933Y-86209792D01*
X166816149Y-86364224D01*
X166816149Y-86827520D01*
X166738933Y-86981952D01*
X166661717Y-87059168D01*
X166507285Y-87136384D01*
X166275637Y-87136384D01*
X168206037Y-87136384D02*
X168206037Y-86287008D01*
X168128821Y-86132576D01*
X167974389Y-86055360D01*
X167665525Y-86055360D01*
X167511093Y-86132576D01*
X168206037Y-87059168D02*
X168051605Y-87136384D01*
X167665525Y-87136384D01*
X167511093Y-87059168D01*
X167433877Y-86904736D01*
X167433877Y-86750304D01*
X167511093Y-86595872D01*
X167665525Y-86518656D01*
X168051605Y-86518656D01*
X168206037Y-86441440D01*
X168978197Y-87136384D02*
X168978197Y-86055360D01*
X168978197Y-86364224D02*
X169055413Y-86209792D01*
X169132629Y-86132576D01*
X169287061Y-86055360D01*
X169441493Y-86055360D01*
X170676949Y-87136384D02*
X170676949Y-85514848D01*
X170676949Y-87059168D02*
X170522517Y-87136384D01*
X170213653Y-87136384D01*
X170059221Y-87059168D01*
X169982005Y-86981952D01*
X169904789Y-86827520D01*
X169904789Y-86364224D01*
X169982005Y-86209792D01*
X170059221Y-86132576D01*
X170213653Y-86055360D01*
X170522517Y-86055360D01*
X170676949Y-86132576D01*
X172530133Y-86055360D02*
X172916213Y-87136384D01*
X173302293Y-86055360D01*
X173842805Y-85669280D02*
X173920021Y-85592064D01*
X174074453Y-85514848D01*
X174460533Y-85514848D01*
X174614965Y-85592064D01*
X174692181Y-85669280D01*
X174769397Y-85823712D01*
X174769397Y-85978144D01*
X174692181Y-86209792D01*
X173765589Y-87136384D01*
X174769397Y-87136384D01*
D17*
X138539620Y-127599062D02*
X139554459Y-127599062D01*
X139047040Y-129375030D02*
X139047040Y-127599062D01*
X140400158Y-129375030D02*
X140231018Y-129290460D01*
X140146448Y-129205890D01*
X140061878Y-129036750D01*
X140061878Y-128529331D01*
X140146448Y-128360191D01*
X140231018Y-128275621D01*
X140400158Y-128191051D01*
X140653868Y-128191051D01*
X140823008Y-128275621D01*
X140907577Y-128360191D01*
X140992147Y-128529331D01*
X140992147Y-129036750D01*
X140907577Y-129205890D01*
X140823008Y-129290460D01*
X140653868Y-129375030D01*
X140400158Y-129375030D01*
X141753276Y-128191051D02*
X141753276Y-129967019D01*
X141753276Y-128275621D02*
X141922416Y-128191051D01*
X142260696Y-128191051D01*
X142429836Y-128275621D01*
X142514406Y-128360191D01*
X142598976Y-128529331D01*
X142598976Y-129036750D01*
X142514406Y-129205890D01*
X142429836Y-129290460D01*
X142260696Y-129375030D01*
X141922416Y-129375030D01*
X141753276Y-129290460D01*
X145558922Y-129375030D02*
X144713223Y-129375030D01*
X144713223Y-127599062D01*
X146912041Y-129375030D02*
X146912041Y-128444761D01*
X146827471Y-128275621D01*
X146658331Y-128191051D01*
X146320051Y-128191051D01*
X146150912Y-128275621D01*
X146912041Y-129290460D02*
X146742901Y-129375030D01*
X146320051Y-129375030D01*
X146150912Y-129290460D01*
X146066342Y-129121320D01*
X146066342Y-128952180D01*
X146150912Y-128783040D01*
X146320051Y-128698470D01*
X146742901Y-128698470D01*
X146912041Y-128613900D01*
X147588600Y-128191051D02*
X148011449Y-129375030D01*
X148434299Y-128191051D02*
X148011449Y-129375030D01*
X147842310Y-129797879D01*
X147757740Y-129882449D01*
X147588600Y-129967019D01*
X149787417Y-129290460D02*
X149618278Y-129375030D01*
X149279998Y-129375030D01*
X149110858Y-129290460D01*
X149026288Y-129121320D01*
X149026288Y-128444761D01*
X149110858Y-128275621D01*
X149279998Y-128191051D01*
X149618278Y-128191051D01*
X149787417Y-128275621D01*
X149871987Y-128444761D01*
X149871987Y-128613900D01*
X149026288Y-128783040D01*
X150633116Y-129375030D02*
X150633116Y-128191051D01*
X150633116Y-128529331D02*
X150717686Y-128360191D01*
X150802256Y-128275621D01*
X150971396Y-128191051D01*
X151140536Y-128191051D01*
D14*
X184547715Y-114800858D02*
X184547715Y-114729642D01*
X184583324Y-114658425D01*
X184618932Y-114622817D01*
X184690149Y-114587208D01*
X184832582Y-114551600D01*
X185010624Y-114551600D01*
X185153058Y-114587208D01*
X185224274Y-114622817D01*
X185259883Y-114658425D01*
X185295491Y-114729642D01*
X185295491Y-114800858D01*
X185259883Y-114872075D01*
X185224274Y-114907684D01*
X185153058Y-114943292D01*
X185010624Y-114978900D01*
X184832582Y-114978900D01*
X184690149Y-114943292D01*
X184618932Y-114907684D01*
X184583324Y-114872075D01*
X184547715Y-114800858D01*
X185224274Y-114231124D02*
X185259883Y-114195516D01*
X185295491Y-114231124D01*
X185259883Y-114266733D01*
X185224274Y-114231124D01*
X185295491Y-114231124D01*
X184547715Y-113554565D02*
X184547715Y-113696999D01*
X184583324Y-113768215D01*
X184618932Y-113803824D01*
X184725757Y-113875041D01*
X184868191Y-113910649D01*
X185153058Y-113910649D01*
X185224274Y-113875041D01*
X185259883Y-113839432D01*
X185295491Y-113768215D01*
X185295491Y-113625782D01*
X185259883Y-113554565D01*
X185224274Y-113518957D01*
X185153058Y-113483348D01*
X184975016Y-113483348D01*
X184903799Y-113518957D01*
X184868191Y-113554565D01*
X184832582Y-113625782D01*
X184832582Y-113768215D01*
X184868191Y-113839432D01*
X184903799Y-113875041D01*
X184975016Y-113910649D01*
X184547715Y-112806789D02*
X184547715Y-113162873D01*
X184903799Y-113198481D01*
X184868191Y-113162873D01*
X184832582Y-113091656D01*
X184832582Y-112913614D01*
X184868191Y-112842398D01*
X184903799Y-112806789D01*
X184975016Y-112771181D01*
X185153058Y-112771181D01*
X185224274Y-112806789D01*
X185259883Y-112842398D01*
X185295491Y-112913614D01*
X185295491Y-113091656D01*
X185259883Y-113162873D01*
X185224274Y-113198481D01*
X185295491Y-112450705D02*
X184796974Y-112450705D01*
X184868191Y-112450705D02*
X184832582Y-112415097D01*
X184796974Y-112343880D01*
X184796974Y-112237055D01*
X184832582Y-112165838D01*
X184903799Y-112130230D01*
X185295491Y-112130230D01*
X184903799Y-112130230D02*
X184832582Y-112094622D01*
X184796974Y-112023405D01*
X184796974Y-111916580D01*
X184832582Y-111845363D01*
X184903799Y-111809754D01*
X185295491Y-111809754D01*
X185295491Y-111453671D02*
X184796974Y-111453671D01*
X184868191Y-111453671D02*
X184832582Y-111418062D01*
X184796974Y-111346846D01*
X184796974Y-111240020D01*
X184832582Y-111168804D01*
X184903799Y-111133195D01*
X185295491Y-111133195D01*
X184903799Y-111133195D02*
X184832582Y-111097587D01*
X184796974Y-111026370D01*
X184796974Y-110919545D01*
X184832582Y-110848328D01*
X184903799Y-110812720D01*
X185295491Y-110812720D01*
X185295491Y-109886902D02*
X184547715Y-109886902D01*
X184547715Y-109602035D01*
X184583324Y-109530818D01*
X184618932Y-109495210D01*
X184690149Y-109459601D01*
X184796974Y-109459601D01*
X184868191Y-109495210D01*
X184903799Y-109530818D01*
X184939407Y-109602035D01*
X184939407Y-109886902D01*
X185295491Y-109139126D02*
X184796974Y-109139126D01*
X184547715Y-109139126D02*
X184583324Y-109174734D01*
X184618932Y-109139126D01*
X184583324Y-109103518D01*
X184547715Y-109139126D01*
X184618932Y-109139126D01*
X184796974Y-108889867D02*
X184796974Y-108605000D01*
X184547715Y-108783042D02*
X185188666Y-108783042D01*
X185259883Y-108747434D01*
X185295491Y-108676217D01*
X185295491Y-108605000D01*
X185259883Y-108035266D02*
X185295491Y-108106483D01*
X185295491Y-108248916D01*
X185259883Y-108320133D01*
X185224274Y-108355742D01*
X185153058Y-108391350D01*
X184939407Y-108391350D01*
X184868191Y-108355742D01*
X184832582Y-108320133D01*
X184796974Y-108248916D01*
X184796974Y-108106483D01*
X184832582Y-108035266D01*
X185295491Y-107714791D02*
X184547715Y-107714791D01*
X185295491Y-107394315D02*
X184903799Y-107394315D01*
X184832582Y-107429924D01*
X184796974Y-107501140D01*
X184796974Y-107607966D01*
X184832582Y-107679182D01*
X184868191Y-107714791D01*
D13*
X109496110Y-100704589D02*
X109184536Y-100259484D01*
X108961984Y-100704589D02*
X108961984Y-99769869D01*
X109318068Y-99769869D01*
X109407089Y-99814380D01*
X109451599Y-99858890D01*
X109496110Y-99947911D01*
X109496110Y-100081442D01*
X109451599Y-100170463D01*
X109407089Y-100214974D01*
X109318068Y-100259484D01*
X108961984Y-100259484D01*
X110030235Y-100170463D02*
X109941214Y-100125953D01*
X109896704Y-100081442D01*
X109852193Y-99992421D01*
X109852193Y-99947911D01*
X109896704Y-99858890D01*
X109941214Y-99814380D01*
X110030235Y-99769869D01*
X110208277Y-99769869D01*
X110297298Y-99814380D01*
X110341809Y-99858890D01*
X110386319Y-99947911D01*
X110386319Y-99992421D01*
X110341809Y-100081442D01*
X110297298Y-100125953D01*
X110208277Y-100170463D01*
X110030235Y-100170463D01*
X109941214Y-100214974D01*
X109896704Y-100259484D01*
X109852193Y-100348505D01*
X109852193Y-100526547D01*
X109896704Y-100615568D01*
X109941214Y-100660079D01*
X110030235Y-100704589D01*
X110208277Y-100704589D01*
X110297298Y-100660079D01*
X110341809Y-100615568D01*
X110386319Y-100526547D01*
X110386319Y-100348505D01*
X110341809Y-100259484D01*
X110297298Y-100214974D01*
X110208277Y-100170463D01*
X117814610Y-108896089D02*
X117503036Y-108450984D01*
X117280484Y-108896089D02*
X117280484Y-107961369D01*
X117636568Y-107961369D01*
X117725589Y-108005880D01*
X117770099Y-108050390D01*
X117814610Y-108139411D01*
X117814610Y-108272942D01*
X117770099Y-108361963D01*
X117725589Y-108406474D01*
X117636568Y-108450984D01*
X117280484Y-108450984D01*
X118348735Y-108361963D02*
X118259714Y-108317453D01*
X118215204Y-108272942D01*
X118170693Y-108183921D01*
X118170693Y-108139411D01*
X118215204Y-108050390D01*
X118259714Y-108005880D01*
X118348735Y-107961369D01*
X118526777Y-107961369D01*
X118615798Y-108005880D01*
X118660309Y-108050390D01*
X118704819Y-108139411D01*
X118704819Y-108183921D01*
X118660309Y-108272942D01*
X118615798Y-108317453D01*
X118526777Y-108361963D01*
X118348735Y-108361963D01*
X118259714Y-108406474D01*
X118215204Y-108450984D01*
X118170693Y-108540005D01*
X118170693Y-108718047D01*
X118215204Y-108807068D01*
X118259714Y-108851579D01*
X118348735Y-108896089D01*
X118526777Y-108896089D01*
X118615798Y-108851579D01*
X118660309Y-108807068D01*
X118704819Y-108718047D01*
X118704819Y-108540005D01*
X118660309Y-108450984D01*
X118615798Y-108406474D01*
X118526777Y-108361963D01*
D12*
X186516554Y-125369561D02*
X187239849Y-125369561D01*
X186850382Y-125814666D01*
X187017297Y-125814666D01*
X187128573Y-125870304D01*
X187184211Y-125925942D01*
X187239849Y-126037219D01*
X187239849Y-126315409D01*
X187184211Y-126426685D01*
X187128573Y-126482323D01*
X187017297Y-126537961D01*
X186683468Y-126537961D01*
X186572192Y-126482323D01*
X186516554Y-126426685D01*
X121992692Y-82603823D02*
X122159606Y-82659461D01*
X122437797Y-82659461D01*
X122549073Y-82603823D01*
X122604711Y-82548185D01*
X122660349Y-82436909D01*
X122660349Y-82325633D01*
X122604711Y-82214357D01*
X122549073Y-82158719D01*
X122437797Y-82103080D01*
X122215244Y-82047442D01*
X122103968Y-81991804D01*
X122048330Y-81936166D01*
X121992692Y-81824890D01*
X121992692Y-81713614D01*
X122048330Y-81602338D01*
X122103968Y-81546700D01*
X122215244Y-81491061D01*
X122493435Y-81491061D01*
X122660349Y-81546700D01*
X123383644Y-81491061D02*
X123606197Y-81491061D01*
X123717473Y-81546700D01*
X123828749Y-81657976D01*
X123884387Y-81880528D01*
X123884387Y-82269995D01*
X123828749Y-82492547D01*
X123717473Y-82603823D01*
X123606197Y-82659461D01*
X123383644Y-82659461D01*
X123272368Y-82603823D01*
X123161092Y-82492547D01*
X123105454Y-82269995D01*
X123105454Y-81880528D01*
X123161092Y-81657976D01*
X123272368Y-81546700D01*
X123383644Y-81491061D01*
X124218216Y-81491061D02*
X124885873Y-81491061D01*
X124552044Y-82659461D02*
X124552044Y-81491061D01*
X125275340Y-82214357D02*
X126165549Y-82214357D01*
X126666292Y-81602338D02*
X126721930Y-81546700D01*
X126833206Y-81491061D01*
X127111397Y-81491061D01*
X127222673Y-81546700D01*
X127278311Y-81602338D01*
X127333949Y-81713614D01*
X127333949Y-81824890D01*
X127278311Y-81991804D01*
X126610654Y-82659461D01*
X127333949Y-82659461D01*
X128391073Y-81491061D02*
X127834692Y-81491061D01*
X127779054Y-82047442D01*
X127834692Y-81991804D01*
X127945968Y-81936166D01*
X128224159Y-81936166D01*
X128335435Y-81991804D01*
X128391073Y-82047442D01*
X128446711Y-82158719D01*
X128446711Y-82436909D01*
X128391073Y-82548185D01*
X128335435Y-82603823D01*
X128224159Y-82659461D01*
X127945968Y-82659461D01*
X127834692Y-82603823D01*
X127779054Y-82548185D01*
X128891816Y-81602338D02*
X128947454Y-81546700D01*
X129058730Y-81491061D01*
X129336920Y-81491061D01*
X129448197Y-81546700D01*
X129503835Y-81602338D01*
X129559473Y-81713614D01*
X129559473Y-81824890D01*
X129503835Y-81991804D01*
X128836178Y-82659461D01*
X129559473Y-82659461D01*
X130060216Y-82214357D02*
X130950425Y-82214357D01*
X132118825Y-82659461D02*
X131451168Y-82659461D01*
X131784997Y-82659461D02*
X131784997Y-81491061D01*
X131673720Y-81657976D01*
X131562444Y-81769252D01*
X131451168Y-81824890D01*
X180524573Y-129251528D02*
X180524573Y-130030461D01*
X180246382Y-128806423D02*
X179968192Y-129640995D01*
X180691487Y-129640995D01*
X178667349Y-117139961D02*
X177999692Y-117139961D01*
X178333520Y-117139961D02*
X178333520Y-115971561D01*
X178222244Y-116138476D01*
X178110968Y-116249752D01*
X177999692Y-116305390D01*
X164229263Y-106523738D02*
X164117987Y-106468100D01*
X164006711Y-106356823D01*
X163839797Y-106189909D01*
X163728520Y-106134271D01*
X163617244Y-106134271D01*
X163672882Y-106412461D02*
X163561606Y-106356823D01*
X163450330Y-106245547D01*
X163394692Y-106022995D01*
X163394692Y-105633528D01*
X163450330Y-105410976D01*
X163561606Y-105299700D01*
X163672882Y-105244061D01*
X163895435Y-105244061D01*
X164006711Y-105299700D01*
X164117987Y-105410976D01*
X164173625Y-105633528D01*
X164173625Y-106022995D01*
X164117987Y-106245547D01*
X164006711Y-106356823D01*
X163895435Y-106412461D01*
X163672882Y-106412461D01*
X165063835Y-105800442D02*
X164674368Y-105800442D01*
X164674368Y-106412461D02*
X164674368Y-105244061D01*
X165230749Y-105244061D01*
X165675854Y-106412461D02*
X165675854Y-105244061D01*
X166343511Y-106412461D01*
X166343511Y-105244061D01*
X166899892Y-105967357D02*
X167790101Y-105967357D01*
X168235206Y-105244061D02*
X168958501Y-105244061D01*
X168569035Y-105689166D01*
X168735949Y-105689166D01*
X168847225Y-105744804D01*
X168902863Y-105800442D01*
X168958501Y-105911719D01*
X168958501Y-106189909D01*
X168902863Y-106301185D01*
X168847225Y-106356823D01*
X168735949Y-106412461D01*
X168402120Y-106412461D01*
X168290844Y-106356823D01*
X168235206Y-106301185D01*
X169403606Y-105355338D02*
X169459244Y-105299700D01*
X169570520Y-105244061D01*
X169848711Y-105244061D01*
X169959987Y-105299700D01*
X170015625Y-105355338D01*
X170071263Y-105466614D01*
X170071263Y-105577890D01*
X170015625Y-105744804D01*
X169347968Y-106412461D01*
X170071263Y-106412461D01*
X177984192Y-90815823D02*
X178151106Y-90871461D01*
X178429297Y-90871461D01*
X178540573Y-90815823D01*
X178596211Y-90760185D01*
X178651849Y-90648909D01*
X178651849Y-90537633D01*
X178596211Y-90426357D01*
X178540573Y-90370719D01*
X178429297Y-90315080D01*
X178206744Y-90259442D01*
X178095468Y-90203804D01*
X178039830Y-90148166D01*
X177984192Y-90036890D01*
X177984192Y-89925614D01*
X178039830Y-89814338D01*
X178095468Y-89758700D01*
X178206744Y-89703061D01*
X178484935Y-89703061D01*
X178651849Y-89758700D01*
X179375144Y-89703061D02*
X179597697Y-89703061D01*
X179708973Y-89758700D01*
X179820249Y-89869976D01*
X179875887Y-90092528D01*
X179875887Y-90481995D01*
X179820249Y-90704547D01*
X179708973Y-90815823D01*
X179597697Y-90871461D01*
X179375144Y-90871461D01*
X179263868Y-90815823D01*
X179152592Y-90704547D01*
X179096954Y-90481995D01*
X179096954Y-90092528D01*
X179152592Y-89869976D01*
X179263868Y-89758700D01*
X179375144Y-89703061D01*
X180376630Y-90871461D02*
X180376630Y-89703061D01*
X180821735Y-89703061D01*
X180933011Y-89758700D01*
X180988649Y-89814338D01*
X181044287Y-89925614D01*
X181044287Y-90092528D01*
X180988649Y-90203804D01*
X180933011Y-90259442D01*
X180821735Y-90315080D01*
X180376630Y-90315080D01*
X181545030Y-90426357D02*
X182435240Y-90426357D01*
X183603640Y-90871461D02*
X182935982Y-90871461D01*
X183269811Y-90871461D02*
X183269811Y-89703061D01*
X183158535Y-89869976D01*
X183047259Y-89981252D01*
X182935982Y-90036890D01*
X184605125Y-89703061D02*
X184382573Y-89703061D01*
X184271297Y-89758700D01*
X184215659Y-89814338D01*
X184104382Y-89981252D01*
X184048744Y-90203804D01*
X184048744Y-90648909D01*
X184104382Y-90760185D01*
X184160020Y-90815823D01*
X184271297Y-90871461D01*
X184493849Y-90871461D01*
X184605125Y-90815823D01*
X184660763Y-90760185D01*
X184716401Y-90648909D01*
X184716401Y-90370719D01*
X184660763Y-90259442D01*
X184605125Y-90203804D01*
X184493849Y-90148166D01*
X184271297Y-90148166D01*
X184160020Y-90203804D01*
X184104382Y-90259442D01*
X184048744Y-90370719D01*
X185217144Y-90426357D02*
X186107354Y-90426357D01*
X187275754Y-90871461D02*
X186608097Y-90871461D01*
X186941925Y-90871461D02*
X186941925Y-89703061D01*
X186830649Y-89869976D01*
X186719373Y-89981252D01*
X186608097Y-90036890D01*
D13*
X125371110Y-99879089D02*
X125059536Y-99433984D01*
X124836984Y-99879089D02*
X124836984Y-98944369D01*
X125193068Y-98944369D01*
X125282089Y-98988880D01*
X125326599Y-99033390D01*
X125371110Y-99122411D01*
X125371110Y-99255942D01*
X125326599Y-99344963D01*
X125282089Y-99389474D01*
X125193068Y-99433984D01*
X124836984Y-99433984D01*
X126261319Y-99879089D02*
X125727193Y-99879089D01*
X125994256Y-99879089D02*
X125994256Y-98944369D01*
X125905235Y-99077900D01*
X125816214Y-99166921D01*
X125727193Y-99211432D01*
X106035057Y-128472474D02*
X105723484Y-128472474D01*
X105723484Y-128962089D02*
X105723484Y-128027369D01*
X106168589Y-128027369D01*
X107014288Y-128962089D02*
X106480162Y-128962089D01*
X106747225Y-128962089D02*
X106747225Y-128027369D01*
X106658204Y-128160900D01*
X106569183Y-128249921D01*
X106480162Y-128294432D01*
X131213110Y-122358089D02*
X130901536Y-121912984D01*
X130678984Y-122358089D02*
X130678984Y-121423369D01*
X131035068Y-121423369D01*
X131124089Y-121467880D01*
X131168599Y-121512390D01*
X131213110Y-121601411D01*
X131213110Y-121734942D01*
X131168599Y-121823963D01*
X131124089Y-121868474D01*
X131035068Y-121912984D01*
X130678984Y-121912984D01*
X132014298Y-121734942D02*
X132014298Y-122358089D01*
X131791746Y-121378859D02*
X131569193Y-122046516D01*
X132147830Y-122046516D01*
D12*
X186889692Y-117352838D02*
X186945330Y-117297200D01*
X187056606Y-117241561D01*
X187334797Y-117241561D01*
X187446073Y-117297200D01*
X187501711Y-117352838D01*
X187557349Y-117464114D01*
X187557349Y-117575390D01*
X187501711Y-117742304D01*
X186834054Y-118409961D01*
X187557349Y-118409961D01*
D13*
X139439589Y-112576089D02*
X138994484Y-112887663D01*
X139439589Y-113110215D02*
X138504869Y-113110215D01*
X138504869Y-112754131D01*
X138549380Y-112665110D01*
X138593890Y-112620600D01*
X138682911Y-112576089D01*
X138816442Y-112576089D01*
X138905463Y-112620600D01*
X138949974Y-112665110D01*
X138994484Y-112754131D01*
X138994484Y-113110215D01*
X138504869Y-112264516D02*
X138504869Y-111685880D01*
X138860953Y-111997453D01*
X138860953Y-111863922D01*
X138905463Y-111774901D01*
X138949974Y-111730390D01*
X139038995Y-111685880D01*
X139261547Y-111685880D01*
X139350568Y-111730390D01*
X139395079Y-111774901D01*
X139439589Y-111863922D01*
X139439589Y-112130985D01*
X139395079Y-112220006D01*
X139350568Y-112264516D01*
X190934557Y-128345474D02*
X190622984Y-128345474D01*
X190622984Y-128835089D02*
X190622984Y-127900369D01*
X191068089Y-127900369D01*
X191824767Y-128211942D02*
X191824767Y-128835089D01*
X191602214Y-127855859D02*
X191379662Y-128523516D01*
X191958298Y-128523516D01*
X151504015Y-90864463D02*
X151414994Y-90819953D01*
X151370484Y-90775442D01*
X151325973Y-90686421D01*
X151325973Y-90641911D01*
X151370484Y-90552890D01*
X151414994Y-90508380D01*
X151504015Y-90463869D01*
X151682057Y-90463869D01*
X151771078Y-90508380D01*
X151815589Y-90552890D01*
X151860099Y-90641911D01*
X151860099Y-90686421D01*
X151815589Y-90775442D01*
X151771078Y-90819953D01*
X151682057Y-90864463D01*
X151504015Y-90864463D01*
X151414994Y-90908974D01*
X151370484Y-90953484D01*
X151325973Y-91042505D01*
X151325973Y-91220547D01*
X151370484Y-91309568D01*
X151414994Y-91354079D01*
X151504015Y-91398589D01*
X151682057Y-91398589D01*
X151771078Y-91354079D01*
X151815589Y-91309568D01*
X151860099Y-91220547D01*
X151860099Y-91042505D01*
X151815589Y-90953484D01*
X151771078Y-90908974D01*
X151682057Y-90864463D01*
X152171672Y-91398589D02*
X152661288Y-90775442D01*
X152171672Y-90775442D02*
X152661288Y-91398589D01*
X153150903Y-90864463D02*
X153061882Y-90819953D01*
X153017372Y-90775442D01*
X152972861Y-90686421D01*
X152972861Y-90641911D01*
X153017372Y-90552890D01*
X153061882Y-90508380D01*
X153150903Y-90463869D01*
X153328945Y-90463869D01*
X153417966Y-90508380D01*
X153462476Y-90552890D01*
X153506987Y-90641911D01*
X153506987Y-90686421D01*
X153462476Y-90775442D01*
X153417966Y-90819953D01*
X153328945Y-90864463D01*
X153150903Y-90864463D01*
X153061882Y-90908974D01*
X153017372Y-90953484D01*
X152972861Y-91042505D01*
X152972861Y-91220547D01*
X153017372Y-91309568D01*
X153061882Y-91354079D01*
X153150903Y-91398589D01*
X153328945Y-91398589D01*
X153417966Y-91354079D01*
X153462476Y-91309568D01*
X153506987Y-91220547D01*
X153506987Y-91042505D01*
X153462476Y-90953484D01*
X153417966Y-90908974D01*
X153328945Y-90864463D01*
X154619749Y-91398589D02*
X154619749Y-90775442D01*
X154619749Y-90864463D02*
X154664259Y-90819953D01*
X154753280Y-90775442D01*
X154886812Y-90775442D01*
X154975832Y-90819953D01*
X155020343Y-90908974D01*
X155020343Y-91398589D01*
X155020343Y-90908974D02*
X155064853Y-90819953D01*
X155153874Y-90775442D01*
X155287406Y-90775442D01*
X155376427Y-90819953D01*
X155420937Y-90908974D01*
X155420937Y-91398589D01*
X155866042Y-91398589D02*
X155866042Y-90775442D01*
X155866042Y-90864463D02*
X155910552Y-90819953D01*
X155999573Y-90775442D01*
X156133105Y-90775442D01*
X156222126Y-90819953D01*
X156266636Y-90908974D01*
X156266636Y-91398589D01*
X156266636Y-90908974D02*
X156311147Y-90819953D01*
X156400168Y-90775442D01*
X156533699Y-90775442D01*
X156622720Y-90819953D01*
X156667231Y-90908974D01*
X156667231Y-91398589D01*
X158358629Y-91309568D02*
X158314118Y-91354079D01*
X158180587Y-91398589D01*
X158091566Y-91398589D01*
X157958034Y-91354079D01*
X157869013Y-91265058D01*
X157824503Y-91176037D01*
X157779992Y-90997995D01*
X157779992Y-90864463D01*
X157824503Y-90686421D01*
X157869013Y-90597400D01*
X157958034Y-90508380D01*
X158091566Y-90463869D01*
X158180587Y-90463869D01*
X158314118Y-90508380D01*
X158358629Y-90552890D01*
X159159817Y-91398589D02*
X159159817Y-90908974D01*
X159115307Y-90819953D01*
X159026286Y-90775442D01*
X158848244Y-90775442D01*
X158759223Y-90819953D01*
X159159817Y-91354079D02*
X159070796Y-91398589D01*
X158848244Y-91398589D01*
X158759223Y-91354079D01*
X158714712Y-91265058D01*
X158714712Y-91176037D01*
X158759223Y-91087016D01*
X158848244Y-91042505D01*
X159070796Y-91042505D01*
X159159817Y-90997995D01*
X159604922Y-90775442D02*
X159604922Y-91710162D01*
X159604922Y-90819953D02*
X159693943Y-90775442D01*
X159871985Y-90775442D01*
X159961006Y-90819953D01*
X160005516Y-90864463D01*
X160050027Y-90953484D01*
X160050027Y-91220547D01*
X160005516Y-91309568D01*
X159961006Y-91354079D01*
X159871985Y-91398589D01*
X159693943Y-91398589D01*
X159604922Y-91354079D01*
X160851215Y-91398589D02*
X160851215Y-90908974D01*
X160806705Y-90819953D01*
X160717684Y-90775442D01*
X160539642Y-90775442D01*
X160450621Y-90819953D01*
X160851215Y-91354079D02*
X160762194Y-91398589D01*
X160539642Y-91398589D01*
X160450621Y-91354079D01*
X160406111Y-91265058D01*
X160406111Y-91176037D01*
X160450621Y-91087016D01*
X160539642Y-91042505D01*
X160762194Y-91042505D01*
X160851215Y-90997995D01*
X161696914Y-91354079D02*
X161607893Y-91398589D01*
X161429852Y-91398589D01*
X161340831Y-91354079D01*
X161296320Y-91309568D01*
X161251810Y-91220547D01*
X161251810Y-90953484D01*
X161296320Y-90864463D01*
X161340831Y-90819953D01*
X161429852Y-90775442D01*
X161607893Y-90775442D01*
X161696914Y-90819953D01*
X162097509Y-91398589D02*
X162097509Y-90775442D01*
X162097509Y-90463869D02*
X162052998Y-90508380D01*
X162097509Y-90552890D01*
X162142019Y-90508380D01*
X162097509Y-90463869D01*
X162097509Y-90552890D01*
X162409082Y-90775442D02*
X162765166Y-90775442D01*
X162542613Y-90463869D02*
X162542613Y-91265058D01*
X162587124Y-91354079D01*
X162676145Y-91398589D01*
X162765166Y-91398589D01*
X163210271Y-91398589D02*
X163121250Y-91354079D01*
X163076739Y-91309568D01*
X163032229Y-91220547D01*
X163032229Y-90953484D01*
X163076739Y-90864463D01*
X163121250Y-90819953D01*
X163210271Y-90775442D01*
X163343802Y-90775442D01*
X163432823Y-90819953D01*
X163477333Y-90864463D01*
X163521844Y-90953484D01*
X163521844Y-91220547D01*
X163477333Y-91309568D01*
X163432823Y-91354079D01*
X163343802Y-91398589D01*
X163210271Y-91398589D01*
X163922438Y-91398589D02*
X163922438Y-90775442D01*
X163922438Y-90953484D02*
X163966949Y-90864463D01*
X164011459Y-90819953D01*
X164100480Y-90775442D01*
X164189501Y-90775442D01*
X108607110Y-113214089D02*
X108295536Y-112768984D01*
X108072984Y-113214089D02*
X108072984Y-112279369D01*
X108429068Y-112279369D01*
X108518089Y-112323880D01*
X108562599Y-112368390D01*
X108607110Y-112457411D01*
X108607110Y-112590942D01*
X108562599Y-112679963D01*
X108518089Y-112724474D01*
X108429068Y-112768984D01*
X108072984Y-112768984D01*
X108918683Y-112279369D02*
X109541830Y-112279369D01*
X109141235Y-113214089D01*
X131403610Y-113087089D02*
X131092036Y-112641984D01*
X130869484Y-113087089D02*
X130869484Y-112152369D01*
X131225568Y-112152369D01*
X131314589Y-112196880D01*
X131359099Y-112241390D01*
X131403610Y-112330411D01*
X131403610Y-112463942D01*
X131359099Y-112552963D01*
X131314589Y-112597474D01*
X131225568Y-112641984D01*
X130869484Y-112641984D01*
X131715183Y-112152369D02*
X132293819Y-112152369D01*
X131982246Y-112508453D01*
X132115777Y-112508453D01*
X132204798Y-112552963D01*
X132249309Y-112597474D01*
X132293819Y-112686495D01*
X132293819Y-112909047D01*
X132249309Y-112998068D01*
X132204798Y-113042579D01*
X132115777Y-113087089D01*
X131848714Y-113087089D01*
X131759693Y-113042579D01*
X131715183Y-112998068D01*
X120818099Y-96069089D02*
X120283973Y-96069089D01*
X120551036Y-96069089D02*
X120551036Y-95134369D01*
X120462015Y-95267900D01*
X120372994Y-95356921D01*
X120283973Y-95401432D01*
X121174183Y-95223390D02*
X121218693Y-95178880D01*
X121307714Y-95134369D01*
X121530267Y-95134369D01*
X121619288Y-95178880D01*
X121663798Y-95223390D01*
X121708309Y-95312411D01*
X121708309Y-95401432D01*
X121663798Y-95534963D01*
X121129672Y-96069089D01*
X121708309Y-96069089D01*
X122286945Y-95134369D02*
X122375966Y-95134369D01*
X122464987Y-95178880D01*
X122509497Y-95223390D01*
X122554008Y-95312411D01*
X122598518Y-95490453D01*
X122598518Y-95713005D01*
X122554008Y-95891047D01*
X122509497Y-95980068D01*
X122464987Y-96024579D01*
X122375966Y-96069089D01*
X122286945Y-96069089D01*
X122197924Y-96024579D01*
X122153413Y-95980068D01*
X122108903Y-95891047D01*
X122064392Y-95713005D01*
X122064392Y-95490453D01*
X122108903Y-95312411D01*
X122153413Y-95223390D01*
X122197924Y-95178880D01*
X122286945Y-95134369D01*
X123399707Y-95134369D02*
X123221665Y-95134369D01*
X123132644Y-95178880D01*
X123088133Y-95223390D01*
X122999112Y-95356921D01*
X122954602Y-95534963D01*
X122954602Y-95891047D01*
X122999112Y-95980068D01*
X123043623Y-96024579D01*
X123132644Y-96069089D01*
X123310686Y-96069089D01*
X123399707Y-96024579D01*
X123444217Y-95980068D01*
X123488728Y-95891047D01*
X123488728Y-95668495D01*
X123444217Y-95579474D01*
X123399707Y-95534963D01*
X123310686Y-95490453D01*
X123132644Y-95490453D01*
X123043623Y-95534963D01*
X122999112Y-95579474D01*
X122954602Y-95668495D01*
D12*
X171412711Y-92782961D02*
X170856330Y-92782961D01*
X170856330Y-91614561D01*
X171746540Y-91725838D02*
X171802178Y-91670200D01*
X171913454Y-91614561D01*
X172191644Y-91614561D01*
X172302920Y-91670200D01*
X172358559Y-91725838D01*
X172414197Y-91837114D01*
X172414197Y-91948390D01*
X172358559Y-92115304D01*
X171690901Y-92782961D01*
X172414197Y-92782961D01*
D13*
X126006110Y-117151089D02*
X125694536Y-116705984D01*
X125471984Y-117151089D02*
X125471984Y-116216369D01*
X125828068Y-116216369D01*
X125917089Y-116260880D01*
X125961599Y-116305390D01*
X126006110Y-116394411D01*
X126006110Y-116527942D01*
X125961599Y-116616963D01*
X125917089Y-116661474D01*
X125828068Y-116705984D01*
X125471984Y-116705984D01*
X126807298Y-116527942D02*
X126807298Y-117151089D01*
X126584746Y-116171859D02*
X126362193Y-116839516D01*
X126940830Y-116839516D01*
X127784110Y-113087089D02*
X127472536Y-112641984D01*
X127249984Y-113087089D02*
X127249984Y-112152369D01*
X127606068Y-112152369D01*
X127695089Y-112196880D01*
X127739599Y-112241390D01*
X127784110Y-112330411D01*
X127784110Y-112463942D01*
X127739599Y-112552963D01*
X127695089Y-112597474D01*
X127606068Y-112641984D01*
X127249984Y-112641984D01*
X128095683Y-112152369D02*
X128674319Y-112152369D01*
X128362746Y-112508453D01*
X128496277Y-112508453D01*
X128585298Y-112552963D01*
X128629809Y-112597474D01*
X128674319Y-112686495D01*
X128674319Y-112909047D01*
X128629809Y-112998068D01*
X128585298Y-113042579D01*
X128496277Y-113087089D01*
X128229214Y-113087089D01*
X128140193Y-113042579D01*
X128095683Y-112998068D01*
D12*
X155570987Y-103022185D02*
X155515349Y-103077823D01*
X155348435Y-103133461D01*
X155237159Y-103133461D01*
X155070244Y-103077823D01*
X154958968Y-102966547D01*
X154903330Y-102855271D01*
X154847692Y-102632719D01*
X154847692Y-102465804D01*
X154903330Y-102243252D01*
X154958968Y-102131976D01*
X155070244Y-102020700D01*
X155237159Y-101965061D01*
X155348435Y-101965061D01*
X155515349Y-102020700D01*
X155570987Y-102076338D01*
X156683749Y-103133461D02*
X156016092Y-103133461D01*
X156349920Y-103133461D02*
X156349920Y-101965061D01*
X156238644Y-102131976D01*
X156127368Y-102243252D01*
X156016092Y-102298890D01*
D13*
X115465110Y-119691089D02*
X115153536Y-119245984D01*
X114930984Y-119691089D02*
X114930984Y-118756369D01*
X115287068Y-118756369D01*
X115376089Y-118800880D01*
X115420599Y-118845390D01*
X115465110Y-118934411D01*
X115465110Y-119067942D01*
X115420599Y-119156963D01*
X115376089Y-119201474D01*
X115287068Y-119245984D01*
X114930984Y-119245984D01*
X116266298Y-118756369D02*
X116088256Y-118756369D01*
X115999235Y-118800880D01*
X115954725Y-118845390D01*
X115865704Y-118978921D01*
X115821193Y-119156963D01*
X115821193Y-119513047D01*
X115865704Y-119602068D01*
X115910214Y-119646579D01*
X115999235Y-119691089D01*
X116177277Y-119691089D01*
X116266298Y-119646579D01*
X116310809Y-119602068D01*
X116355319Y-119513047D01*
X116355319Y-119290495D01*
X116310809Y-119201474D01*
X116266298Y-119156963D01*
X116177277Y-119112453D01*
X115999235Y-119112453D01*
X115910214Y-119156963D01*
X115865704Y-119201474D01*
X115821193Y-119290495D01*
D12*
X163808795Y-121255629D02*
X163415374Y-121649050D01*
X162589191Y-120822866D01*
X164516952Y-120547472D02*
X164044847Y-121019577D01*
X164280900Y-120783524D02*
X163454716Y-119957341D01*
X163494058Y-120154051D01*
X163494058Y-120311419D01*
X163454716Y-120429445D01*
D13*
X134578610Y-124961589D02*
X134267036Y-124516484D01*
X134044484Y-124961589D02*
X134044484Y-124026869D01*
X134400568Y-124026869D01*
X134489589Y-124071380D01*
X134534099Y-124115890D01*
X134578610Y-124204911D01*
X134578610Y-124338442D01*
X134534099Y-124427463D01*
X134489589Y-124471974D01*
X134400568Y-124516484D01*
X134044484Y-124516484D01*
X135379798Y-124338442D02*
X135379798Y-124961589D01*
X135157246Y-123982359D02*
X134934693Y-124650016D01*
X135513330Y-124650016D01*
D12*
X165519987Y-103022185D02*
X165464349Y-103077823D01*
X165297435Y-103133461D01*
X165186159Y-103133461D01*
X165019244Y-103077823D01*
X164907968Y-102966547D01*
X164852330Y-102855271D01*
X164796692Y-102632719D01*
X164796692Y-102465804D01*
X164852330Y-102243252D01*
X164907968Y-102131976D01*
X165019244Y-102020700D01*
X165186159Y-101965061D01*
X165297435Y-101965061D01*
X165464349Y-102020700D01*
X165519987Y-102076338D01*
X165965092Y-102076338D02*
X166020730Y-102020700D01*
X166132006Y-101965061D01*
X166410197Y-101965061D01*
X166521473Y-102020700D01*
X166577111Y-102076338D01*
X166632749Y-102187614D01*
X166632749Y-102298890D01*
X166577111Y-102465804D01*
X165909454Y-103133461D01*
X166632749Y-103133461D01*
D14*
X160548149Y-114224075D02*
X160797408Y-114224075D01*
X160904233Y-114615767D02*
X160548149Y-114615767D01*
X160548149Y-113867991D01*
X160904233Y-113867991D01*
X161616400Y-114615767D02*
X161189100Y-114615767D01*
X161402750Y-114615767D02*
X161402750Y-113867991D01*
X161331533Y-113974816D01*
X161260317Y-114046033D01*
X161189100Y-114081641D01*
D13*
X128609610Y-106356089D02*
X128298036Y-105910984D01*
X128075484Y-106356089D02*
X128075484Y-105421369D01*
X128431568Y-105421369D01*
X128520589Y-105465880D01*
X128565099Y-105510390D01*
X128609610Y-105599411D01*
X128609610Y-105732942D01*
X128565099Y-105821963D01*
X128520589Y-105866474D01*
X128431568Y-105910984D01*
X128075484Y-105910984D01*
X128965693Y-105510390D02*
X129010204Y-105465880D01*
X129099225Y-105421369D01*
X129321777Y-105421369D01*
X129410798Y-105465880D01*
X129455309Y-105510390D01*
X129499819Y-105599411D01*
X129499819Y-105688432D01*
X129455309Y-105821963D01*
X128921183Y-106356089D01*
X129499819Y-106356089D01*
X106035057Y-81482474D02*
X105723484Y-81482474D01*
X105723484Y-81972089D02*
X105723484Y-81037369D01*
X106168589Y-81037369D01*
X106480162Y-81126390D02*
X106524672Y-81081880D01*
X106613693Y-81037369D01*
X106836246Y-81037369D01*
X106925267Y-81081880D01*
X106969777Y-81126390D01*
X107014288Y-81215411D01*
X107014288Y-81304432D01*
X106969777Y-81437963D01*
X106435652Y-81972089D01*
X107014288Y-81972089D01*
X121688110Y-130041589D02*
X121376536Y-129596484D01*
X121153984Y-130041589D02*
X121153984Y-129106869D01*
X121510068Y-129106869D01*
X121599089Y-129151380D01*
X121643599Y-129195890D01*
X121688110Y-129284911D01*
X121688110Y-129418442D01*
X121643599Y-129507463D01*
X121599089Y-129551974D01*
X121510068Y-129596484D01*
X121153984Y-129596484D01*
X122533809Y-129106869D02*
X122088704Y-129106869D01*
X122044193Y-129551974D01*
X122088704Y-129507463D01*
X122177725Y-129462953D01*
X122400277Y-129462953D01*
X122489298Y-129507463D01*
X122533809Y-129551974D01*
X122578319Y-129640995D01*
X122578319Y-129863547D01*
X122533809Y-129952568D01*
X122489298Y-129997079D01*
X122400277Y-130041589D01*
X122177725Y-130041589D01*
X122088704Y-129997079D01*
X122044193Y-129952568D01*
X112480610Y-113150589D02*
X112169036Y-112705484D01*
X111946484Y-113150589D02*
X111946484Y-112215869D01*
X112302568Y-112215869D01*
X112391589Y-112260380D01*
X112436099Y-112304890D01*
X112480610Y-112393911D01*
X112480610Y-112527442D01*
X112436099Y-112616463D01*
X112391589Y-112660974D01*
X112302568Y-112705484D01*
X111946484Y-112705484D01*
X112792183Y-112215869D02*
X113415330Y-112215869D01*
X113014735Y-113150589D01*
D12*
X174230211Y-125496561D02*
X173673830Y-125496561D01*
X173618192Y-126052942D01*
X173673830Y-125997304D01*
X173785106Y-125941666D01*
X174063297Y-125941666D01*
X174174573Y-125997304D01*
X174230211Y-126052942D01*
X174285849Y-126164219D01*
X174285849Y-126442409D01*
X174230211Y-126553685D01*
X174174573Y-126609323D01*
X174063297Y-126664961D01*
X173785106Y-126664961D01*
X173673830Y-126609323D01*
X173618192Y-126553685D01*
D14*
X159835981Y-116724075D02*
X160085240Y-116724075D01*
X160192065Y-117115767D02*
X159835981Y-117115767D01*
X159835981Y-116367991D01*
X160192065Y-116367991D01*
X160904233Y-117115767D02*
X160476932Y-117115767D01*
X160690582Y-117115767D02*
X160690582Y-116367991D01*
X160619366Y-116474816D01*
X160548149Y-116546033D01*
X160476932Y-116581641D01*
X161260317Y-117115767D02*
X161402750Y-117115767D01*
X161473967Y-117080159D01*
X161509575Y-117044550D01*
X161580792Y-116937725D01*
X161616400Y-116795292D01*
X161616400Y-116510425D01*
X161580792Y-116439208D01*
X161545184Y-116403600D01*
X161473967Y-116367991D01*
X161331533Y-116367991D01*
X161260317Y-116403600D01*
X161224708Y-116439208D01*
X161189100Y-116510425D01*
X161189100Y-116688467D01*
X161224708Y-116759683D01*
X161260317Y-116795292D01*
X161331533Y-116830900D01*
X161473967Y-116830900D01*
X161545184Y-116795292D01*
X161580792Y-116759683D01*
X161616400Y-116688467D01*
X172271407Y-115476299D02*
X172520666Y-115476299D01*
X172627491Y-115867991D02*
X172271407Y-115867991D01*
X172271407Y-115120215D01*
X172627491Y-115120215D01*
X173339658Y-115867991D02*
X172912358Y-115867991D01*
X173126008Y-115867991D02*
X173126008Y-115120215D01*
X173054791Y-115227040D01*
X172983575Y-115298257D01*
X172912358Y-115333865D01*
X173766959Y-115440691D02*
X173695742Y-115405082D01*
X173660134Y-115369474D01*
X173624525Y-115298257D01*
X173624525Y-115262649D01*
X173660134Y-115191432D01*
X173695742Y-115155824D01*
X173766959Y-115120215D01*
X173909393Y-115120215D01*
X173980609Y-115155824D01*
X174016218Y-115191432D01*
X174051826Y-115262649D01*
X174051826Y-115298257D01*
X174016218Y-115369474D01*
X173980609Y-115405082D01*
X173909393Y-115440691D01*
X173766959Y-115440691D01*
X173695742Y-115476299D01*
X173660134Y-115511907D01*
X173624525Y-115583124D01*
X173624525Y-115725558D01*
X173660134Y-115796774D01*
X173695742Y-115832383D01*
X173766959Y-115867991D01*
X173909393Y-115867991D01*
X173980609Y-115832383D01*
X174016218Y-115796774D01*
X174051826Y-115725558D01*
X174051826Y-115583124D01*
X174016218Y-115511907D01*
X173980609Y-115476299D01*
X173909393Y-115440691D01*
D12*
X109356192Y-93525823D02*
X109523106Y-93581461D01*
X109801297Y-93581461D01*
X109912573Y-93525823D01*
X109968211Y-93470185D01*
X110023849Y-93358909D01*
X110023849Y-93247633D01*
X109968211Y-93136357D01*
X109912573Y-93080719D01*
X109801297Y-93025080D01*
X109578744Y-92969442D01*
X109467468Y-92913804D01*
X109411830Y-92858166D01*
X109356192Y-92746890D01*
X109356192Y-92635614D01*
X109411830Y-92524338D01*
X109467468Y-92468700D01*
X109578744Y-92413061D01*
X109856935Y-92413061D01*
X110023849Y-92468700D01*
X110747144Y-92413061D02*
X110969697Y-92413061D01*
X111080973Y-92468700D01*
X111192249Y-92579976D01*
X111247887Y-92802528D01*
X111247887Y-93191995D01*
X111192249Y-93414547D01*
X111080973Y-93525823D01*
X110969697Y-93581461D01*
X110747144Y-93581461D01*
X110635868Y-93525823D01*
X110524592Y-93414547D01*
X110468954Y-93191995D01*
X110468954Y-92802528D01*
X110524592Y-92579976D01*
X110635868Y-92468700D01*
X110747144Y-92413061D01*
X111581716Y-92413061D02*
X112249373Y-92413061D01*
X111915544Y-93581461D02*
X111915544Y-92413061D01*
X112638840Y-93136357D02*
X113529049Y-93136357D01*
X114029792Y-92524338D02*
X114085430Y-92468700D01*
X114196706Y-92413061D01*
X114474897Y-92413061D01*
X114586173Y-92468700D01*
X114641811Y-92524338D01*
X114697449Y-92635614D01*
X114697449Y-92746890D01*
X114641811Y-92913804D01*
X113974154Y-93581461D01*
X114697449Y-93581461D01*
X115142554Y-92524338D02*
X115198192Y-92468700D01*
X115309468Y-92413061D01*
X115587659Y-92413061D01*
X115698935Y-92468700D01*
X115754573Y-92524338D01*
X115810211Y-92635614D01*
X115810211Y-92746890D01*
X115754573Y-92913804D01*
X115086916Y-93581461D01*
X115810211Y-93581461D01*
X116199678Y-92413061D02*
X116922973Y-92413061D01*
X116533506Y-92858166D01*
X116700420Y-92858166D01*
X116811697Y-92913804D01*
X116867335Y-92969442D01*
X116922973Y-93080719D01*
X116922973Y-93358909D01*
X116867335Y-93470185D01*
X116811697Y-93525823D01*
X116700420Y-93581461D01*
X116366592Y-93581461D01*
X116255316Y-93525823D01*
X116199678Y-93470185D01*
X117423716Y-93136357D02*
X118313925Y-93136357D01*
X119482325Y-93581461D02*
X118814668Y-93581461D01*
X119148497Y-93581461D02*
X119148497Y-92413061D01*
X119037220Y-92579976D01*
X118925944Y-92691252D01*
X118814668Y-92746890D01*
D13*
X120540891Y-99027338D02*
X120629912Y-99027338D01*
X120718933Y-99071849D01*
X120763443Y-99116359D01*
X120807954Y-99205380D01*
X120852464Y-99383422D01*
X120852464Y-99605974D01*
X120807954Y-99784016D01*
X120763443Y-99873037D01*
X120718933Y-99917548D01*
X120629912Y-99962058D01*
X120540891Y-99962058D01*
X120451870Y-99917548D01*
X120407359Y-99873037D01*
X120362849Y-99784016D01*
X120318338Y-99605974D01*
X120318338Y-99383422D01*
X120362849Y-99205380D01*
X120407359Y-99116359D01*
X120451870Y-99071849D01*
X120540891Y-99027338D01*
X121386590Y-99427932D02*
X121297569Y-99383422D01*
X121253058Y-99338911D01*
X121208548Y-99249890D01*
X121208548Y-99205380D01*
X121253058Y-99116359D01*
X121297569Y-99071849D01*
X121386590Y-99027338D01*
X121564632Y-99027338D01*
X121653653Y-99071849D01*
X121698163Y-99116359D01*
X121742674Y-99205380D01*
X121742674Y-99249890D01*
X121698163Y-99338911D01*
X121653653Y-99383422D01*
X121564632Y-99427932D01*
X121386590Y-99427932D01*
X121297569Y-99472443D01*
X121253058Y-99516953D01*
X121208548Y-99605974D01*
X121208548Y-99784016D01*
X121253058Y-99873037D01*
X121297569Y-99917548D01*
X121386590Y-99962058D01*
X121564632Y-99962058D01*
X121653653Y-99917548D01*
X121698163Y-99873037D01*
X121742674Y-99784016D01*
X121742674Y-99605974D01*
X121698163Y-99516953D01*
X121653653Y-99472443D01*
X121564632Y-99427932D01*
X122321310Y-99027338D02*
X122410331Y-99027338D01*
X122499352Y-99071849D01*
X122543862Y-99116359D01*
X122588373Y-99205380D01*
X122632883Y-99383422D01*
X122632883Y-99605974D01*
X122588373Y-99784016D01*
X122543862Y-99873037D01*
X122499352Y-99917548D01*
X122410331Y-99962058D01*
X122321310Y-99962058D01*
X122232289Y-99917548D01*
X122187778Y-99873037D01*
X122143268Y-99784016D01*
X122098757Y-99605974D01*
X122098757Y-99383422D01*
X122143268Y-99205380D01*
X122187778Y-99116359D01*
X122232289Y-99071849D01*
X122321310Y-99027338D01*
X123478582Y-99027338D02*
X123033477Y-99027338D01*
X122988967Y-99472443D01*
X123033477Y-99427932D01*
X123122498Y-99383422D01*
X123345051Y-99383422D01*
X123434072Y-99427932D01*
X123478582Y-99472443D01*
X123523093Y-99561464D01*
X123523093Y-99784016D01*
X123478582Y-99873037D01*
X123434072Y-99917548D01*
X123345051Y-99962058D01*
X123122498Y-99962058D01*
X123033477Y-99917548D01*
X122988967Y-99873037D01*
X124545610Y-107499089D02*
X124234036Y-107053984D01*
X124011484Y-107499089D02*
X124011484Y-106564369D01*
X124367568Y-106564369D01*
X124456589Y-106608880D01*
X124501099Y-106653390D01*
X124545610Y-106742411D01*
X124545610Y-106875942D01*
X124501099Y-106964963D01*
X124456589Y-107009474D01*
X124367568Y-107053984D01*
X124011484Y-107053984D01*
X125435819Y-107499089D02*
X124901693Y-107499089D01*
X125168756Y-107499089D02*
X125168756Y-106564369D01*
X125079735Y-106697900D01*
X124990714Y-106786921D01*
X124901693Y-106831432D01*
D14*
X178906099Y-104299491D02*
X178478799Y-104299491D01*
X178692449Y-104299491D02*
X178692449Y-103551715D01*
X178621232Y-103658540D01*
X178550015Y-103729757D01*
X178478799Y-103765365D01*
X179226575Y-104228274D02*
X179262183Y-104263883D01*
X179226575Y-104299491D01*
X179190966Y-104263883D01*
X179226575Y-104228274D01*
X179226575Y-104299491D01*
X179547050Y-103622932D02*
X179582658Y-103587324D01*
X179653875Y-103551715D01*
X179831917Y-103551715D01*
X179903134Y-103587324D01*
X179938742Y-103622932D01*
X179974351Y-103694149D01*
X179974351Y-103765365D01*
X179938742Y-103872191D01*
X179511442Y-104299491D01*
X179974351Y-104299491D01*
X180223609Y-103551715D02*
X180722127Y-103551715D01*
X180401651Y-104299491D01*
X181006994Y-104299491D02*
X181006994Y-103800974D01*
X181006994Y-103872191D02*
X181042602Y-103836582D01*
X181113819Y-103800974D01*
X181220644Y-103800974D01*
X181291861Y-103836582D01*
X181327469Y-103907799D01*
X181327469Y-104299491D01*
X181327469Y-103907799D02*
X181363077Y-103836582D01*
X181434294Y-103800974D01*
X181541119Y-103800974D01*
X181612336Y-103836582D01*
X181647945Y-103907799D01*
X181647945Y-104299491D01*
X182004028Y-104299491D02*
X182004028Y-103800974D01*
X182004028Y-103872191D02*
X182039637Y-103836582D01*
X182110853Y-103800974D01*
X182217679Y-103800974D01*
X182288895Y-103836582D01*
X182324504Y-103907799D01*
X182324504Y-104299491D01*
X182324504Y-103907799D02*
X182360112Y-103836582D01*
X182431329Y-103800974D01*
X182538154Y-103800974D01*
X182609371Y-103836582D01*
X182644979Y-103907799D01*
X182644979Y-104299491D01*
X183570797Y-104299491D02*
X183570797Y-103551715D01*
X183855664Y-103551715D01*
X183926881Y-103587324D01*
X183962489Y-103622932D01*
X183998098Y-103694149D01*
X183998098Y-103800974D01*
X183962489Y-103872191D01*
X183926881Y-103907799D01*
X183855664Y-103943407D01*
X183570797Y-103943407D01*
X184318573Y-104299491D02*
X184318573Y-103800974D01*
X184318573Y-103551715D02*
X184282965Y-103587324D01*
X184318573Y-103622932D01*
X184354181Y-103587324D01*
X184318573Y-103551715D01*
X184318573Y-103622932D01*
X184567832Y-103800974D02*
X184852699Y-103800974D01*
X184674657Y-103551715D02*
X184674657Y-104192666D01*
X184710265Y-104263883D01*
X184781482Y-104299491D01*
X184852699Y-104299491D01*
X185422433Y-104263883D02*
X185351216Y-104299491D01*
X185208783Y-104299491D01*
X185137566Y-104263883D01*
X185101957Y-104228274D01*
X185066349Y-104157058D01*
X185066349Y-103943407D01*
X185101957Y-103872191D01*
X185137566Y-103836582D01*
X185208783Y-103800974D01*
X185351216Y-103800974D01*
X185422433Y-103836582D01*
X185742908Y-104299491D02*
X185742908Y-103551715D01*
X186063384Y-104299491D02*
X186063384Y-103907799D01*
X186027775Y-103836582D01*
X185956559Y-103800974D01*
X185849733Y-103800974D01*
X185778517Y-103836582D01*
X185742908Y-103872191D01*
X141032672Y-101204154D02*
X141083030Y-101153797D01*
X141158566Y-101128618D01*
X141208924Y-101128618D01*
X141284461Y-101153797D01*
X141410356Y-101229333D01*
X141536250Y-101355228D01*
X141611787Y-101481123D01*
X141636966Y-101556659D01*
X141636966Y-101607017D01*
X141611787Y-101682554D01*
X141561429Y-101732912D01*
X141485892Y-101758091D01*
X141435535Y-101758091D01*
X141359998Y-101732912D01*
X141234103Y-101657375D01*
X141108209Y-101531481D01*
X141032672Y-101405586D01*
X141007493Y-101330049D01*
X141007493Y-101279691D01*
X141032672Y-101204154D01*
X141913934Y-101279691D02*
X141964292Y-101279691D01*
X141964292Y-101330049D01*
X141913934Y-101330049D01*
X141913934Y-101279691D01*
X141964292Y-101330049D01*
X141989471Y-100700576D02*
X141913934Y-100725755D01*
X141863576Y-100725755D01*
X141788040Y-100700576D01*
X141762861Y-100675397D01*
X141737682Y-100599860D01*
X141737682Y-100549502D01*
X141762861Y-100473966D01*
X141863576Y-100373250D01*
X141939113Y-100348071D01*
X141989471Y-100348071D01*
X142065008Y-100373250D01*
X142090187Y-100398429D01*
X142115366Y-100473966D01*
X142115366Y-100524323D01*
X142090187Y-100599860D01*
X141989471Y-100700576D01*
X141964292Y-100776113D01*
X141964292Y-100826471D01*
X141989471Y-100902007D01*
X142090187Y-101002723D01*
X142165723Y-101027902D01*
X142216081Y-101027902D01*
X142291618Y-101002723D01*
X142392334Y-100902007D01*
X142417513Y-100826471D01*
X142417513Y-100776113D01*
X142392334Y-100700576D01*
X142291618Y-100599860D01*
X142216081Y-100574681D01*
X142165723Y-100574681D01*
X142090187Y-100599860D01*
X142719660Y-100574681D02*
X142367155Y-100222176D01*
X142417513Y-100272534D02*
X142417513Y-100222176D01*
X142442692Y-100146639D01*
X142518228Y-100071103D01*
X142593765Y-100045924D01*
X142669302Y-100071103D01*
X142946270Y-100348071D01*
X142669302Y-100071103D02*
X142644123Y-99995566D01*
X142669302Y-99920029D01*
X142744839Y-99844492D01*
X142820376Y-99819313D01*
X142895912Y-99844492D01*
X143172881Y-100121461D01*
X143424670Y-99869671D02*
X143072165Y-99517166D01*
X143122523Y-99567524D02*
X143122523Y-99517166D01*
X143147702Y-99441630D01*
X143223238Y-99366093D01*
X143298775Y-99340914D01*
X143374312Y-99366093D01*
X143651280Y-99643061D01*
X143374312Y-99366093D02*
X143349133Y-99290556D01*
X143374312Y-99215019D01*
X143449849Y-99139482D01*
X143525386Y-99114303D01*
X143600922Y-99139482D01*
X143877891Y-99416451D01*
X144532543Y-98761798D02*
X144003785Y-98233041D01*
X144205217Y-98031610D01*
X144280753Y-98006431D01*
X144331111Y-98006431D01*
X144406648Y-98031610D01*
X144482185Y-98107146D01*
X144507364Y-98182683D01*
X144507364Y-98233041D01*
X144482185Y-98308578D01*
X144280753Y-98510009D01*
X145061300Y-98233041D02*
X144708795Y-97880536D01*
X144532543Y-97704284D02*
X144532543Y-97754641D01*
X144582901Y-97754641D01*
X144582901Y-97704284D01*
X144532543Y-97704284D01*
X144582901Y-97754641D01*
X144885048Y-97704284D02*
X145086479Y-97502852D01*
X144784332Y-97452494D02*
X145237553Y-97905715D01*
X145313089Y-97930894D01*
X145388626Y-97905715D01*
X145438984Y-97855357D01*
X145816668Y-97427315D02*
X145791489Y-97502852D01*
X145690773Y-97603568D01*
X145615237Y-97628747D01*
X145564879Y-97628747D01*
X145489342Y-97603568D01*
X145338268Y-97452494D01*
X145313089Y-97376957D01*
X145313089Y-97326600D01*
X145338268Y-97251063D01*
X145438984Y-97150347D01*
X145514521Y-97125168D01*
X146068457Y-97225884D02*
X145539700Y-96697126D01*
X146295068Y-96999274D02*
X146018099Y-96722305D01*
X145942563Y-96697126D01*
X145867026Y-96722305D01*
X145791489Y-96797842D01*
X145766310Y-96873379D01*
X145766310Y-96923737D01*
D12*
X106354638Y-120238882D02*
X106354638Y-120461435D01*
X106299000Y-120572711D01*
X106187723Y-120683987D01*
X105965171Y-120739625D01*
X105575704Y-120739625D01*
X105353152Y-120683987D01*
X105241876Y-120572711D01*
X105186238Y-120461435D01*
X105186238Y-120238882D01*
X105241876Y-120127606D01*
X105353152Y-120016330D01*
X105575704Y-119960692D01*
X105965171Y-119960692D01*
X106187723Y-120016330D01*
X106299000Y-120127606D01*
X106354638Y-120238882D01*
X105186238Y-121240368D02*
X105965171Y-121240368D01*
X105742619Y-121240368D02*
X105853895Y-121296006D01*
X105909533Y-121351644D01*
X105965171Y-121462920D01*
X105965171Y-121574197D01*
X105186238Y-121963663D02*
X105965171Y-121963663D01*
X106354638Y-121963663D02*
X106299000Y-121908025D01*
X106243361Y-121963663D01*
X106299000Y-122019301D01*
X106354638Y-121963663D01*
X106243361Y-121963663D01*
X105965171Y-123020787D02*
X105019323Y-123020787D01*
X104908047Y-122965149D01*
X104852409Y-122909511D01*
X104796771Y-122798235D01*
X104796771Y-122631320D01*
X104852409Y-122520044D01*
X105241876Y-123020787D02*
X105186238Y-122909511D01*
X105186238Y-122686959D01*
X105241876Y-122575682D01*
X105297514Y-122520044D01*
X105408790Y-122464406D01*
X105742619Y-122464406D01*
X105853895Y-122520044D01*
X105909533Y-122575682D01*
X105965171Y-122686959D01*
X105965171Y-122909511D01*
X105909533Y-123020787D01*
X105186238Y-123577168D02*
X105965171Y-123577168D01*
X106354638Y-123577168D02*
X106299000Y-123521530D01*
X106243361Y-123577168D01*
X106299000Y-123632806D01*
X106354638Y-123577168D01*
X106243361Y-123577168D01*
X105965171Y-124133549D02*
X105186238Y-124133549D01*
X105853895Y-124133549D02*
X105909533Y-124189187D01*
X105965171Y-124300463D01*
X105965171Y-124467378D01*
X105909533Y-124578654D01*
X105798257Y-124634292D01*
X105186238Y-124634292D01*
D14*
X159835981Y-115474075D02*
X160085240Y-115474075D01*
X160192065Y-115865767D02*
X159835981Y-115865767D01*
X159835981Y-115117991D01*
X160192065Y-115117991D01*
X160904233Y-115865767D02*
X160476932Y-115865767D01*
X160690582Y-115865767D02*
X160690582Y-115117991D01*
X160619366Y-115224816D01*
X160548149Y-115296033D01*
X160476932Y-115331641D01*
X161616400Y-115865767D02*
X161189100Y-115865767D01*
X161402750Y-115865767D02*
X161402750Y-115117991D01*
X161331533Y-115224816D01*
X161260317Y-115296033D01*
X161189100Y-115331641D01*
D13*
X117878110Y-117278089D02*
X117566536Y-116832984D01*
X117343984Y-117278089D02*
X117343984Y-116343369D01*
X117700068Y-116343369D01*
X117789089Y-116387880D01*
X117833599Y-116432390D01*
X117878110Y-116521411D01*
X117878110Y-116654942D01*
X117833599Y-116743963D01*
X117789089Y-116788474D01*
X117700068Y-116832984D01*
X117343984Y-116832984D01*
X118679298Y-116343369D02*
X118501256Y-116343369D01*
X118412235Y-116387880D01*
X118367725Y-116432390D01*
X118278704Y-116565921D01*
X118234193Y-116743963D01*
X118234193Y-117100047D01*
X118278704Y-117189068D01*
X118323214Y-117233579D01*
X118412235Y-117278089D01*
X118590277Y-117278089D01*
X118679298Y-117233579D01*
X118723809Y-117189068D01*
X118768319Y-117100047D01*
X118768319Y-116877495D01*
X118723809Y-116788474D01*
X118679298Y-116743963D01*
X118590277Y-116699453D01*
X118412235Y-116699453D01*
X118323214Y-116743963D01*
X118278704Y-116788474D01*
X118234193Y-116877495D01*
X135277110Y-112960089D02*
X134965536Y-112514984D01*
X134742984Y-112960089D02*
X134742984Y-112025369D01*
X135099068Y-112025369D01*
X135188089Y-112069880D01*
X135232599Y-112114390D01*
X135277110Y-112203411D01*
X135277110Y-112336942D01*
X135232599Y-112425963D01*
X135188089Y-112470474D01*
X135099068Y-112514984D01*
X134742984Y-112514984D01*
X135588683Y-112025369D02*
X136167319Y-112025369D01*
X135855746Y-112381453D01*
X135989277Y-112381453D01*
X136078298Y-112425963D01*
X136122809Y-112470474D01*
X136167319Y-112559495D01*
X136167319Y-112782047D01*
X136122809Y-112871068D01*
X136078298Y-112915579D01*
X135989277Y-112960089D01*
X135722214Y-112960089D01*
X135633193Y-112915579D01*
X135588683Y-112871068D01*
D14*
X172271407Y-116726299D02*
X172520666Y-116726299D01*
X172627491Y-117117991D02*
X172271407Y-117117991D01*
X172271407Y-116370215D01*
X172627491Y-116370215D01*
X172912358Y-116441432D02*
X172947966Y-116405824D01*
X173019183Y-116370215D01*
X173197225Y-116370215D01*
X173268442Y-116405824D01*
X173304050Y-116441432D01*
X173339658Y-116512649D01*
X173339658Y-116583865D01*
X173304050Y-116690691D01*
X172876749Y-117117991D01*
X173339658Y-117117991D01*
X173980609Y-116370215D02*
X173838176Y-116370215D01*
X173766959Y-116405824D01*
X173731351Y-116441432D01*
X173660134Y-116548257D01*
X173624525Y-116690691D01*
X173624525Y-116975558D01*
X173660134Y-117046774D01*
X173695742Y-117082383D01*
X173766959Y-117117991D01*
X173909393Y-117117991D01*
X173980609Y-117082383D01*
X174016218Y-117046774D01*
X174051826Y-116975558D01*
X174051826Y-116797516D01*
X174016218Y-116726299D01*
X173980609Y-116690691D01*
X173909393Y-116655082D01*
X173766959Y-116655082D01*
X173695742Y-116690691D01*
X173660134Y-116726299D01*
X173624525Y-116797516D01*
D13*
X128673110Y-119627589D02*
X128361536Y-119182484D01*
X128138984Y-119627589D02*
X128138984Y-118692869D01*
X128495068Y-118692869D01*
X128584089Y-118737380D01*
X128628599Y-118781890D01*
X128673110Y-118870911D01*
X128673110Y-119004442D01*
X128628599Y-119093463D01*
X128584089Y-119137974D01*
X128495068Y-119182484D01*
X128138984Y-119182484D01*
X129474298Y-119004442D02*
X129474298Y-119627589D01*
X129251746Y-118648359D02*
X129029193Y-119316016D01*
X129607830Y-119316016D01*
D14*
X172271407Y-117976299D02*
X172520666Y-117976299D01*
X172627491Y-118367991D02*
X172271407Y-118367991D01*
X172271407Y-117620215D01*
X172627491Y-117620215D01*
X172876749Y-117620215D02*
X173339658Y-117620215D01*
X173090400Y-117905082D01*
X173197225Y-117905082D01*
X173268442Y-117940691D01*
X173304050Y-117976299D01*
X173339658Y-118047516D01*
X173339658Y-118225558D01*
X173304050Y-118296774D01*
X173268442Y-118332383D01*
X173197225Y-118367991D01*
X172983575Y-118367991D01*
X172912358Y-118332383D01*
X172876749Y-118296774D01*
X173980609Y-117620215D02*
X173838176Y-117620215D01*
X173766959Y-117655824D01*
X173731351Y-117691432D01*
X173660134Y-117798257D01*
X173624525Y-117940691D01*
X173624525Y-118225558D01*
X173660134Y-118296774D01*
X173695742Y-118332383D01*
X173766959Y-118367991D01*
X173909393Y-118367991D01*
X173980609Y-118332383D01*
X174016218Y-118296774D01*
X174051826Y-118225558D01*
X174051826Y-118047516D01*
X174016218Y-117976299D01*
X173980609Y-117940691D01*
X173909393Y-117905082D01*
X173766959Y-117905082D01*
X173695742Y-117940691D01*
X173660134Y-117976299D01*
X173624525Y-118047516D01*
D13*
X120628826Y-102843235D02*
X120717847Y-102843235D01*
X120806868Y-102887746D01*
X120851378Y-102932256D01*
X120895889Y-103021277D01*
X120940399Y-103199319D01*
X120940399Y-103421871D01*
X120895889Y-103599913D01*
X120851378Y-103688934D01*
X120806868Y-103733445D01*
X120717847Y-103777955D01*
X120628826Y-103777955D01*
X120539805Y-103733445D01*
X120495294Y-103688934D01*
X120450784Y-103599913D01*
X120406273Y-103421871D01*
X120406273Y-103199319D01*
X120450784Y-103021277D01*
X120495294Y-102932256D01*
X120539805Y-102887746D01*
X120628826Y-102843235D01*
X121741588Y-102843235D02*
X121563546Y-102843235D01*
X121474525Y-102887746D01*
X121430014Y-102932256D01*
X121340993Y-103065787D01*
X121296483Y-103243829D01*
X121296483Y-103599913D01*
X121340993Y-103688934D01*
X121385504Y-103733445D01*
X121474525Y-103777955D01*
X121652567Y-103777955D01*
X121741588Y-103733445D01*
X121786098Y-103688934D01*
X121830609Y-103599913D01*
X121830609Y-103377361D01*
X121786098Y-103288340D01*
X121741588Y-103243829D01*
X121652567Y-103199319D01*
X121474525Y-103199319D01*
X121385504Y-103243829D01*
X121340993Y-103288340D01*
X121296483Y-103377361D01*
X122409245Y-102843235D02*
X122498266Y-102843235D01*
X122587287Y-102887746D01*
X122631797Y-102932256D01*
X122676308Y-103021277D01*
X122720818Y-103199319D01*
X122720818Y-103421871D01*
X122676308Y-103599913D01*
X122631797Y-103688934D01*
X122587287Y-103733445D01*
X122498266Y-103777955D01*
X122409245Y-103777955D01*
X122320224Y-103733445D01*
X122275713Y-103688934D01*
X122231203Y-103599913D01*
X122186692Y-103421871D01*
X122186692Y-103199319D01*
X122231203Y-103021277D01*
X122275713Y-102932256D01*
X122320224Y-102887746D01*
X122409245Y-102843235D01*
X123032392Y-102843235D02*
X123611028Y-102843235D01*
X123299454Y-103199319D01*
X123432986Y-103199319D01*
X123522007Y-103243829D01*
X123566517Y-103288340D01*
X123611028Y-103377361D01*
X123611028Y-103599913D01*
X123566517Y-103688934D01*
X123522007Y-103733445D01*
X123432986Y-103777955D01*
X123165923Y-103777955D01*
X123076902Y-103733445D01*
X123032392Y-103688934D01*
D14*
X170727715Y-111850858D02*
X170727715Y-111779642D01*
X170763324Y-111708425D01*
X170798932Y-111672817D01*
X170870149Y-111637208D01*
X171012582Y-111601600D01*
X171190624Y-111601600D01*
X171333058Y-111637208D01*
X171404274Y-111672817D01*
X171439883Y-111708425D01*
X171475491Y-111779642D01*
X171475491Y-111850858D01*
X171439883Y-111922075D01*
X171404274Y-111957684D01*
X171333058Y-111993292D01*
X171190624Y-112028900D01*
X171012582Y-112028900D01*
X170870149Y-111993292D01*
X170798932Y-111957684D01*
X170763324Y-111922075D01*
X170727715Y-111850858D01*
X171404274Y-111281124D02*
X171439883Y-111245516D01*
X171475491Y-111281124D01*
X171439883Y-111316733D01*
X171404274Y-111281124D01*
X171475491Y-111281124D01*
X170727715Y-110568957D02*
X170727715Y-110925041D01*
X171083799Y-110960649D01*
X171048191Y-110925041D01*
X171012582Y-110853824D01*
X171012582Y-110675782D01*
X171048191Y-110604565D01*
X171083799Y-110568957D01*
X171155016Y-110533348D01*
X171333058Y-110533348D01*
X171404274Y-110568957D01*
X171439883Y-110604565D01*
X171475491Y-110675782D01*
X171475491Y-110853824D01*
X171439883Y-110925041D01*
X171404274Y-110960649D01*
X171475491Y-110212873D02*
X170976974Y-110212873D01*
X171048191Y-110212873D02*
X171012582Y-110177265D01*
X170976974Y-110106048D01*
X170976974Y-109999223D01*
X171012582Y-109928006D01*
X171083799Y-109892398D01*
X171475491Y-109892398D01*
X171083799Y-109892398D02*
X171012582Y-109856789D01*
X170976974Y-109785572D01*
X170976974Y-109678747D01*
X171012582Y-109607530D01*
X171083799Y-109571922D01*
X171475491Y-109571922D01*
X171475491Y-109215838D02*
X170976974Y-109215838D01*
X171048191Y-109215838D02*
X171012582Y-109180230D01*
X170976974Y-109109013D01*
X170976974Y-109002188D01*
X171012582Y-108930971D01*
X171083799Y-108895363D01*
X171475491Y-108895363D01*
X171083799Y-108895363D02*
X171012582Y-108859754D01*
X170976974Y-108788538D01*
X170976974Y-108681713D01*
X171012582Y-108610496D01*
X171083799Y-108574887D01*
X171475491Y-108574887D01*
X171475491Y-107649070D02*
X170727715Y-107649070D01*
X170727715Y-107364202D01*
X170763324Y-107292986D01*
X170798932Y-107257377D01*
X170870149Y-107221769D01*
X170976974Y-107221769D01*
X171048191Y-107257377D01*
X171083799Y-107292986D01*
X171119407Y-107364202D01*
X171119407Y-107649070D01*
X171475491Y-106901294D02*
X170976974Y-106901294D01*
X170727715Y-106901294D02*
X170763324Y-106936902D01*
X170798932Y-106901294D01*
X170763324Y-106865685D01*
X170727715Y-106901294D01*
X170798932Y-106901294D01*
X170976974Y-106652035D02*
X170976974Y-106367168D01*
X170727715Y-106545210D02*
X171368666Y-106545210D01*
X171439883Y-106509601D01*
X171475491Y-106438385D01*
X171475491Y-106367168D01*
X171439883Y-105797434D02*
X171475491Y-105868650D01*
X171475491Y-106011084D01*
X171439883Y-106082301D01*
X171404274Y-106117909D01*
X171333058Y-106153518D01*
X171119407Y-106153518D01*
X171048191Y-106117909D01*
X171012582Y-106082301D01*
X170976974Y-106011084D01*
X170976974Y-105868650D01*
X171012582Y-105797434D01*
X171475491Y-105476958D02*
X170727715Y-105476958D01*
X171475491Y-105156483D02*
X171083799Y-105156483D01*
X171012582Y-105192091D01*
X170976974Y-105263308D01*
X170976974Y-105370133D01*
X171012582Y-105441350D01*
X171048191Y-105476958D01*
D12*
%TO.C,SOP-16-1*%
X185597349Y-101007961D02*
X184929692Y-101007961D01*
X185263520Y-101007961D02*
X185263520Y-99839561D01*
X185152244Y-100006476D01*
X185040968Y-100117752D01*
X184929692Y-100173390D01*
D18*
%TO.C,TLI493d*%
X172321811Y-112336000D02*
G75*
G03*
X172321811Y-112336000I-15811J0D01*
G01*
X172321811Y-111336000D02*
G75*
G03*
X172321811Y-111336000I-15811J0D01*
G01*
X172321811Y-110336000D02*
G75*
G03*
X172321811Y-110336000I-15811J0D01*
G01*
X174721811Y-112336000D02*
G75*
G03*
X174721811Y-112336000I-15811J0D01*
G01*
X173521811Y-112336000D02*
G75*
G03*
X173521811Y-112336000I-15811J0D01*
G01*
X174721811Y-111336000D02*
G75*
G03*
X174721811Y-111336000I-15811J0D01*
G01*
X174721811Y-110336000D02*
G75*
G03*
X174721811Y-110336000I-15811J0D01*
G01*
X173521811Y-110336000D02*
G75*
G03*
X173521811Y-110336000I-15811J0D01*
G01*
X173521811Y-111336000D02*
G75*
G03*
X173521811Y-111336000I-15811J0D01*
G01*
%TO.C,E$26*%
G36*
X171263232Y-116653600D02*
G01*
X171051100Y-116865732D01*
X170838968Y-116653600D01*
X171051100Y-116441468D01*
X171263232Y-116653600D01*
G37*
%TO.C,E$12*%
G36*
X163701100Y-115803600D02*
G01*
X163401100Y-115803600D01*
X163401100Y-115503600D01*
X163701100Y-115503600D01*
X163701100Y-115803600D01*
G37*
%TO.C,E$8*%
G36*
X169451100Y-114553600D02*
G01*
X169151100Y-114553600D01*
X169151100Y-114253600D01*
X169451100Y-114253600D01*
X169451100Y-114553600D01*
G37*
D15*
%TO.C,TQFP-100*%
X142928100Y-109530600D02*
X155924100Y-109530600D01*
X156674100Y-123276600D02*
X142928100Y-123276600D01*
X155924100Y-109530600D02*
X156674100Y-110280600D01*
X156674100Y-110280600D02*
X156674100Y-123276600D01*
X142928100Y-123276600D02*
X142928100Y-109530600D01*
X155301100Y-111903600D02*
G75*
G03*
X155301100Y-111903600I-1000000J0D01*
G01*
%TO.C,E$15*%
G36*
X167451100Y-115803600D02*
G01*
X167151100Y-115803600D01*
X167151100Y-115503600D01*
X167451100Y-115503600D01*
X167451100Y-115803600D01*
G37*
%TO.C,SOT-23-2*%
X184835377Y-121170635D02*
X184452977Y-120508298D01*
X183412977Y-118706965D02*
X184244708Y-118226765D01*
X183807877Y-119390952D02*
X183412977Y-118706965D01*
X185667108Y-120690435D02*
X184835377Y-121170635D01*
%TO.C,E$33*%
G36*
X168451100Y-118053600D02*
G01*
X168151100Y-118053600D01*
X168151100Y-117753600D01*
X168451100Y-117753600D01*
X168451100Y-118053600D01*
G37*
D19*
%TO.C,QFN-32*%
X163831100Y-112203600D02*
X164281100Y-112203600D01*
X168731100Y-112203600D02*
X168731100Y-111753600D01*
X164281100Y-107303600D02*
X163831100Y-107303600D01*
X168731100Y-107753600D02*
X168731100Y-107303600D01*
X168281100Y-112203600D02*
X168731100Y-112203600D01*
X163831100Y-111753600D02*
X163831100Y-112203600D01*
X163831100Y-107303600D02*
X163831100Y-107753600D01*
X168731100Y-107303600D02*
X168281100Y-107303600D01*
G36*
X164531100Y-108003600D02*
G01*
X164306100Y-108003600D01*
X164306100Y-107778600D01*
X164531100Y-107778600D01*
X164531100Y-108003600D01*
G37*
D10*
%TO.C,C2*%
X166513100Y-100304600D02*
X165399100Y-101433600D01*
X159528100Y-101447600D02*
X161179100Y-101447600D01*
X166513100Y-93319600D02*
X163719100Y-93319600D01*
X158385100Y-100304600D02*
X158385100Y-93319600D01*
X166513100Y-93319600D02*
X166513100Y-100304600D01*
X159499100Y-101433600D02*
X158385100Y-100304600D01*
X165370100Y-101447600D02*
X163719100Y-101447600D01*
X158385100Y-93319600D02*
X161179100Y-93319600D01*
X163668300Y-101041200D02*
G75*
G03*
X163668300Y-93726000I-1219200J3657600D01*
G01*
X161229900Y-93726000D02*
G75*
G03*
X161229900Y-101041200I1219200J-3657600D01*
G01*
%TO.C,E$25*%
G36*
X170013232Y-116653600D02*
G01*
X169801100Y-116865732D01*
X169588968Y-116653600D01*
X169801100Y-116441468D01*
X170013232Y-116653600D01*
G37*
%TO.C,E$30*%
G36*
X165451100Y-118053600D02*
G01*
X165151100Y-118053600D01*
X165151100Y-117753600D01*
X165451100Y-117753600D01*
X165451100Y-118053600D01*
G37*
%TO.C,E$13*%
G36*
X164951100Y-115803600D02*
G01*
X164651100Y-115803600D01*
X164651100Y-115503600D01*
X164951100Y-115503600D01*
X164951100Y-115803600D01*
G37*
%TO.C,E$29*%
G36*
X164451100Y-118053600D02*
G01*
X164151100Y-118053600D01*
X164151100Y-117753600D01*
X164451100Y-117753600D01*
X164451100Y-118053600D01*
G37*
%TO.C,E$5*%
G36*
X166451100Y-114553600D02*
G01*
X166151100Y-114553600D01*
X166151100Y-114253600D01*
X166451100Y-114253600D01*
X166451100Y-114553600D01*
G37*
D15*
%TO.C,SOT-23-3*%
X183412977Y-125590235D02*
X183795377Y-124927898D01*
X184835377Y-123126565D02*
X185667108Y-123606765D01*
X184440477Y-123810552D02*
X184835377Y-123126565D01*
X184244708Y-126070435D02*
X183412977Y-125590235D01*
%TO.C,E$4*%
G36*
X165451100Y-114553600D02*
G01*
X165151100Y-114553600D01*
X165151100Y-114253600D01*
X165451100Y-114253600D01*
X165451100Y-114553600D01*
G37*
%TO.C,E$23*%
G36*
X167513232Y-116653600D02*
G01*
X167301100Y-116865732D01*
X167088968Y-116653600D01*
X167301100Y-116441468D01*
X167513232Y-116653600D01*
G37*
%TO.C,SOT-23-4*%
X181673500Y-126568200D02*
X181673500Y-127528600D01*
X180883700Y-126568200D02*
X181673500Y-126568200D01*
X178828700Y-127528600D02*
X178828700Y-126568200D01*
X178828700Y-126568200D02*
X179593500Y-126568200D01*
%TO.C,TSSOP-20*%
X177136500Y-113686400D02*
X177136500Y-109120800D01*
D20*
X177365100Y-113457800D02*
X177365100Y-109349400D01*
X183237100Y-109349400D02*
X177365100Y-109349400D01*
D15*
X177136500Y-113686400D02*
X183465700Y-113686400D01*
X183465700Y-109120800D02*
X183465700Y-113686400D01*
D20*
X183237100Y-109349400D02*
X183237100Y-113457800D01*
D15*
X183465700Y-109120800D02*
X177136500Y-109120800D01*
D20*
X177365100Y-113457800D02*
X183237100Y-113457800D01*
D15*
X178482700Y-112622800D02*
G75*
G03*
X178482700Y-112622800I-457200J0D01*
G01*
%TO.C,E$28*%
G36*
X163451100Y-118053600D02*
G01*
X163151100Y-118053600D01*
X163151100Y-117753600D01*
X163451100Y-117753600D01*
X163451100Y-118053600D01*
G37*
%TO.C,E$34*%
G36*
X169451100Y-118053600D02*
G01*
X169151100Y-118053600D01*
X169151100Y-117753600D01*
X169451100Y-117753600D01*
X169451100Y-118053600D01*
G37*
%TO.C,E11*%
G36*
X162451100Y-115803600D02*
G01*
X162151100Y-115803600D01*
X162151100Y-115503600D01*
X162451100Y-115503600D01*
X162451100Y-115803600D01*
G37*
%TO.C,E$7*%
G36*
X168451100Y-114553600D02*
G01*
X168151100Y-114553600D01*
X168151100Y-114253600D01*
X168451100Y-114253600D01*
X168451100Y-114553600D01*
G37*
%TO.C,E$3*%
G36*
X164451100Y-114553600D02*
G01*
X164151100Y-114553600D01*
X164151100Y-114253600D01*
X164451100Y-114253600D01*
X164451100Y-114553600D01*
G37*
%TO.C,SOT-23-5*%
X174835092Y-123606765D02*
X175666823Y-123126565D01*
X176694323Y-124906248D02*
X177089223Y-125590235D01*
X177089223Y-125590235D02*
X176257492Y-126070435D01*
X175666823Y-123126565D02*
X176049223Y-123788902D01*
%TO.C,SOT-23-1*%
X181673500Y-116768600D02*
X181673500Y-117729000D01*
X179618500Y-117729000D02*
X178828700Y-117729000D01*
X178828700Y-117729000D02*
X178828700Y-116768600D01*
X181673500Y-117729000D02*
X180908700Y-117729000D01*
%TO.C,E$31*%
G36*
X166451100Y-118053600D02*
G01*
X166151100Y-118053600D01*
X166151100Y-117753600D01*
X166451100Y-117753600D01*
X166451100Y-118053600D01*
G37*
%TO.C,SOT-23-6*%
X176257492Y-118226765D02*
X177089223Y-118706965D01*
X175666823Y-121170635D02*
X174835092Y-120690435D01*
X177089223Y-118706965D02*
X176706823Y-119369302D01*
X176061723Y-120486648D02*
X175666823Y-121170635D01*
D10*
%TO.C,C1*%
X155084600Y-93319600D02*
X153433600Y-93319600D01*
X155113600Y-93333600D02*
X156227600Y-94462600D01*
X149242600Y-93319600D02*
X150893600Y-93319600D01*
X156227600Y-94462600D02*
X156227600Y-101447600D01*
X148099600Y-101447600D02*
X148099600Y-94462600D01*
X156227600Y-101447600D02*
X153433600Y-101447600D01*
X148099600Y-101447600D02*
X150893600Y-101447600D01*
X148099600Y-94462600D02*
X149213600Y-93333600D01*
X150944400Y-93726000D02*
G75*
G03*
X150944400Y-101041200I1219200J-3657600D01*
G01*
X153382800Y-101041200D02*
G75*
G03*
X153382800Y-93726000I-1219200J3657600D01*
G01*
%TO.C,SOT-223-1*%
X117327700Y-85752600D02*
X117327700Y-89054600D01*
X117327700Y-89054600D02*
X110774500Y-89054600D01*
X110774500Y-89054600D02*
X110774500Y-85752600D01*
X110774500Y-85752600D02*
X117327700Y-85752600D01*
%TO.C,E$20*%
G36*
X163763232Y-116653600D02*
G01*
X163551100Y-116865732D01*
X163338968Y-116653600D01*
X163551100Y-116441468D01*
X163763232Y-116653600D01*
G37*
%TO.C,E$21*%
G36*
X165013232Y-116653600D02*
G01*
X164801100Y-116865732D01*
X164588968Y-116653600D01*
X164801100Y-116441468D01*
X165013232Y-116653600D01*
G37*
%TO.C,E$2*%
G36*
X163451100Y-114553600D02*
G01*
X163151100Y-114553600D01*
X163151100Y-114253600D01*
X163451100Y-114253600D01*
X163451100Y-114553600D01*
G37*
%TO.C,E$22*%
G36*
X166263232Y-116653600D02*
G01*
X166051100Y-116865732D01*
X165838968Y-116653600D01*
X166051100Y-116441468D01*
X166263232Y-116653600D01*
G37*
%TO.C,E$19*%
G36*
X162513232Y-116653600D02*
G01*
X162301100Y-116865732D01*
X162088968Y-116653600D01*
X162301100Y-116441468D01*
X162513232Y-116653600D01*
G37*
%TO.C,SOT-252-1*%
X128710100Y-84126600D02*
X128710100Y-90680600D01*
X128710100Y-90680600D02*
X122715700Y-90680200D01*
X122715700Y-84127000D02*
X128710100Y-84126600D01*
G36*
X129573700Y-87835400D02*
G01*
X128811700Y-87835400D01*
X128811700Y-86971800D01*
X129573700Y-86971800D01*
X129573700Y-87835400D01*
G37*
%TO.C,E$14*%
G36*
X166201100Y-115803600D02*
G01*
X165901100Y-115803600D01*
X165901100Y-115503600D01*
X166201100Y-115503600D01*
X166201100Y-115803600D01*
G37*
%TO.C,E$6*%
G36*
X167451100Y-114553600D02*
G01*
X167151100Y-114553600D01*
X167151100Y-114253600D01*
X167451100Y-114253600D01*
X167451100Y-114553600D01*
G37*
%TO.C,E$16*%
G36*
X168701100Y-115803600D02*
G01*
X168401100Y-115803600D01*
X168401100Y-115503600D01*
X168701100Y-115503600D01*
X168701100Y-115803600D01*
G37*
D15*
%TO.C,TQFP-32-1*%
X144507919Y-94903600D02*
X139551100Y-99860419D01*
X134845304Y-94652577D02*
X134845304Y-95154623D01*
X139551100Y-89946781D02*
X144507919Y-94903600D01*
X134845304Y-94652577D02*
X139551100Y-89946781D01*
X139551100Y-99860419D02*
X134845304Y-95154623D01*
X136030829Y-94903600D02*
G75*
G03*
X136030829Y-94903600I-359200J0D01*
G01*
%TO.C,E1*%
G36*
X162451100Y-114553600D02*
G01*
X162151100Y-114553600D01*
X162151100Y-114253600D01*
X162451100Y-114253600D01*
X162451100Y-114553600D01*
G37*
%TO.C,E$24*%
G36*
X168763232Y-116653600D02*
G01*
X168551100Y-116865732D01*
X168338968Y-116653600D01*
X168551100Y-116441468D01*
X168763232Y-116653600D01*
G37*
%TO.C,E27*%
G36*
X162451100Y-118053600D02*
G01*
X162151100Y-118053600D01*
X162151100Y-117753600D01*
X162451100Y-117753600D01*
X162451100Y-118053600D01*
G37*
%TO.C,E36*%
G36*
X171451100Y-118053600D02*
G01*
X171151100Y-118053600D01*
X171151100Y-117753600D01*
X171451100Y-117753600D01*
X171451100Y-118053600D01*
G37*
%TO.C,E10*%
G36*
X171451100Y-114553600D02*
G01*
X171151100Y-114553600D01*
X171151100Y-114253600D01*
X171451100Y-114253600D01*
X171451100Y-114553600D01*
G37*
%TO.C,E18*%
G36*
X171201100Y-115803600D02*
G01*
X170901100Y-115803600D01*
X170901100Y-115503600D01*
X171201100Y-115503600D01*
X171201100Y-115803600D01*
G37*
%TO.C,E$17*%
G36*
X169951100Y-115803600D02*
G01*
X169651100Y-115803600D01*
X169651100Y-115503600D01*
X169951100Y-115503600D01*
X169951100Y-115803600D01*
G37*
%TO.C,E$9*%
G36*
X170451100Y-114553600D02*
G01*
X170151100Y-114553600D01*
X170151100Y-114253600D01*
X170451100Y-114253600D01*
X170451100Y-114553600D01*
G37*
%TO.C,E$35*%
G36*
X170451100Y-118053600D02*
G01*
X170151100Y-118053600D01*
X170151100Y-117753600D01*
X170451100Y-117753600D01*
X170451100Y-118053600D01*
G37*
%TO.C,E$32*%
G36*
X167451100Y-118053600D02*
G01*
X167151100Y-118053600D01*
X167151100Y-117753600D01*
X167451100Y-117753600D01*
X167451100Y-118053600D01*
G37*
%TD*%
M02*
