%TF.GenerationSoftware,KiCad,Pcbnew,6.0.11-2627ca5db0~126~ubuntu20.04.1*%
%TF.CreationDate,2023-07-21T22:08:40+02:00*%
%TF.ProjectId,Demo Board v2,44656d6f-2042-46f6-9172-642076322e6b,rev?*%
%TF.SameCoordinates,Original*%
%TF.FileFunction,Copper,L1,Top*%
%TF.FilePolarity,Positive*%
%FSLAX46Y46*%
G04 Gerber Fmt 4.6, Leading zero omitted, Abs format (unit mm)*
G04 Created by KiCad (PCBNEW 6.0.11-2627ca5db0~126~ubuntu20.04.1) date 2023-07-21 22:08:40*
%MOMM*%
%LPD*%
G01*
G04 APERTURE LIST*
G04 Aperture macros list*
%AMRoundRect*
0 Rectangle with rounded corners*
0 $1 Rounding radius*
0 $2 $3 $4 $5 $6 $7 $8 $9 X,Y pos of 4 corners*
0 Add a 4 corners polygon primitive as box body*
4,1,4,$2,$3,$4,$5,$6,$7,$8,$9,$2,$3,0*
0 Add four circle primitives for the rounded corners*
1,1,$1+$1,$2,$3*
1,1,$1+$1,$4,$5*
1,1,$1+$1,$6,$7*
1,1,$1+$1,$8,$9*
0 Add four rect primitives between the rounded corners*
20,1,$1+$1,$2,$3,$4,$5,0*
20,1,$1+$1,$4,$5,$6,$7,0*
20,1,$1+$1,$6,$7,$8,$9,0*
20,1,$1+$1,$8,$9,$2,$3,0*%
%AMRotRect*
0 Rectangle, with rotation*
0 The origin of the aperture is its center*
0 $1 length*
0 $2 width*
0 $3 Rotation angle, in degrees counterclockwise*
0 Add horizontal line*
21,1,$1,$2,0,0,$3*%
G04 Aperture macros list end*
%TA.AperFunction,SMDPad,CuDef*%
%ADD10C,0.250000*%
%TD*%
%TA.AperFunction,SMDPad,CuDef*%
%ADD11RotRect,0.280000X0.430000X135.000000*%
%TD*%
%TA.AperFunction,SMDPad,CuDef*%
%ADD12R,1.300000X1.500000*%
%TD*%
%TA.AperFunction,SMDPad,CuDef*%
%ADD13RotRect,1.000000X1.100000X45.000000*%
%TD*%
%TA.AperFunction,SMDPad,CuDef*%
%ADD14R,1.600000X1.803000*%
%TD*%
%TA.AperFunction,SMDPad,CuDef*%
%ADD15R,0.280000X0.430000*%
%TD*%
%TA.AperFunction,SMDPad,CuDef*%
%ADD16RotRect,1.300000X1.500000X135.000000*%
%TD*%
%TA.AperFunction,SMDPad,CuDef*%
%ADD17R,0.430000X0.280000*%
%TD*%
%TA.AperFunction,SMDPad,CuDef*%
%ADD18R,0.270000X1.500000*%
%TD*%
%TA.AperFunction,SMDPad,CuDef*%
%ADD19R,1.500000X0.270000*%
%TD*%
%TA.AperFunction,SMDPad,CuDef*%
%ADD20RotRect,1.000000X1.100000X225.000000*%
%TD*%
%TA.AperFunction,SMDPad,CuDef*%
%ADD21RotRect,0.800000X0.900000X120.000000*%
%TD*%
%TA.AperFunction,SMDPad,CuDef*%
%ADD22RoundRect,0.500000X0.000000X0.000000X0.000000X0.000000X0.000000X0.000000X0.000000X0.000000X0*%
%TD*%
%TA.AperFunction,SMDPad,CuDef*%
%ADD23RoundRect,0.070000X-0.280000X-0.070000X0.280000X-0.070000X0.280000X0.070000X-0.280000X0.070000X0*%
%TD*%
%TA.AperFunction,SMDPad,CuDef*%
%ADD24R,0.700000X0.280000*%
%TD*%
%TA.AperFunction,SMDPad,CuDef*%
%ADD25RoundRect,0.070000X-0.070000X-0.280000X0.070000X-0.280000X0.070000X0.280000X-0.070000X0.280000X0*%
%TD*%
%TA.AperFunction,SMDPad,CuDef*%
%ADD26R,0.280000X0.700000*%
%TD*%
%TA.AperFunction,SMDPad,CuDef*%
%ADD27R,3.500000X3.500000*%
%TD*%
%TA.AperFunction,SMDPad,CuDef*%
%ADD28R,0.250000X0.250000*%
%TD*%
%TA.AperFunction,SMDPad,CuDef*%
%ADD29R,1.905000X3.810000*%
%TD*%
%TA.AperFunction,SMDPad,CuDef*%
%ADD30RotRect,0.280000X0.430000X45.000000*%
%TD*%
%TA.AperFunction,SMDPad,CuDef*%
%ADD31RotRect,1.600000X1.803000X315.000000*%
%TD*%
%TA.AperFunction,SMDPad,CuDef*%
%ADD32R,0.700000X0.900000*%
%TD*%
%TA.AperFunction,SMDPad,CuDef*%
%ADD33RotRect,0.700000X0.900000X135.000000*%
%TD*%
%TA.AperFunction,SMDPad,CuDef*%
%ADD34R,0.900000X0.700000*%
%TD*%
%TA.AperFunction,SMDPad,CuDef*%
%ADD35RotRect,1.300000X1.500000X225.000000*%
%TD*%
%TA.AperFunction,SMDPad,CuDef*%
%ADD36R,1.100000X1.000000*%
%TD*%
%TA.AperFunction,SMDPad,CuDef*%
%ADD37RotRect,0.800000X0.900000X60.000000*%
%TD*%
%TA.AperFunction,SMDPad,CuDef*%
%ADD38R,0.800000X0.900000*%
%TD*%
%TA.AperFunction,SMDPad,CuDef*%
%ADD39R,1.000000X1.100000*%
%TD*%
%TA.AperFunction,SMDPad,CuDef*%
%ADD40RotRect,0.700000X0.900000X45.000000*%
%TD*%
%TA.AperFunction,SMDPad,CuDef*%
%ADD41R,0.304800X0.990600*%
%TD*%
%TA.AperFunction,SMDPad,CuDef*%
%ADD42RotRect,1.000000X1.100000X315.000000*%
%TD*%
%TA.AperFunction,SMDPad,CuDef*%
%ADD43R,4.000000X1.800000*%
%TD*%
%TA.AperFunction,SMDPad,CuDef*%
%ADD44RotRect,1.600000X1.803000X45.000000*%
%TD*%
%TA.AperFunction,SMDPad,CuDef*%
%ADD45R,1.500000X1.300000*%
%TD*%
%TA.AperFunction,SMDPad,CuDef*%
%ADD46RotRect,0.800000X0.900000X300.000000*%
%TD*%
%TA.AperFunction,SMDPad,CuDef*%
%ADD47RotRect,0.800000X0.900000X240.000000*%
%TD*%
%TA.AperFunction,SMDPad,CuDef*%
%ADD48R,1.219200X2.235200*%
%TD*%
%TA.AperFunction,SMDPad,CuDef*%
%ADD49R,3.600000X2.200000*%
%TD*%
%TA.AperFunction,SMDPad,CuDef*%
%ADD50RotRect,1.000000X1.100000X135.000000*%
%TD*%
%TA.AperFunction,SMDPad,CuDef*%
%ADD51R,1.600000X1.000000*%
%TD*%
%TA.AperFunction,SMDPad,CuDef*%
%ADD52R,6.200000X5.400000*%
%TD*%
%TA.AperFunction,SMDPad,CuDef*%
%ADD53RotRect,1.300000X1.500000X45.000000*%
%TD*%
%TA.AperFunction,SMDPad,CuDef*%
%ADD54RotRect,1.300000X1.500000X315.000000*%
%TD*%
%TA.AperFunction,SMDPad,CuDef*%
%ADD55RotRect,1.270000X0.558800X45.000000*%
%TD*%
%TA.AperFunction,SMDPad,CuDef*%
%ADD56RotRect,0.558800X1.270000X45.000000*%
%TD*%
%TA.AperFunction,SMDPad,CuDef*%
%ADD57R,1.803000X1.600000*%
%TD*%
%TA.AperFunction,SMDPad,CuDef*%
%ADD58RotRect,1.600000X1.803000X225.000000*%
%TD*%
%TA.AperFunction,SMDPad,CuDef*%
%ADD59RotRect,1.800000X4.000000X45.000000*%
%TD*%
%TA.AperFunction,SMDPad,CuDef*%
%ADD60RotRect,1.600000X1.803000X135.000000*%
%TD*%
%TA.AperFunction,SMDPad,CuDef*%
%ADD61R,2.200000X0.600000*%
%TD*%
%TA.AperFunction,ViaPad*%
%ADD62C,0.904800*%
%TD*%
%TA.AperFunction,Conductor*%
%ADD63C,0.154000*%
%TD*%
G04 APERTURE END LIST*
D10*
%TO.P,TLI493d,A1*%
%TO.N,N/C*%
X172542000Y-112100000D03*
%TO.P,TLI493d,A3*%
X172542000Y-111642000D03*
%TO.P,TLI493d,B2*%
X172871000Y-111871000D03*
%TO.P,TLI493d,C1*%
X173200000Y-112100000D03*
%TO.P,TLI493d,C3*%
X173200000Y-111642000D03*
%TD*%
%TO.P,TLI493d,A1*%
%TO.N,N/C*%
X172542000Y-111100000D03*
%TO.P,TLI493d,A3*%
X172542000Y-110642000D03*
%TO.P,TLI493d,B2*%
X172871000Y-110871000D03*
%TO.P,TLI493d,C1*%
X173200000Y-111100000D03*
%TO.P,TLI493d,C3*%
X173200000Y-110642000D03*
%TD*%
%TO.P,TLI493d,A1*%
%TO.N,N/C*%
X172542000Y-110100000D03*
%TO.P,TLI493d,A3*%
X172542000Y-109642000D03*
%TO.P,TLI493d,B2*%
X172871000Y-109871000D03*
%TO.P,TLI493d,C1*%
X173200000Y-110100000D03*
%TO.P,TLI493d,C3*%
X173200000Y-109642000D03*
%TD*%
%TO.P,TLI493d,A1*%
%TO.N,N/C*%
X174942000Y-112100000D03*
%TO.P,TLI493d,A3*%
X174942000Y-111642000D03*
%TO.P,TLI493d,B2*%
X175271000Y-111871000D03*
%TO.P,TLI493d,C1*%
X175600000Y-112100000D03*
%TO.P,TLI493d,C3*%
X175600000Y-111642000D03*
%TD*%
%TO.P,TLI493d,A1*%
%TO.N,N/C*%
X173742000Y-112100000D03*
%TO.P,TLI493d,A3*%
X173742000Y-111642000D03*
%TO.P,TLI493d,B2*%
X174071000Y-111871000D03*
%TO.P,TLI493d,C1*%
X174400000Y-112100000D03*
%TO.P,TLI493d,C3*%
X174400000Y-111642000D03*
%TD*%
%TO.P,TLI493d,A1*%
%TO.N,N/C*%
X174942000Y-111100000D03*
%TO.P,TLI493d,A3*%
X174942000Y-110642000D03*
%TO.P,TLI493d,B2*%
X175271000Y-110871000D03*
%TO.P,TLI493d,C1*%
X175600000Y-111100000D03*
%TO.P,TLI493d,C3*%
X175600000Y-110642000D03*
%TD*%
%TO.P,TLI493d,A1*%
%TO.N,N/C*%
X174942000Y-110100000D03*
%TO.P,TLI493d,A3*%
X174942000Y-109642000D03*
%TO.P,TLI493d,B2*%
X175271000Y-109871000D03*
%TO.P,TLI493d,C1*%
X175600000Y-110100000D03*
%TO.P,TLI493d,C3*%
X175600000Y-109642000D03*
%TD*%
%TO.P,TLI493d,A1*%
%TO.N,N/C*%
X173742000Y-110100000D03*
%TO.P,TLI493d,A3*%
X173742000Y-109642000D03*
%TO.P,TLI493d,B2*%
X174071000Y-109871000D03*
%TO.P,TLI493d,C1*%
X174400000Y-110100000D03*
%TO.P,TLI493d,C3*%
X174400000Y-109642000D03*
%TD*%
%TO.P,TLI493d,A1*%
%TO.N,N/C*%
X173742000Y-111100000D03*
%TO.P,TLI493d,A3*%
X173742000Y-110642000D03*
%TO.P,TLI493d,B2*%
X174071000Y-110871000D03*
%TO.P,TLI493d,C1*%
X174400000Y-111100000D03*
%TO.P,TLI493d,C3*%
X174400000Y-110642000D03*
%TD*%
D11*
%TO.P,E$26,1*%
%TO.N,N/C*%
X171231412Y-116833912D03*
%TO.P,E$26,2*%
X170870788Y-116473288D03*
%TD*%
D12*
%TO.P,R0805-1,1*%
%TO.N,N/C*%
X122781100Y-101193600D03*
%TO.P,R0805-1,2*%
X120881100Y-101193600D03*
%TD*%
D13*
%TO.P,R0603-8,1*%
%TO.N,N/C*%
X115896059Y-107827141D03*
%TO.P,R0603-8,2*%
X117098141Y-106625059D03*
%TD*%
D14*
%TO.P,R1206-5,1*%
%TO.N,N/C*%
X123253100Y-127863600D03*
%TO.P,R1206-5,2*%
X120409100Y-127863600D03*
%TD*%
D15*
%TO.P,E$12,1*%
%TO.N,N/C*%
X163806100Y-115653600D03*
%TO.P,E$12,2*%
X163296100Y-115653600D03*
%TD*%
D16*
%TO.P,R0805-6,1*%
%TO.N,N/C*%
X114510879Y-121287326D03*
%TO.P,R0805-6,2*%
X113167377Y-119943824D03*
%TD*%
D17*
%TO.P,E$8,1*%
%TO.N,N/C*%
X169301100Y-114658600D03*
%TO.P,E$8,2*%
X169301100Y-114148600D03*
%TD*%
D18*
%TO.P,TQFP-100,1*%
%TO.N,N/C*%
X155801100Y-108653600D03*
%TO.P,TQFP-100,2*%
X155301100Y-108653600D03*
%TO.P,TQFP-100,3*%
X154801100Y-108653600D03*
%TO.P,TQFP-100,4*%
X154301100Y-108653600D03*
%TO.P,TQFP-100,5*%
X153801100Y-108653600D03*
%TO.P,TQFP-100,6*%
X153301100Y-108653600D03*
%TO.P,TQFP-100,7*%
X152801100Y-108653600D03*
%TO.P,TQFP-100,8*%
X152301100Y-108653600D03*
%TO.P,TQFP-100,9*%
X151801100Y-108653600D03*
%TO.P,TQFP-100,10*%
X151301100Y-108653600D03*
%TO.P,TQFP-100,11*%
X150801100Y-108653600D03*
%TO.P,TQFP-100,12*%
X150301100Y-108653600D03*
%TO.P,TQFP-100,13*%
X149801100Y-108653600D03*
%TO.P,TQFP-100,14*%
X149301100Y-108653600D03*
%TO.P,TQFP-100,15*%
X148801100Y-108653600D03*
%TO.P,TQFP-100,16*%
X148301100Y-108653600D03*
%TO.P,TQFP-100,17*%
X147801100Y-108653600D03*
%TO.P,TQFP-100,18*%
X147301100Y-108653600D03*
%TO.P,TQFP-100,19*%
X146801100Y-108653600D03*
%TO.P,TQFP-100,20*%
X146301100Y-108653600D03*
%TO.P,TQFP-100,21*%
X145801100Y-108653600D03*
%TO.P,TQFP-100,22*%
X145301100Y-108653600D03*
%TO.P,TQFP-100,23*%
X144801100Y-108653600D03*
%TO.P,TQFP-100,24*%
X144301100Y-108653600D03*
%TO.P,TQFP-100,25*%
X143801100Y-108653600D03*
D19*
%TO.P,TQFP-100,26*%
X142051100Y-110403600D03*
%TO.P,TQFP-100,27*%
X142051100Y-110903600D03*
%TO.P,TQFP-100,28*%
X142051100Y-111403600D03*
%TO.P,TQFP-100,29*%
X142051100Y-111903600D03*
%TO.P,TQFP-100,30*%
X142051100Y-112403600D03*
%TO.P,TQFP-100,31*%
X142051100Y-112903600D03*
%TO.P,TQFP-100,32*%
X142051100Y-113403600D03*
%TO.P,TQFP-100,33*%
X142051100Y-113903600D03*
%TO.P,TQFP-100,34*%
X142051100Y-114403600D03*
%TO.P,TQFP-100,35*%
X142051100Y-114903600D03*
%TO.P,TQFP-100,36*%
X142051100Y-115403600D03*
%TO.P,TQFP-100,37*%
X142051100Y-115903600D03*
%TO.P,TQFP-100,38*%
X142051100Y-116403600D03*
%TO.P,TQFP-100,39*%
X142051100Y-116903600D03*
%TO.P,TQFP-100,40*%
X142051100Y-117403600D03*
%TO.P,TQFP-100,41*%
X142051100Y-117903600D03*
%TO.P,TQFP-100,42*%
X142051100Y-118403600D03*
%TO.P,TQFP-100,43*%
X142051100Y-118903600D03*
%TO.P,TQFP-100,44*%
X142051100Y-119403600D03*
%TO.P,TQFP-100,45*%
X142051100Y-119903600D03*
%TO.P,TQFP-100,46*%
X142051100Y-120403600D03*
%TO.P,TQFP-100,47*%
X142051100Y-120903600D03*
%TO.P,TQFP-100,48*%
X142051100Y-121403600D03*
%TO.P,TQFP-100,49*%
X142051100Y-121903600D03*
%TO.P,TQFP-100,50*%
X142051100Y-122403600D03*
D18*
%TO.P,TQFP-100,51*%
X143801100Y-124153600D03*
%TO.P,TQFP-100,52*%
X144301100Y-124153600D03*
%TO.P,TQFP-100,53*%
X144801100Y-124153600D03*
%TO.P,TQFP-100,54*%
X145301100Y-124153600D03*
%TO.P,TQFP-100,55*%
X145801100Y-124153600D03*
%TO.P,TQFP-100,56*%
X146301100Y-124153600D03*
%TO.P,TQFP-100,57*%
X146801100Y-124153600D03*
%TO.P,TQFP-100,58*%
X147301100Y-124153600D03*
%TO.P,TQFP-100,59*%
X147801100Y-124153600D03*
%TO.P,TQFP-100,60*%
X148301100Y-124153600D03*
%TO.P,TQFP-100,61*%
X148801100Y-124153600D03*
%TO.P,TQFP-100,62*%
X149301100Y-124153600D03*
%TO.P,TQFP-100,63*%
X149801100Y-124153600D03*
%TO.P,TQFP-100,64*%
X150301100Y-124153600D03*
%TO.P,TQFP-100,65*%
X150801100Y-124153600D03*
%TO.P,TQFP-100,66*%
X151301100Y-124153600D03*
%TO.P,TQFP-100,67*%
X151801100Y-124153600D03*
%TO.P,TQFP-100,68*%
X152301100Y-124153600D03*
%TO.P,TQFP-100,69*%
X152801100Y-124153600D03*
%TO.P,TQFP-100,70*%
X153301100Y-124153600D03*
%TO.P,TQFP-100,71*%
X153801100Y-124153600D03*
%TO.P,TQFP-100,72*%
X154301100Y-124153600D03*
%TO.P,TQFP-100,73*%
X154801100Y-124153600D03*
%TO.P,TQFP-100,74*%
X155301100Y-124153600D03*
%TO.P,TQFP-100,75*%
X155801100Y-124153600D03*
D19*
%TO.P,TQFP-100,76*%
X157551100Y-122403600D03*
%TO.P,TQFP-100,77*%
X157551100Y-121903600D03*
%TO.P,TQFP-100,78*%
X157551100Y-121403600D03*
%TO.P,TQFP-100,79*%
X157551100Y-120903600D03*
%TO.P,TQFP-100,80*%
X157551100Y-120403600D03*
%TO.P,TQFP-100,81*%
X157551100Y-119903600D03*
%TO.P,TQFP-100,82*%
X157551100Y-119403600D03*
%TO.P,TQFP-100,83*%
X157551100Y-118903600D03*
%TO.P,TQFP-100,84*%
X157551100Y-118403600D03*
%TO.P,TQFP-100,85*%
X157551100Y-117903600D03*
%TO.P,TQFP-100,86*%
X157551100Y-117403600D03*
%TO.P,TQFP-100,87*%
X157551100Y-116903600D03*
%TO.P,TQFP-100,88*%
X157551100Y-116403600D03*
%TO.P,TQFP-100,89*%
X157551100Y-115903600D03*
%TO.P,TQFP-100,90*%
X157551100Y-115403600D03*
%TO.P,TQFP-100,91*%
X157551100Y-114903600D03*
%TO.P,TQFP-100,92*%
X157551100Y-114403600D03*
%TO.P,TQFP-100,93*%
X157551100Y-113903600D03*
%TO.P,TQFP-100,94*%
X157551100Y-113403600D03*
%TO.P,TQFP-100,95*%
X157551100Y-112903600D03*
%TO.P,TQFP-100,96*%
X157551100Y-112403600D03*
%TO.P,TQFP-100,97*%
X157551100Y-111903600D03*
%TO.P,TQFP-100,98*%
X157551100Y-111403600D03*
%TO.P,TQFP-100,99*%
X157551100Y-110903600D03*
%TO.P,TQFP-100,100*%
X157551100Y-110403600D03*
%TD*%
D15*
%TO.P,E$15,1*%
%TO.N,N/C*%
X167556100Y-115653600D03*
%TO.P,E$15,2*%
X167046100Y-115653600D03*
%TD*%
D20*
%TO.P,R0603-4,1*%
%TO.N,N/C*%
X127829641Y-117420059D03*
%TO.P,R0603-4,2*%
X126627559Y-118622141D03*
%TD*%
D21*
%TO.P,SOT-23-2,1*%
%TO.N,N/C*%
X186037125Y-119931324D03*
%TO.P,SOT-23-2,2*%
X185087125Y-118285876D03*
%TO.P,SOT-23-2,3*%
X183830075Y-120108600D03*
%TD*%
D22*
%TO.P,FID-1,1*%
%TO.N,N/C*%
X107861100Y-126593600D03*
%TD*%
D17*
%TO.P,E$33,1*%
%TO.N,N/C*%
X168301100Y-118158600D03*
%TO.P,E$33,2*%
X168301100Y-117648600D03*
%TD*%
D23*
%TO.P,QFN-32,1*%
%TO.N,N/C*%
X163931100Y-108003600D03*
D24*
%TO.P,QFN-32,2*%
X163931100Y-108503600D03*
%TO.P,QFN-32,3*%
X163931100Y-109003600D03*
%TO.P,QFN-32,4*%
X163931100Y-109503600D03*
%TO.P,QFN-32,5*%
X163931100Y-110003600D03*
%TO.P,QFN-32,6*%
X163931100Y-110503600D03*
%TO.P,QFN-32,7*%
X163931100Y-111003600D03*
D23*
%TO.P,QFN-32,8*%
X163931100Y-111503600D03*
D25*
%TO.P,QFN-32,9*%
X164531100Y-112103600D03*
D26*
%TO.P,QFN-32,10*%
X165031100Y-112103600D03*
%TO.P,QFN-32,11*%
X165531100Y-112103600D03*
%TO.P,QFN-32,12*%
X166031100Y-112103600D03*
%TO.P,QFN-32,13*%
X166531100Y-112103600D03*
%TO.P,QFN-32,14*%
X167031100Y-112103600D03*
%TO.P,QFN-32,15*%
X167531100Y-112103600D03*
D25*
%TO.P,QFN-32,16*%
X168031100Y-112103600D03*
D23*
%TO.P,QFN-32,17*%
X168631100Y-111503600D03*
D24*
%TO.P,QFN-32,18*%
X168631100Y-111003600D03*
%TO.P,QFN-32,19*%
X168631100Y-110503600D03*
%TO.P,QFN-32,20*%
X168631100Y-110003600D03*
%TO.P,QFN-32,21*%
X168631100Y-109503600D03*
%TO.P,QFN-32,22*%
X168631100Y-109003600D03*
%TO.P,QFN-32,23*%
X168631100Y-108503600D03*
D23*
%TO.P,QFN-32,24*%
X168631100Y-108003600D03*
D25*
%TO.P,QFN-32,25*%
X168031100Y-107403600D03*
D26*
%TO.P,QFN-32,26*%
X167531100Y-107403600D03*
%TO.P,QFN-32,27*%
X167031100Y-107403600D03*
%TO.P,QFN-32,28*%
X166531100Y-107403600D03*
%TO.P,QFN-32,29*%
X166031100Y-107403600D03*
%TO.P,QFN-32,30*%
X165531100Y-107403600D03*
%TO.P,QFN-32,31*%
X165031100Y-107403600D03*
D25*
%TO.P,QFN-32,32*%
X164531100Y-107403600D03*
D27*
%TO.P,QFN-32,EXP*%
X166281100Y-109753600D03*
D28*
%TO.P,QFN-32,M1*%
X163866100Y-107338600D03*
%TD*%
D29*
%TO.P,C2,+*%
%TO.N,N/C*%
X162449100Y-100812600D03*
%TO.P,C2,-*%
X162449100Y-93954600D03*
%TD*%
D30*
%TO.P,E$25,1*%
%TO.N,N/C*%
X169620788Y-116833912D03*
%TO.P,E$25,2*%
X169981412Y-116473288D03*
%TD*%
D31*
%TO.P,R1206-6,1*%
%TO.N,N/C*%
X110030594Y-122413094D03*
%TO.P,R1206-6,2*%
X112041606Y-124424106D03*
%TD*%
D32*
%TO.P,R0402-7,1*%
%TO.N,N/C*%
X118925100Y-112623600D03*
%TO.P,R0402-7,2*%
X117625100Y-112623600D03*
%TD*%
D33*
%TO.P,R0402-4,1*%
%TO.N,N/C*%
X124830719Y-115623219D03*
%TO.P,R0402-4,2*%
X123911481Y-114703981D03*
%TD*%
D17*
%TO.P,E$30,1*%
%TO.N,N/C*%
X165301100Y-118158600D03*
%TO.P,E$30,2*%
X165301100Y-117648600D03*
%TD*%
D15*
%TO.P,E$13,1*%
%TO.N,N/C*%
X165056100Y-115653600D03*
%TO.P,E$13,2*%
X164546100Y-115653600D03*
%TD*%
D17*
%TO.P,E$29,1*%
%TO.N,N/C*%
X164301100Y-118158600D03*
%TO.P,E$29,2*%
X164301100Y-117648600D03*
%TD*%
%TO.P,E$5,1*%
%TO.N,N/C*%
X166301100Y-114658600D03*
%TO.P,E$5,2*%
X166301100Y-114148600D03*
%TD*%
D34*
%TO.P,R0402-1,1*%
%TO.N,N/C*%
X121831100Y-108417600D03*
%TO.P,R0402-1,2*%
X121831100Y-109717600D03*
%TD*%
D35*
%TO.P,R0805-4,1*%
%TO.N,N/C*%
X130494826Y-119943821D03*
%TO.P,R0805-4,2*%
X129151324Y-121287323D03*
%TD*%
D32*
%TO.P,R0402-3,1*%
%TO.N,N/C*%
X124737100Y-112623600D03*
%TO.P,R0402-3,2*%
X126037100Y-112623600D03*
%TD*%
D36*
%TO.P,R0603-3,1*%
%TO.N,N/C*%
X129451100Y-111773600D03*
%TO.P,R0603-3,2*%
X129451100Y-113473600D03*
%TD*%
D37*
%TO.P,SOT-23-3,1*%
%TO.N,N/C*%
X185087125Y-126011324D03*
%TO.P,SOT-23-3,2*%
X186037125Y-124365876D03*
%TO.P,SOT-23-3,3*%
X183830075Y-124188600D03*
%TD*%
D22*
%TO.P,FID-4,1*%
%TO.N,N/C*%
X189141100Y-126593600D03*
%TD*%
D12*
%TO.P,R0805-5,1*%
%TO.N,N/C*%
X120881100Y-124053600D03*
%TO.P,R0805-5,2*%
X122781100Y-124053600D03*
%TD*%
D17*
%TO.P,E$4,1*%
%TO.N,N/C*%
X165301100Y-114658600D03*
%TO.P,E$4,2*%
X165301100Y-114148600D03*
%TD*%
D30*
%TO.P,E$23,1*%
%TO.N,N/C*%
X167120788Y-116833912D03*
%TO.P,E$23,2*%
X167481412Y-116473288D03*
%TD*%
D38*
%TO.P,SOT-23-4,1*%
%TO.N,N/C*%
X179301100Y-128228600D03*
%TO.P,SOT-23-4,2*%
X181201100Y-128228600D03*
%TO.P,SOT-23-4,3*%
X180251100Y-126228600D03*
%TD*%
D36*
%TO.P,R0603-7,1*%
%TO.N,N/C*%
X114211100Y-111773600D03*
%TO.P,R0603-7,2*%
X114211100Y-113473600D03*
%TD*%
D14*
%TO.P,R1206-1,1*%
%TO.N,N/C*%
X120409100Y-97383600D03*
%TO.P,R1206-1,2*%
X123253100Y-97383600D03*
%TD*%
D39*
%TO.P,R0603-5,1*%
%TO.N,N/C*%
X122681100Y-120243600D03*
%TO.P,R0603-5,2*%
X120981100Y-120243600D03*
%TD*%
D40*
%TO.P,R0402-6,1*%
%TO.N,N/C*%
X118831481Y-115623219D03*
%TO.P,R0402-6,2*%
X119750719Y-114703981D03*
%TD*%
D41*
%TO.P,TSSOP-20,1*%
%TO.N,N/C*%
X177376100Y-114321400D03*
%TO.P,TSSOP-20,2*%
X178026100Y-114321400D03*
%TO.P,TSSOP-20,3*%
X178676100Y-114321400D03*
%TO.P,TSSOP-20,4*%
X179326100Y-114321400D03*
%TO.P,TSSOP-20,5*%
X179976100Y-114321400D03*
%TO.P,TSSOP-20,6*%
X180626100Y-114321400D03*
%TO.P,TSSOP-20,7*%
X181276100Y-114321400D03*
%TO.P,TSSOP-20,8*%
X181926100Y-114321400D03*
%TO.P,TSSOP-20,9*%
X182576100Y-114321400D03*
%TO.P,TSSOP-20,10*%
X183226100Y-114321400D03*
%TO.P,TSSOP-20,11*%
X183226100Y-108485800D03*
%TO.P,TSSOP-20,12*%
X182576100Y-108485800D03*
%TO.P,TSSOP-20,13*%
X181926100Y-108485800D03*
%TO.P,TSSOP-20,14*%
X181276100Y-108485800D03*
%TO.P,TSSOP-20,15*%
X180626100Y-108485800D03*
%TO.P,TSSOP-20,16*%
X179976100Y-108485800D03*
%TO.P,TSSOP-20,17*%
X179326100Y-108485800D03*
%TO.P,TSSOP-20,18*%
X178676100Y-108485800D03*
%TO.P,TSSOP-20,19*%
X178026100Y-108485800D03*
%TO.P,TSSOP-20,20*%
X177376100Y-108485800D03*
%TD*%
D42*
%TO.P,R0603-6,1*%
%TO.N,N/C*%
X115832559Y-117420059D03*
%TO.P,R0603-6,2*%
X117034641Y-118622141D03*
%TD*%
D17*
%TO.P,E$28,1*%
%TO.N,N/C*%
X163301100Y-118158600D03*
%TO.P,E$28,2*%
X163301100Y-117648600D03*
%TD*%
%TO.P,E$34,1*%
%TO.N,N/C*%
X169301100Y-118158600D03*
%TO.P,E$34,2*%
X169301100Y-117648600D03*
%TD*%
D15*
%TO.P,E11,1*%
%TO.N,N/C*%
X162556100Y-115653600D03*
%TO.P,E11,2*%
X162046100Y-115653600D03*
%TD*%
D43*
%TO.P,L2,1*%
%TO.N,N/C*%
X171501100Y-94903600D03*
%TO.P,L2,2*%
X171501100Y-99903600D03*
%TD*%
D17*
%TO.P,E$7,1*%
%TO.N,N/C*%
X168301100Y-114658600D03*
%TO.P,E$7,2*%
X168301100Y-114148600D03*
%TD*%
D40*
%TO.P,R0402-2,1*%
%TO.N,N/C*%
X123911481Y-110543219D03*
%TO.P,R0402-2,2*%
X124830719Y-109623981D03*
%TD*%
D44*
%TO.P,R1206-8,1*%
%TO.N,N/C*%
X110030594Y-102834106D03*
%TO.P,R1206-8,2*%
X112041606Y-100823094D03*
%TD*%
D45*
%TO.P,R0805-3,1*%
%TO.N,N/C*%
X133261100Y-111673600D03*
%TO.P,R0805-3,2*%
X133261100Y-113573600D03*
%TD*%
D17*
%TO.P,E$3,1*%
%TO.N,N/C*%
X164301100Y-114658600D03*
%TO.P,E$3,2*%
X164301100Y-114148600D03*
%TD*%
D46*
%TO.P,SOT-23-5,1*%
%TO.N,N/C*%
X174465075Y-124365876D03*
%TO.P,SOT-23-5,2*%
X175415075Y-126011324D03*
%TO.P,SOT-23-5,3*%
X176672125Y-124188600D03*
%TD*%
D38*
%TO.P,SOT-23-1,1*%
%TO.N,N/C*%
X181201100Y-116068600D03*
%TO.P,SOT-23-1,2*%
X179301100Y-116068600D03*
%TO.P,SOT-23-1,3*%
X180251100Y-118068600D03*
%TD*%
D17*
%TO.P,E$31,1*%
%TO.N,N/C*%
X166301100Y-118158600D03*
%TO.P,E$31,2*%
X166301100Y-117648600D03*
%TD*%
D47*
%TO.P,SOT-23-6,1*%
%TO.N,N/C*%
X175415075Y-118285876D03*
%TO.P,SOT-23-6,2*%
X174465075Y-119931324D03*
%TO.P,SOT-23-6,3*%
X176672125Y-120108600D03*
%TD*%
D39*
%TO.P,R0603-1,1*%
%TO.N,N/C*%
X122681100Y-105003600D03*
%TO.P,R0603-1,2*%
X120981100Y-105003600D03*
%TD*%
D29*
%TO.P,C1,+*%
%TO.N,N/C*%
X152163600Y-93954600D03*
%TO.P,C1,-*%
X152163600Y-100812600D03*
%TD*%
D48*
%TO.P,SOT-223-1,1*%
%TO.N,N/C*%
X111739700Y-90502400D03*
%TO.P,SOT-223-1,2*%
X114051100Y-90502400D03*
%TO.P,SOT-223-1,3*%
X116362500Y-90502400D03*
D49*
%TO.P,SOT-223-1,4*%
X114051100Y-84304600D03*
%TD*%
D45*
%TO.P,R0805-7,1*%
%TO.N,N/C*%
X110401100Y-113573600D03*
%TO.P,R0805-7,2*%
X110401100Y-111673600D03*
%TD*%
D11*
%TO.P,E$20,1*%
%TO.N,N/C*%
X163731412Y-116833912D03*
%TO.P,E$20,2*%
X163370788Y-116473288D03*
%TD*%
D30*
%TO.P,E$21,1*%
%TO.N,N/C*%
X164620788Y-116833912D03*
%TO.P,E$21,2*%
X164981412Y-116473288D03*
%TD*%
D50*
%TO.P,R0603-2,1*%
%TO.N,N/C*%
X127829641Y-107827141D03*
%TO.P,R0603-2,2*%
X126627559Y-106625059D03*
%TD*%
D17*
%TO.P,E$2,1*%
%TO.N,N/C*%
X163301100Y-114658600D03*
%TO.P,E$2,2*%
X163301100Y-114148600D03*
%TD*%
D11*
%TO.P,E$22,1*%
%TO.N,N/C*%
X166231412Y-116833912D03*
%TO.P,E$22,2*%
X165870788Y-116473288D03*
%TD*%
D30*
%TO.P,E$19,1*%
%TO.N,N/C*%
X162120788Y-116833912D03*
%TO.P,E$19,2*%
X162481412Y-116473288D03*
%TD*%
D33*
%TO.P,R0402-8,1*%
%TO.N,N/C*%
X119750719Y-110543219D03*
%TO.P,R0402-8,2*%
X118831481Y-109623981D03*
%TD*%
D51*
%TO.P,SOT-252-1,1*%
%TO.N,N/C*%
X131351100Y-89683600D03*
%TO.P,SOT-252-1,2*%
X131351100Y-85123600D03*
D52*
%TO.P,SOT-252-1,3*%
X124051100Y-87403600D03*
%TD*%
D15*
%TO.P,E$14,1*%
%TO.N,N/C*%
X166306100Y-115653600D03*
%TO.P,E$14,2*%
X165796100Y-115653600D03*
%TD*%
D17*
%TO.P,E$6,1*%
%TO.N,N/C*%
X167301100Y-114658600D03*
%TO.P,E$6,2*%
X167301100Y-114148600D03*
%TD*%
D53*
%TO.P,R0805-8,1*%
%TO.N,N/C*%
X113103874Y-105176380D03*
%TO.P,R0805-8,2*%
X114447376Y-103832878D03*
%TD*%
D54*
%TO.P,R0805-2,1*%
%TO.N,N/C*%
X129214820Y-103896374D03*
%TO.P,R0805-2,2*%
X130558322Y-105239876D03*
%TD*%
D15*
%TO.P,E$16,1*%
%TO.N,N/C*%
X168806100Y-115653600D03*
%TO.P,E$16,2*%
X168296100Y-115653600D03*
%TD*%
D55*
%TO.P,TQFP-32-1,1*%
%TO.N,N/C*%
X134535874Y-95959028D03*
%TO.P,TQFP-32-1,2*%
X135101560Y-96524713D03*
%TO.P,TQFP-32-1,3*%
X135667245Y-97090398D03*
%TO.P,TQFP-32-1,4*%
X136232931Y-97656084D03*
%TO.P,TQFP-32-1,5*%
X136798616Y-98221769D03*
%TO.P,TQFP-32-1,6*%
X137364302Y-98787455D03*
%TO.P,TQFP-32-1,7*%
X137929987Y-99353140D03*
%TO.P,TQFP-32-1,8*%
X138495672Y-99918826D03*
D56*
%TO.P,TQFP-32-1,9*%
X140606528Y-99918826D03*
%TO.P,TQFP-32-1,10*%
X141172213Y-99353140D03*
%TO.P,TQFP-32-1,11*%
X141737898Y-98787455D03*
%TO.P,TQFP-32-1,12*%
X142303584Y-98221769D03*
%TO.P,TQFP-32-1,13*%
X142869269Y-97656084D03*
%TO.P,TQFP-32-1,14*%
X143434955Y-97090398D03*
%TO.P,TQFP-32-1,15*%
X144000640Y-96524713D03*
%TO.P,TQFP-32-1,16*%
X144566326Y-95959028D03*
D55*
%TO.P,TQFP-32-1,17*%
X144566326Y-93848172D03*
%TO.P,TQFP-32-1,18*%
X144000640Y-93282487D03*
%TO.P,TQFP-32-1,19*%
X143434955Y-92716802D03*
%TO.P,TQFP-32-1,20*%
X142869269Y-92151116D03*
%TO.P,TQFP-32-1,21*%
X142303584Y-91585431D03*
%TO.P,TQFP-32-1,22*%
X141737898Y-91019745D03*
%TO.P,TQFP-32-1,23*%
X141172213Y-90454060D03*
%TO.P,TQFP-32-1,24*%
X140606528Y-89888374D03*
D56*
%TO.P,TQFP-32-1,25*%
X138495672Y-89888374D03*
%TO.P,TQFP-32-1,26*%
X137929987Y-90454060D03*
%TO.P,TQFP-32-1,27*%
X137364302Y-91019745D03*
%TO.P,TQFP-32-1,28*%
X136798616Y-91585431D03*
%TO.P,TQFP-32-1,29*%
X136232931Y-92151116D03*
%TO.P,TQFP-32-1,30*%
X135667245Y-92716802D03*
%TO.P,TQFP-32-1,31*%
X135101560Y-93282487D03*
%TO.P,TQFP-32-1,32*%
X134535874Y-93848172D03*
%TD*%
D17*
%TO.P,E1,1*%
%TO.N,N/C*%
X162301100Y-114658600D03*
%TO.P,E1,2*%
X162301100Y-114148600D03*
%TD*%
D11*
%TO.P,E$24,1*%
%TO.N,N/C*%
X168731412Y-116833912D03*
%TO.P,E$24,2*%
X168370788Y-116473288D03*
%TD*%
D17*
%TO.P,E27,1*%
%TO.N,N/C*%
X162301100Y-118158600D03*
%TO.P,E27,2*%
X162301100Y-117648600D03*
%TD*%
D57*
%TO.P,R1206-3,1*%
%TO.N,N/C*%
X137071100Y-114045600D03*
%TO.P,R1206-3,2*%
X137071100Y-111201600D03*
%TD*%
%TO.P,R1206-7,1*%
%TO.N,N/C*%
X106591100Y-111201600D03*
%TO.P,R1206-7,2*%
X106591100Y-114045600D03*
%TD*%
D58*
%TO.P,R1206-4,1*%
%TO.N,N/C*%
X133631606Y-122413094D03*
%TO.P,R1206-4,2*%
X131620594Y-124424106D03*
%TD*%
D59*
%TO.P,L1,1*%
%TO.N,N/C*%
X164533333Y-125921367D03*
%TO.P,L1,2*%
X168068867Y-122385833D03*
%TD*%
D22*
%TO.P,FID-3,1*%
%TO.N,N/C*%
X186141100Y-86413600D03*
%TD*%
D17*
%TO.P,E36,1*%
%TO.N,N/C*%
X171301100Y-118158600D03*
%TO.P,E36,2*%
X171301100Y-117648600D03*
%TD*%
%TO.P,E10,1*%
%TO.N,N/C*%
X171301100Y-114658600D03*
%TO.P,E10,2*%
X171301100Y-114148600D03*
%TD*%
D15*
%TO.P,E18,1*%
%TO.N,N/C*%
X171306100Y-115653600D03*
%TO.P,E18,2*%
X170796100Y-115653600D03*
%TD*%
%TO.P,E$17,1*%
%TO.N,N/C*%
X170056100Y-115653600D03*
%TO.P,E$17,2*%
X169546100Y-115653600D03*
%TD*%
D22*
%TO.P,FID-2,1*%
%TO.N,N/C*%
X107861100Y-83413600D03*
%TD*%
D34*
%TO.P,R0402-5,1*%
%TO.N,N/C*%
X121831100Y-116829600D03*
%TO.P,R0402-5,2*%
X121831100Y-115529600D03*
%TD*%
D60*
%TO.P,R1206-2,1*%
%TO.N,N/C*%
X133631606Y-102834106D03*
%TO.P,R1206-2,2*%
X131620594Y-100823094D03*
%TD*%
D17*
%TO.P,E$9,1*%
%TO.N,N/C*%
X170301100Y-114658600D03*
%TO.P,E$9,2*%
X170301100Y-114148600D03*
%TD*%
D61*
%TO.P,SOP-16-1,1*%
%TO.N,N/C*%
X185701100Y-101698600D03*
%TO.P,SOP-16-1,2*%
X185701100Y-100428600D03*
%TO.P,SOP-16-1,3*%
X185701100Y-99158600D03*
%TO.P,SOP-16-1,4*%
X185701100Y-97888600D03*
%TO.P,SOP-16-1,5*%
X185701100Y-96618600D03*
%TO.P,SOP-16-1,6*%
X185701100Y-95348600D03*
%TO.P,SOP-16-1,7*%
X185701100Y-94078600D03*
%TO.P,SOP-16-1,8*%
X185701100Y-92808600D03*
%TO.P,SOP-16-1,9*%
X178501100Y-92808600D03*
%TO.P,SOP-16-1,10*%
X178501100Y-94078600D03*
%TO.P,SOP-16-1,11*%
X178501100Y-95348600D03*
%TO.P,SOP-16-1,12*%
X178501100Y-96618600D03*
%TO.P,SOP-16-1,13*%
X178501100Y-97888600D03*
%TO.P,SOP-16-1,14*%
X178501100Y-99158600D03*
%TO.P,SOP-16-1,15*%
X178501100Y-100428600D03*
%TO.P,SOP-16-1,16*%
X178501100Y-101698600D03*
%TD*%
D17*
%TO.P,E$35,1*%
%TO.N,N/C*%
X170301100Y-118158600D03*
%TO.P,E$35,2*%
X170301100Y-117648600D03*
%TD*%
%TO.P,E$32,1*%
%TO.N,N/C*%
X167301100Y-118158600D03*
%TO.P,E$32,2*%
X167301100Y-117648600D03*
%TD*%
D62*
%TO.N,S$289*%
X121851100Y-112503600D03*
%TD*%
D63*
%TO.N,S$79*%
X136051100Y-80403600D02*
X136051100Y-84403600D01*
%TO.N,S$121*%
X136551100Y-80403600D02*
X136551100Y-82403600D01*
%TO.N,S$122*%
X137051100Y-80403600D02*
X137051100Y-83403600D01*
%TO.N,S$123*%
X137551100Y-80403600D02*
X137551100Y-82403600D01*
%TO.N,S$124*%
X138051100Y-80403600D02*
X138051100Y-83403600D01*
%TO.N,S$125*%
X138551100Y-80403600D02*
X138551100Y-82403600D01*
%TO.N,S$126*%
X139051100Y-80403600D02*
X139051100Y-83403600D01*
%TO.N,S$127*%
X139551100Y-80403600D02*
X139551100Y-82403600D01*
%TO.N,S$128*%
X140051100Y-80403600D02*
X140051100Y-83403600D01*
%TO.N,S$129*%
X140551100Y-80403600D02*
X140551100Y-82403600D01*
%TO.N,S$130*%
X141051100Y-80403600D02*
X141051100Y-84403600D01*
%TO.N,S$131*%
X141551100Y-80403600D02*
X141551100Y-82403600D01*
%TO.N,S$132*%
X142051100Y-80403600D02*
X142051100Y-83403600D01*
%TO.N,S$133*%
X142551100Y-80403600D02*
X142551100Y-82403600D01*
%TO.N,S$134*%
X143051100Y-80403600D02*
X143051100Y-83403600D01*
%TO.N,S$135*%
X143551100Y-80403600D02*
X143551100Y-82403600D01*
%TO.N,S$136*%
X144051100Y-80403600D02*
X144051100Y-83403600D01*
%TO.N,S$137*%
X144551100Y-80403600D02*
X144551100Y-82403600D01*
%TO.N,S$138*%
X145051100Y-80403600D02*
X145051100Y-83403600D01*
%TO.N,S$139*%
X145551100Y-80403600D02*
X145551100Y-82403600D01*
%TO.N,S$140*%
X146051100Y-80403600D02*
X146051100Y-84403600D01*
%TO.N,S$141*%
X146551100Y-80403600D02*
X146551100Y-82403600D01*
%TO.N,S$142*%
X147051100Y-80403600D02*
X147051100Y-83403600D01*
%TO.N,S$143*%
X147551100Y-80403600D02*
X147551100Y-82403600D01*
%TO.N,S$144*%
X148051100Y-80403600D02*
X148051100Y-83403600D01*
%TO.N,S$145*%
X148551100Y-80403600D02*
X148551100Y-82403600D01*
%TO.N,S$146*%
X149051100Y-80403600D02*
X149051100Y-83403600D01*
%TO.N,S$147*%
X149551100Y-80403600D02*
X149551100Y-82403600D01*
%TO.N,S$148*%
X150051100Y-80403600D02*
X150051100Y-83403600D01*
%TO.N,S$149*%
X150551100Y-80403600D02*
X150551100Y-82403600D01*
%TO.N,S$150*%
X151051100Y-80403600D02*
X151051100Y-84403600D01*
%TO.N,S$151*%
X151551100Y-80403600D02*
X151551100Y-82403600D01*
%TO.N,S$152*%
X152051100Y-80403600D02*
X152051100Y-83403600D01*
%TO.N,S$153*%
X152551100Y-80403600D02*
X152551100Y-82403600D01*
%TO.N,S$154*%
X153051100Y-80403600D02*
X153051100Y-83403600D01*
%TO.N,S$155*%
X153551100Y-80403600D02*
X153551100Y-82403600D01*
%TO.N,S$156*%
X154051100Y-80403600D02*
X154051100Y-83403600D01*
%TO.N,S$157*%
X154551100Y-80403600D02*
X154551100Y-82403600D01*
%TO.N,S$158*%
X155051100Y-80403600D02*
X155051100Y-83403600D01*
%TO.N,S$159*%
X155551100Y-80403600D02*
X155551100Y-82403600D01*
%TO.N,S$160*%
X156051100Y-80403600D02*
X156051100Y-84403600D01*
%TO.N,S$161*%
X156551100Y-80403600D02*
X156551100Y-82403600D01*
%TO.N,S$162*%
X157051100Y-80403600D02*
X157051100Y-83403600D01*
%TO.N,S$163*%
X157551100Y-80403600D02*
X157551100Y-82403600D01*
%TO.N,S$164*%
X158051100Y-80403600D02*
X158051100Y-83403600D01*
%TO.N,S$165*%
X158551100Y-80403600D02*
X158551100Y-82403600D01*
%TO.N,S$166*%
X159051100Y-80403600D02*
X159051100Y-83403600D01*
%TO.N,S$167*%
X159551100Y-80403600D02*
X159551100Y-82403600D01*
%TO.N,S$168*%
X160051100Y-80403600D02*
X160051100Y-83403600D01*
%TO.N,S$169*%
X160551100Y-80403600D02*
X160551100Y-82403600D01*
%TO.N,S$170*%
X161051100Y-80403600D02*
X161051100Y-84403600D01*
%TO.N,S$171*%
X161551100Y-80403600D02*
X161551100Y-82403600D01*
%TO.N,S$172*%
X162051100Y-80403600D02*
X162051100Y-83403600D01*
%TO.N,S$173*%
X162551100Y-80403600D02*
X162551100Y-82403600D01*
%TO.N,S$174*%
X163051100Y-80403600D02*
X163051100Y-83403600D01*
%TO.N,S$175*%
X163551100Y-80403600D02*
X163551100Y-82403600D01*
%TO.N,S$176*%
X164051100Y-80403600D02*
X164051100Y-83403600D01*
%TO.N,S$177*%
X164551100Y-80403600D02*
X164551100Y-82403600D01*
%TO.N,S$178*%
X165051100Y-80403600D02*
X165051100Y-83403600D01*
%TO.N,S$179*%
X165551100Y-80403600D02*
X165551100Y-82403600D01*
%TO.N,S$180*%
X166051100Y-80403600D02*
X166051100Y-84403600D01*
%TO.N,S$181*%
X166551100Y-80403600D02*
X166551100Y-82403600D01*
%TO.N,S$182*%
X167051100Y-80403600D02*
X167051100Y-83403600D01*
%TO.N,S$183*%
X167551100Y-80403600D02*
X167551100Y-82403600D01*
%TO.N,S$184*%
X168051100Y-80403600D02*
X168051100Y-83403600D01*
%TO.N,S$185*%
X168551100Y-80403600D02*
X168551100Y-82403600D01*
%TO.N,S$186*%
X169051100Y-80403600D02*
X169051100Y-83403600D01*
%TO.N,S$187*%
X169551100Y-80403600D02*
X169551100Y-82403600D01*
%TO.N,S$188*%
X170051100Y-80403600D02*
X170051100Y-83403600D01*
%TO.N,S$189*%
X170551100Y-80403600D02*
X170551100Y-82403600D01*
%TO.N,S$190*%
X171051100Y-80403600D02*
X171051100Y-84403600D01*
%TO.N,S$191*%
X171551100Y-80403600D02*
X171551100Y-82403600D01*
%TO.N,S$192*%
X172051100Y-80403600D02*
X172051100Y-83403600D01*
%TO.N,S$193*%
X172551100Y-80403600D02*
X172551100Y-82403600D01*
%TO.N,S$194*%
X173051100Y-80403600D02*
X173051100Y-83403600D01*
%TO.N,S$195*%
X173551100Y-80403600D02*
X173551100Y-82403600D01*
%TO.N,S$196*%
X174051100Y-80403600D02*
X174051100Y-83403600D01*
%TO.N,S$197*%
X174551100Y-80403600D02*
X174551100Y-82403600D01*
%TO.N,S$198*%
X175051100Y-80403600D02*
X175051100Y-83403600D01*
%TO.N,S$199*%
X175551100Y-80403600D02*
X175551100Y-82403600D01*
%TO.N,S$200*%
X176051100Y-80403600D02*
X176051100Y-84403600D01*
%TO.N,S$201*%
X176551100Y-80403600D02*
X176551100Y-82403600D01*
%TO.N,S$202*%
X177051100Y-80403600D02*
X177051100Y-83403600D01*
%TO.N,S$203*%
X177551100Y-80403600D02*
X177551100Y-82403600D01*
%TO.N,S$204*%
X178051100Y-80403600D02*
X178051100Y-83403600D01*
%TO.N,S$205*%
X178551100Y-80403600D02*
X178551100Y-82403600D01*
%TO.N,S$206*%
X179051100Y-80403600D02*
X179051100Y-83403600D01*
%TO.N,S$207*%
X179551100Y-80403600D02*
X179551100Y-82403600D01*
%TO.N,S$208*%
X180051100Y-80403600D02*
X180051100Y-83403600D01*
%TO.N,S$209*%
X180551100Y-80403600D02*
X180551100Y-82403600D01*
%TO.N,S$210*%
X181051100Y-80403600D02*
X181051100Y-84403600D01*
%TO.N,S$211*%
X181551100Y-80403600D02*
X181551100Y-82403600D01*
%TO.N,S$212*%
X182051100Y-80403600D02*
X182051100Y-83403600D01*
%TO.N,S$213*%
X182551100Y-80403600D02*
X182551100Y-82403600D01*
%TO.N,S$214*%
X183051100Y-80403600D02*
X183051100Y-83403600D01*
%TO.N,S$215*%
X183551100Y-80403600D02*
X183551100Y-82403600D01*
%TO.N,S$216*%
X184051100Y-80403600D02*
X184051100Y-83403600D01*
%TO.N,S$217*%
X184551100Y-80403600D02*
X184551100Y-82403600D01*
%TO.N,S$218*%
X185051100Y-80403600D02*
X185051100Y-83403600D01*
%TO.N,S$219*%
X185551100Y-80403600D02*
X185551100Y-82403600D01*
%TO.N,S$220*%
X186051100Y-80403600D02*
X186051100Y-84403600D01*
%TO.N,S$221*%
X192051100Y-101903600D02*
X190051100Y-101903600D01*
%TO.N,S$222*%
X192051100Y-102403600D02*
X189051100Y-102403600D01*
%TO.N,S$223*%
X192051100Y-102903600D02*
X190051100Y-102903600D01*
%TO.N,S$224*%
X192051100Y-103403600D02*
X189051100Y-103403600D01*
%TO.N,S$225*%
X192051100Y-103903600D02*
X190051100Y-103903600D01*
%TO.N,S$226*%
X192051100Y-104403600D02*
X189051100Y-104403600D01*
%TO.N,S$227*%
X192051100Y-104903600D02*
X190051100Y-104903600D01*
%TO.N,S$228*%
X192051100Y-105403600D02*
X189051100Y-105403600D01*
%TO.N,S$229*%
X192051100Y-105903600D02*
X190051100Y-105903600D01*
%TO.N,S$230*%
X192051100Y-106403600D02*
X188051100Y-106403600D01*
%TO.N,S$231*%
X192051100Y-106903600D02*
X190051100Y-106903600D01*
%TO.N,S$232*%
X192051100Y-107403600D02*
X189051100Y-107403600D01*
%TO.N,S$233*%
X192051100Y-107903600D02*
X190051100Y-107903600D01*
%TO.N,S$234*%
X192051100Y-108403600D02*
X189051100Y-108403600D01*
%TO.N,S$235*%
X192051100Y-108903600D02*
X190051100Y-108903600D01*
%TO.N,S$236*%
X192051100Y-109403600D02*
X189051100Y-109403600D01*
%TO.N,S$237*%
X192051100Y-109903600D02*
X190051100Y-109903600D01*
%TO.N,S$238*%
X192051100Y-110403600D02*
X189051100Y-110403600D01*
%TO.N,S$239*%
X192051100Y-110903600D02*
X190051100Y-110903600D01*
%TO.N,S$240*%
X191051100Y-80403600D02*
X191051100Y-111403600D01*
X191051100Y-111403600D02*
X188051100Y-111403600D01*
X192051100Y-111403600D02*
X191051100Y-111403600D01*
%TO.N,S$241*%
X192051100Y-91903600D02*
X190051100Y-91903600D01*
%TO.N,S$242*%
X192051100Y-92403600D02*
X189051100Y-92403600D01*
%TO.N,S$243*%
X192051100Y-92903600D02*
X190051100Y-92903600D01*
%TO.N,S$244*%
X192051100Y-93403600D02*
X189051100Y-93403600D01*
%TO.N,S$245*%
X192051100Y-93903600D02*
X190051100Y-93903600D01*
%TO.N,S$246*%
X192051100Y-94403600D02*
X189051100Y-94403600D01*
%TO.N,S$247*%
X192051100Y-94903600D02*
X190051100Y-94903600D01*
%TO.N,S$248*%
X192051100Y-95403600D02*
X189051100Y-95403600D01*
%TO.N,S$249*%
X192051100Y-95903600D02*
X190051100Y-95903600D01*
%TO.N,S$250*%
X192051100Y-96403600D02*
X188051100Y-96403600D01*
%TO.N,S$251*%
X192051100Y-96903600D02*
X190051100Y-96903600D01*
%TO.N,S$252*%
X192051100Y-97403600D02*
X189051100Y-97403600D01*
%TO.N,S$253*%
X192051100Y-97903600D02*
X190051100Y-97903600D01*
%TO.N,S$254*%
X192051100Y-98403600D02*
X189051100Y-98403600D01*
%TO.N,S$255*%
X192051100Y-98903600D02*
X190051100Y-98903600D01*
%TO.N,S$256*%
X192051100Y-99403600D02*
X189051100Y-99403600D01*
%TO.N,S$257*%
X192051100Y-99903600D02*
X190051100Y-99903600D01*
%TO.N,S$258*%
X192051100Y-100403600D02*
X189051100Y-100403600D01*
%TO.N,S$259*%
X192051100Y-100903600D02*
X190051100Y-100903600D01*
%TO.N,S$260*%
X192051100Y-101403600D02*
X188051100Y-101403600D01*
%TO.N,S$262*%
X192051100Y-82403600D02*
X190451100Y-82403600D01*
%TO.N,S$263*%
X192051100Y-82903600D02*
X190051100Y-82903600D01*
%TO.N,S$264*%
X192051100Y-83403600D02*
X189051100Y-83403600D01*
%TO.N,S$265*%
X192051100Y-83903600D02*
X190051100Y-83903600D01*
%TO.N,S$266*%
X192051100Y-84403600D02*
X189051100Y-84403600D01*
%TO.N,S$267*%
X192051100Y-84903600D02*
X190051100Y-84903600D01*
%TO.N,S$268*%
X192051100Y-85403600D02*
X189051100Y-85403600D01*
%TO.N,S$269*%
X192051100Y-85903600D02*
X190051100Y-85903600D01*
%TO.N,S$270*%
X192051100Y-86403600D02*
X188051100Y-86403600D01*
%TO.N,S$271*%
X192051100Y-86903600D02*
X190051100Y-86903600D01*
%TO.N,S$272*%
X192051100Y-87403600D02*
X189051100Y-87403600D01*
%TO.N,S$273*%
X192051100Y-87903600D02*
X190051100Y-87903600D01*
%TO.N,S$274*%
X192051100Y-88403600D02*
X189051100Y-88403600D01*
%TO.N,S$275*%
X192051100Y-88903600D02*
X190051100Y-88903600D01*
%TO.N,S$276*%
X192051100Y-89403600D02*
X189051100Y-89403600D01*
%TO.N,S$277*%
X192051100Y-89903600D02*
X190051100Y-89903600D01*
%TO.N,S$278*%
X192051100Y-90403600D02*
X189051100Y-90403600D01*
%TO.N,S$279*%
X192051100Y-90903600D02*
X190051100Y-90903600D01*
%TO.N,S$280*%
X192051100Y-91403600D02*
X188051100Y-91403600D01*
%TO.N,S$261*%
X186551100Y-80403600D02*
X186551100Y-82403600D01*
%TO.N,S$281*%
X187051100Y-80403600D02*
X187051100Y-83403600D01*
%TO.N,S$282*%
X187551100Y-80403600D02*
X187551100Y-82403600D01*
%TO.N,S$283*%
X188051100Y-80403600D02*
X188051100Y-83403600D01*
%TO.N,S$284*%
X188551100Y-80403600D02*
X188551100Y-82403600D01*
%TO.N,S$285*%
X189051100Y-80403600D02*
X189051100Y-82803600D01*
%TO.N,S$286*%
X189551100Y-80403600D02*
X189551100Y-82403600D01*
%TO.N,S$287*%
X190051100Y-80403600D02*
X190051100Y-82003600D01*
%TO.N,S$288*%
X136151100Y-81403600D02*
X192051100Y-81403600D01*
%TD*%
M02*
